<?xml version="1.0" encoding="UTF-8"?>
<svg version="1.1" xmlns="http://www.w3.org/2000/svg" width="500" height="500">
<path d="M0 0 C6.27627403 2.78945512 10.33548425 7.30490586 14.4375 12.625 C14.91977051 13.24745605 15.40204102 13.86991211 15.89892578 14.51123047 C30.66514183 33.82625726 37.01563046 55.82511118 34 80 C31.87565531 95.74243136 26.14227572 109.19819651 18.91699219 123.21435547 C17.58977616 125.79882246 16.29446338 128.39901303 15 131 C14.34 131 13.68 131 13 131 C12.855625 131.61875 12.71125 132.2375 12.5625 132.875 C12 135 12 135 11 137 C10.34 137 9.68 137 9 137 C8.91621094 137.54140625 8.83242188 138.0828125 8.74609375 138.640625 C7.74149281 141.81747823 6.02577067 144.06603503 4.0625 146.75 C3.35222656 147.73484375 2.64195312 148.7196875 1.91015625 149.734375 C1.27980469 150.48203125 0.64945312 151.2296875 0 152 C-0.66 152 -1.32 152 -2 152 C-2 152.66 -2 153.32 -2 154 C-2.66 154 -3.32 154 -4 154 C-4.2475 154.556875 -4.495 155.11375 -4.75 155.6875 C-6.22924818 158.42410913 -7.93467439 160.67650869 -10 163 C-10.66 163 -11.32 163 -12 163 C-12.268125 163.598125 -12.53625 164.19625 -12.8125 164.8125 C-13.99917406 166.99847854 -15.09599113 168.41332594 -17 170 C-17.66 170 -18.32 170 -19 170 C-19 170.66 -19 171.32 -19 172 C-19.66 172 -20.32 172 -21 172 C-21 172.66 -21 173.32 -21 174 C-22.4609375 175.5078125 -22.4609375 175.5078125 -24.375 177.125 C-25.00148438 177.66382813 -25.62796875 178.20265625 -26.2734375 178.7578125 C-28 180 -28 180 -30 180 C-30 180.66 -30 181.32 -30 182 C-30.66 182 -31.32 182 -32 182 C-32 182.66 -32 183.32 -32 184 C-33.32 184.33 -34.64 184.66 -36 185 C-36 185.66 -36 186.32 -36 187 C-37.81770503 188.59394033 -39.63207068 190.05273146 -41.5625 191.5 C-42.43455078 192.16104736 -42.43455078 192.16104736 -43.32421875 192.83544922 C-50.02001364 197.851953 -56.96525171 202.4759063 -64 207 C-65.10472656 207.71285156 -66.20945312 208.42570313 -67.34765625 209.16015625 C-74.99175124 213.98067302 -82.87849452 218.0510111 -91 222 C-93.02109041 223.04116779 -95.04193463 224.08281365 -97.0625 225.125 C-102.20225102 227.69828836 -107.43631157 229.79862003 -112.82421875 231.79296875 C-115.71084539 232.89009991 -118.4970428 234.10948703 -121.3125 235.375 C-158.28435646 250.85727014 -204.31647864 257.24086851 -243 245 C-243 245.66 -243 246.32 -243 247 C-243.66 247 -244.32 247 -245 247 C-245 247.66 -245 248.32 -245 249 C-245.66 249 -246.32 249 -247 249 C-247.268125 249.598125 -247.53625 250.19625 -247.8125 250.8125 C-248.99917406 252.99847854 -250.09599113 254.41332594 -252 256 C-252.66 256 -253.32 256 -254 256 C-254 256.66 -254 257.32 -254 258 C-254.66 258 -255.32 258 -256 258 C-256 258.66 -256 259.32 -256 260 C-256.66 260 -257.32 260 -258 260 C-258 260.66 -258 261.32 -258 262 C-258.66 262 -259.32 262 -260 262 C-260 262.66 -260 263.32 -260 264 C-260.66 264 -261.32 264 -262 264 C-262 264.66 -262 265.32 -262 266 C-263.79296875 267.76171875 -263.79296875 267.76171875 -266.1875 269.6875 C-267.35345703 270.65236328 -267.35345703 270.65236328 -268.54296875 271.63671875 C-271 273 -271 273 -273.67578125 272.89453125 C-276 272 -276 272 -278 269 C-278.27242154 262.46188299 -274.90775032 258.67086665 -271.0078125 253.6484375 C-268.9468909 251.04541185 -268.9468909 251.04541185 -267.3671875 248.1640625 C-266.69042969 247.09285156 -266.69042969 247.09285156 -266 246 C-265.34 246 -264.68 246 -264 246 C-263.71125 245.236875 -263.4225 244.47375 -263.125 243.6875 C-262 241 -262 241 -260 238 C-261.32 237.34 -262.64 236.68 -264 236 C-264 235.34 -264 234.68 -264 234 C-264.61875 233.855625 -265.2375 233.71125 -265.875 233.5625 C-268 233 -268 233 -270 232 C-270 231.34 -270 230.68 -270 230 C-270.59039062 229.731875 -271.18078125 229.46375 -271.7890625 229.1875 C-281.00144681 224.2395056 -286.47589751 213.7354341 -289.45703125 204.10546875 C-289.63621094 203.41066406 -289.81539063 202.71585938 -290 202 C-290.18433594 201.29230469 -290.36867188 200.58460938 -290.55859375 199.85546875 C-292.68948691 186.0706643 -291.40223062 171.20669185 -287 158 C-286.01 158.33 -285.02 158.66 -284 159 C-284.33 159.99 -284.66 160.98 -285 162 C-285.72481743 172.81285026 -284.78300631 181.74486242 -281 192 C-280.6454654 193.32785319 -280.30252413 194.65934045 -280 196 C-279.34 196 -278.68 196 -278 196 C-276.64940127 197.98838146 -275.31906505 199.99056098 -274 202 C-268.30644901 208.44008303 -262.363538 212.75124396 -254.5625 216.1875 C-253.87639648 216.49099365 -253.19029297 216.7944873 -252.48339844 217.10717773 C-249.82866506 218.19454448 -247.58291218 219.02564419 -244.69140625 218.8984375 C-242.5271759 217.74884632 -241.67010058 216.50548319 -240.375 214.4375 C-239.1484375 212.49609375 -239.1484375 212.49609375 -238 211 C-237.34 211 -236.68 211 -236 211 C-235.7834375 210.32582031 -235.566875 209.65164063 -235.34375 208.95703125 C-233.57871339 205.07292452 -231.14842339 202.01000531 -228.5 198.6875 C-228.00113281 198.04232422 -227.50226563 197.39714844 -226.98828125 196.73242188 C-225.71003595 195.11319693 -224.36010191 193.55110388 -223 192 C-222.34 192 -221.68 192 -221 192 C-220.80277344 191.34 -220.60554688 190.68 -220.40234375 190 C-218.43057277 185.78183812 -215.55261988 182.54239339 -212.5625 179 C-208.08505502 173.72055801 -208.08505502 173.72055801 -204.21484375 168 C-203.81394531 167.34 -203.41304688 166.68 -203 166 C-202.34 166 -201.68 166 -201 166 C-200.74347656 165.2678125 -200.48695313 164.535625 -200.22265625 163.78125 C-198.94214846 160.8684016 -197.48925707 158.92065884 -195.4375 156.5 C-191.63082022 151.89301277 -188.24523151 147.10668296 -184.97045898 142.11523438 C-184.02867021 140.70984453 -183.01979525 139.34985346 -182 138 C-181.34 138 -180.68 138 -180 138 C-179.74863281 137.32582031 -179.49726563 136.65164063 -179.23828125 135.95703125 C-176.56869393 129.58202304 -173.73516361 123.16979063 -168 119 C-160.36195058 116.08628874 -151.63975388 117.2088392 -144.16552734 120.09423828 C-137.70975992 123.11739957 -131.81171998 126.89127299 -126 131 C-125.38318359 131.43119141 -124.76636719 131.86238281 -124.13085938 132.30664062 C-115.87761948 138.21020368 -108.9773845 145.57683615 -105 155 C-103.744387 164.41709752 -104.75619098 172.04064703 -110 180 C-110.66 180 -111.32 180 -112 180 C-112.24234375 180.57234375 -112.4846875 181.1446875 -112.734375 181.734375 C-119.83871162 194.45201462 -137.88898872 201.6178352 -151 206 C-152.07314453 206.36931641 -152.07314453 206.36931641 -153.16796875 206.74609375 C-159.00919861 208.49244082 -164.97393191 208.18078204 -171 208 C-169.53417985 204.57719483 -167.61937745 202.43519517 -164.9375 199.875 C-162.08428067 197.22095 -162.08428067 197.22095 -160 194 C-159.34 194 -158.68 194 -158 194 C-158 193.34 -158 192.68 -158 192 C-157.34 192 -156.68 192 -156 192 C-156 191.34 -156 190.68 -156 190 C-155.34 190 -154.68 190 -154 190 C-154 189.34 -154 188.68 -154 188 C-153.34 188 -152.68 188 -152 188 C-151.75378906 187.43539062 -151.50757813 186.87078125 -151.25390625 186.2890625 C-149.78593095 183.60920728 -148.0064331 181.62041197 -145.9375 179.375 C-143.14219542 176.41210833 -143.14219542 176.41210833 -141 173 C-140.34 173 -139.68 173 -139 173 C-138.01 170.03 -138.01 170.03 -137 167 C-137.81726563 166.75507813 -138.63453125 166.51015625 -139.4765625 166.2578125 C-143.63161324 164.77452388 -147.45321289 162.88199051 -151.375 160.875 C-152.11105469 160.50246094 -152.84710938 160.12992188 -153.60546875 159.74609375 C-155.40550358 158.8343878 -157.20301402 157.91770068 -159 157 C-159.24363281 157.72574219 -159.48726562 158.45148438 -159.73828125 159.19921875 C-161.15514759 162.34439883 -162.83115811 164.30204281 -165.1875 166.8125 C-167.97211476 169.81404024 -170.72375931 172.81763807 -173.375 175.9375 C-176.83829339 179.9317228 -180.57410746 183.63134548 -184.35693359 187.32006836 C-187.01984843 189.89891394 -187.01984843 189.89891394 -189 193 C-189.66 193 -190.32 193 -191 193 C-191 193.66 -191 194.32 -191 195 C-191.66 195 -192.32 195 -193 195 C-193 195.66 -193 196.32 -193 197 C-194.375 198.625 -194.375 198.625 -196 200 C-196.66 200 -197.32 200 -198 200 C-198 200.66 -198 201.32 -198 202 C-198.66 202 -199.32 202 -200 202 C-200 202.66 -200 203.32 -200 204 C-200.66 204 -201.32 204 -202 204 C-202 204.66 -202 205.32 -202 206 C-202.66 206 -203.32 206 -204 206 C-204 206.66 -204 207.32 -204 208 C-204.66 208 -205.32 208 -206 208 C-206.268125 208.639375 -206.53625 209.27875 -206.8125 209.9375 C-208 212 -208 212 -211 213 C-211 213.66 -211 214.32 -211 215 C-211.66 215 -212.32 215 -213 215 C-213 215.66 -213 216.32 -213 217 C-213.66 217 -214.32 217 -215 217 C-215 217.66 -215 218.32 -215 219 C-215.66 219 -216.32 219 -217 219 C-217 219.66 -217 220.32 -217 221 C-217.66 221 -218.32 221 -219 221 C-219 221.66 -219 222.32 -219 223 C-219.66 223 -220.32 223 -221 223 C-221 223.66 -221 224.32 -221 225 C-187.95775537 225.69334313 -155.36974137 220.87249589 -125.1875 206.5 C-122.61798045 205.29081433 -120.04027305 204.13421655 -117.4375 203 C-106.57519539 198.2474787 -96.18427349 193.06952754 -86 187 C-84.90558594 186.35417969 -83.81117188 185.70835937 -82.68359375 185.04296875 C-75.6543262 180.80815848 -68.89633848 176.25006881 -62.203125 171.50439453 C-57.2113786 168 -57.2113786 168 -55 168 C-55 167.34 -55 166.68 -55 166 C-52.78724901 164.08307133 -50.56850904 162.28028372 -48.25 160.5 C-47.29867187 159.75169922 -47.29867187 159.75169922 -46.328125 158.98828125 C-43.30916092 156.64229458 -40.47068158 154.63750822 -37 153 C-37 152.34 -37 151.68 -37 151 C-36.34 151 -35.68 151 -35 151 C-35 150.34 -35 149.68 -35 149 C-34.34 149 -33.68 149 -33 149 C-33 148.34 -33 147.68 -33 147 C-32.34 147 -31.68 147 -31 147 C-31 146.34 -31 145.68 -31 145 C-30.195625 144.360625 -29.39125 143.72125 -28.5625 143.0625 C-23.60301609 139.07865227 -19.91316114 133.97350158 -16 129 C-15.18015625 127.98421875 -14.3603125 126.9684375 -13.515625 125.921875 C5.41889587 102.20773062 18.7200716 72.85730092 15.80517578 41.93310547 C14.19572419 27.61260677 8.82134219 15.94344984 1.06640625 3.85546875 C0 2 0 2 0 0 Z " fill="#026ACA" transform="translate(387,162)"/>
<path d="M0 0 C1.98791555 -0.00963838 3.97568889 -0.04080861 5.96337891 -0.07226562 C32.37306931 -0.17801013 54.30611217 14.88390209 76.51416016 27.55273438 C77.39048096 28.05216553 78.26680176 28.55159668 79.16967773 29.06616211 C82.83213925 31.16314614 86.47744004 33.27150509 90.05322266 35.51367188 C95.66797682 38.99624091 100.58748456 41.97131659 107.38916016 41.24023438 C109.95191915 40.48089838 111.99255437 39.48646938 114.38916016 38.24023438 C115.37916016 37.91023438 116.36916016 37.58023438 117.38916016 37.24023438 C117.38916016 36.58023438 117.38916016 35.92023438 117.38916016 35.24023438 C118.04916016 35.24023438 118.70916016 35.24023438 119.38916016 35.24023438 C119.38916016 34.58023438 119.38916016 33.92023438 119.38916016 33.24023438 C120.04916016 33.24023438 120.70916016 33.24023438 121.38916016 33.24023438 C121.38916016 32.58023438 121.38916016 31.92023438 121.38916016 31.24023438 C122.04916016 31.24023438 122.70916016 31.24023438 123.38916016 31.24023438 C123.66695312 30.66047852 123.94474609 30.08072266 124.23095703 29.48339844 C126.14140455 25.78331584 128.54161476 22.42359535 130.88916016 18.99023438 C131.38802734 18.24515625 131.88689453 17.50007813 132.40087891 16.73242188 C132.88169922 16.02859375 133.36251953 15.32476562 133.85791016 14.59960938 C134.29554688 13.95475586 134.73318359 13.30990234 135.18408203 12.64550781 C135.7805957 11.94989746 135.7805957 11.94989746 136.38916016 11.24023438 C137.04916016 11.24023438 137.70916016 11.24023438 138.38916016 11.24023438 C139.04916016 9.92023438 139.70916016 8.60023437 140.38916016 7.24023438 C146.90002797 6.87169469 146.90002797 6.87169469 149.08447266 8.51757812 C150.97062534 11.00797733 150.97518914 13.3580207 150.86181641 16.40429688 C148.09535508 33.00306486 137.06646585 49.65626695 126.38916016 62.24023438 C125.88489502 62.94365967 125.38062988 63.64708496 124.86108398 64.37182617 C121.01748039 67.27702107 117.23902875 66.85101235 112.54150391 66.84179688 C111.57443008 66.85036713 110.60735626 66.85893738 109.61097717 66.86776733 C107.56254196 66.87925009 105.5140252 66.88025713 103.46557617 66.87158203 C100.36117279 66.86530417 97.26066415 66.91201874 94.15673828 66.96289062 C83.46635084 67.03035387 75.26149917 66.86395113 66.38916016 60.24023438 C61.19122262 57.23211614 61.19122262 57.23211614 55.38916016 56.24023438 C54.06916016 59.54023438 52.74916016 62.84023437 51.38916016 66.24023438 C34.55916016 66.24023438 17.72916016 66.24023438 0.38916016 66.24023438 C1.28670861 62.65004054 2.29298748 60.35651061 4.07666016 57.17773438 C4.87523437 55.73527344 4.87523437 55.73527344 5.68994141 54.26367188 C6.82526306 52.24358232 7.96854466 50.22794633 9.11962891 48.21679688 C9.93367188 46.77433594 9.93367188 46.77433594 10.76416016 45.30273438 C11.51826172 43.98982422 11.51826172 43.98982422 12.28759766 42.65039062 C13.66628688 40.07555699 13.66628688 40.07555699 13.38916016 36.24023438 C12.72916016 36.24023438 12.06916016 36.24023438 11.38916016 36.24023438 C11.38916016 35.58023438 11.38916016 34.92023438 11.38916016 34.24023438 C10.50228516 33.95148438 9.61541016 33.66273438 8.70166016 33.36523438 C5.38916016 32.24023438 5.38916016 32.24023438 2.95166016 31.17773438 C-10.20066329 26.36590873 -26.91992566 28.84394177 -39.48583984 34.22070312 C-41.95991685 35.40771434 -44.26571981 36.81894951 -46.61083984 38.24023438 C-47.60083984 38.24023438 -48.59083984 38.24023438 -49.61083984 38.24023438 C-49.61083984 38.90023437 -49.61083984 39.56023437 -49.61083984 40.24023438 C-51.87646484 41.89648438 -51.87646484 41.89648438 -54.86083984 43.74023438 C-55.83537109 44.34867188 -56.80990234 44.95710938 -57.81396484 45.58398438 C-60.0487435 46.90737285 -62.26800457 48.12459853 -64.61083984 49.24023438 C-64.61083984 49.90023437 -64.61083984 50.56023437 -64.61083984 51.24023438 C-66.30358268 52.80456224 -68.06653837 54.29352009 -69.86083984 55.74023438 C-70.83537109 56.53429687 -71.80990234 57.32835937 -72.81396484 58.14648438 C-75.05978746 59.82771471 -77.05742014 61.12159336 -79.61083984 62.24023438 C-79.61083984 62.90023437 -79.61083984 63.56023437 -79.61083984 64.24023438 C-82.25083984 64.24023438 -84.89083984 64.24023438 -87.61083984 64.24023438 C-87.61083984 63.58023438 -87.61083984 62.92023438 -87.61083984 62.24023438 C-88.27083984 62.24023438 -88.93083984 62.24023438 -89.61083984 62.24023438 C-90.11024792 56.12248541 -88.85984586 53.21527484 -85.61083984 48.24023438 C-84.95083984 48.24023438 -84.29083984 48.24023438 -83.61083984 48.24023438 C-82.95083984 46.59023437 -82.29083984 44.94023437 -81.61083984 43.24023438 C-80.95083984 43.24023438 -80.29083984 43.24023438 -79.61083984 43.24023438 C-79.28083984 41.92023438 -78.95083984 40.60023438 -78.61083984 39.24023438 C-77.95083984 39.24023438 -77.29083984 39.24023438 -76.61083984 39.24023438 C-76.61083984 38.58023438 -76.61083984 37.92023438 -76.61083984 37.24023438 C-75.95083984 37.24023438 -75.29083984 37.24023438 -74.61083984 37.24023438 C-74.36076172 36.66660156 -74.11068359 36.09296875 -73.85302734 35.50195312 C-69.28801897 27.19019259 -59.52891126 20.26927973 -51.61083984 15.24023438 C-50.62083984 15.24023438 -49.63083984 15.24023438 -48.61083984 15.24023438 C-48.61083984 14.58023438 -48.61083984 13.92023438 -48.61083984 13.24023438 C-32.4232977 5.25308783 -18.30767333 0.05349211 0 0 Z " fill="#016ACB" transform="translate(232.61083984375,109.759765625)"/>
<path d="M0 0 C1.37953745 0.01495729 2.75901915 0.03563562 4.13841248 0.06056213 C5.26516891 0.07497345 5.26516891 0.07497345 6.41468811 0.0896759 C8.90919536 0.12278046 11.40353366 0.16306874 13.89793396 0.2033844 C15.62285762 0.22767434 17.34778762 0.25151845 19.07272339 0.27493286 C23.62171112 0.33788591 28.17058732 0.40692054 32.71946716 0.47718811 C37.35768029 0.54777049 41.99597275 0.61264778 46.63426208 0.67799377 C55.74177113 0.80715064 64.84917261 0.94272729 73.95652771 1.08229065 C73.11264125 7.98730689 71.88794495 14.71033434 70.45652771 21.51979065 C70.23094177 22.62000549 70.00535583 23.72022034 69.77293396 24.85377502 C69.44615662 26.41901917 69.44615662 26.41901917 69.11277771 28.0158844 C68.91490662 28.96519836 68.71703552 29.91451233 68.51316833 30.89259338 C67.95652771 33.08229065 67.95652771 33.08229065 66.95652771 34.08229065 C65.60557789 34.17498064 64.2498568 34.19976391 62.89573669 34.19581604 C62.03491989 34.19574051 61.17410309 34.19566498 60.28720093 34.19558716 C59.3517897 34.19042587 58.41637848 34.18526459 57.45262146 34.1799469 C56.49960648 34.17853195 55.54659149 34.177117 54.56469727 34.17565918 C51.50777606 34.17004217 48.45092694 34.15748681 45.39402771 34.14479065 C43.32697147 34.13977784 41.25991409 34.13521455 39.19285583 34.13111877 C34.11402938 34.12091623 29.03535965 34.10134421 23.95652771 34.08229065 C22.63652771 40.68229065 21.31652771 47.28229065 19.95652771 54.08229065 C32.49652771 54.08229065 45.03652771 54.08229065 57.95652771 54.08229065 C56.83152771 65.33229065 56.83152771 65.33229065 55.76512146 69.87135315 C55.56459167 70.73969788 55.36406189 71.6080426 55.15745544 72.50270081 C54.90552429 73.56021545 54.65359314 74.6177301 54.39402771 75.70729065 C53.58965271 79.13104065 52.78527771 82.55479065 51.95652771 86.08229065 C39.08652771 86.08229065 26.21652771 86.08229065 12.95652771 86.08229065 C12.62652771 88.72229065 12.29652771 91.36229065 11.95652771 94.08229065 C10.5840046 102.40485115 8.91024449 110.64265064 6.89402771 118.83229065 C6.73184753 119.49938049 6.56966736 120.16647034 6.40257263 120.85377502 C5.54612274 124.23612204 4.5342669 126.92681226 2.95652771 130.08229065 C-8.92347229 130.08229065 -20.80347229 130.08229065 -33.04347229 130.08229065 C-31.07889301 121.17152035 -29.10344281 112.26917078 -26.98097229 103.39479065 C-25.42981667 96.90425126 -24.07749483 90.40109457 -22.85206604 83.84010315 C-22.19590898 80.79071622 -21.43650951 77.84000662 -20.59425354 74.84010315 C-19.03472796 69.21622872 -17.88256837 63.56301048 -16.79347229 57.83229065 C-14.83147208 47.77223076 -12.68276635 37.76514363 -10.41847229 27.76979065 C-10.12940002 26.49007385 -9.84032776 25.21035706 -9.54249573 23.89186096 C-4.12743483 0.11159927 -4.12743483 0.11159927 0 0 Z " fill="#F5F4F2" transform="translate(182.04347229003906,181.91770935058594)"/>
<path d="M0 0 C0.48605888 7.05302456 -1.3041693 13.55014449 -2.9375 20.375 C-3.21529297 21.57511719 -3.49308594 22.77523437 -3.77929688 24.01171875 C-5.85816062 32.85816062 -5.85816062 32.85816062 -7 34 C-9.44830426 34.08843793 -11.86820599 34.11528752 -14.31640625 34.09765625 C-15.41298805 34.09553383 -15.41298805 34.09553383 -16.53172302 34.09336853 C-18.87535632 34.08775408 -21.21889539 34.07519922 -23.5625 34.0625 C-25.14778508 34.05748686 -26.73307166 34.05292363 -28.31835938 34.04882812 C-32.2122761 34.03777997 -36.10612205 34.02050572 -40 34 C-40.12528076 34.65669678 -40.25056152 35.31339355 -40.37963867 35.98999023 C-42.76096665 48.45821314 -45.16049668 60.9229231 -47.625 73.375 C-47.81860107 74.3642749 -48.01220215 75.3535498 -48.21166992 76.37280273 C-49.20366144 81.35624934 -50.30174125 86.28713762 -51.55859375 91.2109375 C-52.74852764 95.88059535 -53.67465133 100.49285674 -54.4375 105.25 C-55.83198819 113.62556673 -57.82498823 121.79678303 -60 130 C-63.12482562 130.08687496 -66.24934246 130.14034568 -69.375 130.1875 C-70.26445312 130.21263672 -71.15390625 130.23777344 -72.0703125 130.26367188 C-72.92109375 130.27333984 -73.771875 130.28300781 -74.6484375 130.29296875 C-75.82672119 130.31653442 -75.82672119 130.31653442 -77.02880859 130.34057617 C-77.67930176 130.22818604 -78.32979492 130.1157959 -79 130 C-81 127 -81 127 -81 124 C-81.66 124 -82.32 124 -83 124 C-84.68732277 122.01739574 -86.35366057 120.0167658 -88 118 C-88.66 117.67 -89.32 117.34 -90 117 C-90 116.34 -90 115.68 -90 115 C-90.66 115 -91.32 115 -92 115 C-90.702481 106.30600016 -89.28141442 97.6446044 -87.6875 89 C-87.4723877 87.83299561 -87.25727539 86.66599121 -87.03564453 85.46362305 C-85.50698959 77.33133416 -83.72989352 69.29182565 -81.74389648 61.26025391 C-80.09565921 54.56326106 -78.77254954 47.84624098 -77.578125 41.0546875 C-77 38 -77 38 -76 35 C-86.23 34.67 -96.46 34.34 -107 34 C-105.8742889 24.99431121 -105.8742889 24.99431121 -104.84375 20.51171875 C-104.62589844 19.55845703 -104.40804688 18.60519531 -104.18359375 17.62304688 C-103.95800781 16.65431641 -103.73242188 15.68558594 -103.5 14.6875 C-103.27441406 13.69943359 -103.04882812 12.71136719 -102.81640625 11.69335938 C-101.14933036 4.44799107 -101.14933036 4.44799107 -100 1 C-87.10927419 0.8695571 -74.21854784 0.73916802 -61.32782078 0.60884857 C-55.34281449 0.54834114 -49.3578084 0.48781483 -43.37280273 0.42724609 C-37.60216757 0.36884749 -31.83153192 0.31049753 -26.06089592 0.25218201 C-23.85397257 0.22987112 -21.64704941 0.20754239 -19.44012642 0.18519592 C-16.36055675 0.15401635 -13.28098647 0.12289894 -10.20141602 0.09179688 C-9.27928818 0.08244614 -8.35716034 0.0730954 -7.40708923 0.0634613 C-1.11405216 0 -1.11405216 0 0 0 Z " fill="#F5F5F3" transform="translate(366,182)"/>
<path d="M0 0 C5.83578595 5.22264521 9.55247857 10.97230717 10.43359375 18.90234375 C10.45661365 20.24719946 10.45747463 21.59259561 10.4375 22.9375 C10.43137695 23.64044189 10.42525391 24.34338379 10.41894531 25.06762695 C10.25137798 30.62248405 9.2606037 34.54232152 6 39 C5.46375 39.86625 4.9275 40.7325 4.375 41.625 C-1.85232337 47.85232337 -8.94029865 51.0377945 -17.6875 51.3125 C-24.11190175 51.27397285 -29.34463329 48.82768335 -35 46 C-35 45.34 -35 44.68 -35 44 C-35.66 44 -36.32 44 -37 44 C-37 43.34 -37 42.68 -37 42 C-37.99 41.67 -38.98 41.34 -40 41 C-40.6875 38.9375 -40.6875 38.9375 -41 37 C-41.66 37 -42.32 37 -43 37 C-46.60120572 28.9268052 -46.86322408 20.30334983 -44 12 C-43.05836649 9.97186629 -42.07760308 7.95927833 -41 6 C-40.34 6 -39.68 6 -39 6 C-38.814375 5.443125 -38.62875 4.88625 -38.4375 4.3125 C-34.92176463 -1.34324821 -28.5015623 -4.12460943 -22.25 -5.6875 C-13.87130104 -6.49314413 -7.02905642 -4.7054014 0 0 Z " fill="#016BD1" transform="translate(324,70)"/>
<path d="M0 0 C0.77778809 0.00725098 1.55557617 0.01450195 2.35693359 0.02197266 C4.34271155 0.04852169 6.32782817 0.11610893 8.3125 0.1875 C9.36050781 0.22230469 10.40851563 0.25710938 11.48828125 0.29296875 C14 1 14 1 15.90234375 3.37890625 C17 6 17 6 16.25 8.75 C15 11 15 11 14 12 C12.07782922 12.10445557 10.15180181 12.13855137 8.22680664 12.14526367 C6.37467308 12.15483345 6.37467308 12.15483345 4.48512268 12.16459656 C3.12680093 12.16612512 1.76847866 12.16723914 0.41015625 12.16796875 C-0.97367895 12.1711797 -2.3575138 12.17454365 -3.74134827 12.17805481 C-6.64585151 12.18405224 -9.55032498 12.18589409 -12.45483398 12.18530273 C-16.18202146 12.18520109 -19.90901853 12.19885272 -23.63616085 12.21607494 C-26.49541608 12.2271778 -29.35462503 12.22922247 -32.21389961 12.22869301 C-33.58825906 12.22987574 -34.96261961 12.23431388 -36.33695793 12.24202538 C-38.25708452 12.25178998 -40.17726662 12.24769215 -42.09741211 12.24291992 C-43.73836098 12.24505745 -43.73836098 12.24505745 -45.41246033 12.24723816 C-48 12 -48 12 -50 10 C-50.25 6.5 -50.25 6.5 -50 3 C-47.54874016 0.54874016 -46.77683594 0.71197303 -43.3984375 0.5859375 C-41.96830322 0.52768799 -41.96830322 0.52768799 -40.50927734 0.46826172 C-38.95781006 0.42209717 -38.95781006 0.42209717 -37.375 0.375 C-36.30846191 0.33777832 -35.24192383 0.30055664 -34.14306641 0.26220703 C-22.76083711 -0.09990171 -11.38604653 -0.1804613 0 0 Z " fill="#0267CB" transform="translate(128,269)"/>
<path d="M0 0 C7.65374424 -0.07586651 15.30739207 -0.12852217 22.96142578 -0.16479492 C25.56693139 -0.17991108 28.17241144 -0.20040432 30.77783203 -0.22631836 C34.51601456 -0.26257688 38.25386165 -0.27969798 41.9921875 -0.29296875 C43.16304901 -0.30845261 44.33391052 -0.32393646 45.54025269 -0.33988953 C46.62122223 -0.34011612 47.70219177 -0.34034271 48.81591797 -0.34057617 C50.24821243 -0.35056892 50.24821243 -0.35056892 51.70944214 -0.36076355 C52.46532623 -0.24171158 53.22121033 -0.12265961 54 0 C56 3 56 3 55.75 6.125 C55.5025 7.07375 55.255 8.0225 55 9 C52.50525029 10.24737486 50.82222396 10.12696326 48.03125 10.12939453 C46.99677734 10.13254669 45.96230469 10.13569885 44.89648438 10.13894653 C43.77564453 10.1369223 42.65480469 10.13489807 41.5 10.1328125 C39.78006836 10.13424759 39.78006836 10.13424759 38.02539062 10.13571167 C35.59765569 10.13639311 33.16991895 10.13454135 30.7421875 10.13037109 C27.01558357 10.12502237 23.28910016 10.13031735 19.5625 10.13671875 C17.20833307 10.13605796 14.85416621 10.13477679 12.5 10.1328125 C11.37916016 10.13483673 10.25832031 10.13686096 9.10351562 10.13894653 C8.06904297 10.13579437 7.03457031 10.13264221 5.96875 10.12939453 C5.05544922 10.12859894 4.14214844 10.12780334 3.20117188 10.12698364 C1 10 1 10 -1 9 C-1.93571406 6.11488164 -2.2877684 4.63377565 -1.015625 1.83203125 C-0.68046875 1.22746094 -0.3453125 0.62289062 0 0 Z " fill="#0466C9" transform="translate(98,247)"/>
<path d="M0 0 C1.10347778 0.00094414 1.10347778 0.00094414 2.22924805 0.00190735 C3.06351318 -0.00432144 3.89777832 -0.01055023 4.75732422 -0.01696777 C5.65942627 -0.00775803 6.56152832 0.00145172 7.4909668 0.01094055 C8.41562744 0.01044205 9.34028809 0.00994354 10.29296875 0.00942993 C12.24994045 0.01177273 14.20691504 0.02151335 16.16381836 0.03804016 C19.1663699 0.06162677 22.16803374 0.0586035 25.1706543 0.05195618 C27.06909711 0.05753288 28.96753618 0.06464271 30.8659668 0.07344055 C31.76806885 0.07252914 32.6701709 0.07161774 33.59960938 0.07067871 C34.43387451 0.08021072 35.26813965 0.08974274 36.12768555 0.0995636 C37.23116333 0.10647469 37.23116333 0.10647469 38.35693359 0.11352539 C40.1784668 0.3742218 40.1784668 0.3742218 42.1784668 2.3742218 C42.3659668 5.9367218 42.3659668 5.9367218 42.1784668 9.3742218 C41.1784668 10.3742218 41.1784668 10.3742218 39.38780212 10.49447632 C38.60836746 10.49225571 37.8289328 10.4900351 37.02587891 10.48774719 C36.14504135 10.48767166 35.2642038 10.48759613 34.35667419 10.48751831 C33.39938919 10.48235703 32.44210419 10.47719574 31.45581055 10.47187805 C30.48059952 10.4704631 29.50538849 10.46904816 28.50062561 10.46759033 C25.37237537 10.46197313 22.24419556 10.44941773 19.1159668 10.4367218 C17.00073345 10.43170902 14.88549899 10.42714573 12.77026367 10.42304993 C7.57297384 10.41199812 2.37572535 10.39524326 -2.8215332 10.3742218 C-4.60060096 0.94516267 -4.60060096 0.94516267 0 0 Z " fill="#016BD2" transform="translate(99.821533203125,292.6257781982422)"/>
<path d="M0 0 C0.99 0.33 1.98 0.66 3 1 C2.67 1.99 2.34 2.98 2 4 C1.27518257 14.81285026 2.21699369 23.74486242 6 34 C6.3545346 35.32785319 6.69747587 36.65934045 7 38 C7.66 38 8.32 38 9 38 C9.99 39.98 10.98 41.96 12 44 C10.68 43.67 9.36 43.34 8 43 C8 43.66 8 44.32 8 45 C7.21625 44.814375 6.4325 44.62875 5.625 44.4375 C3.02910225 43.74037734 3.02910225 43.74037734 1 45 C-1.125 44.5625 -1.125 44.5625 -3 44 C-6.55728368 30.17249408 -4.45931437 13.3779431 0 0 Z " fill="#046AC8" transform="translate(100,320)"/>
<path d="M0 0 C6.27627403 2.78945512 10.33548425 7.30490586 14.4375 12.625 C14.91977051 13.24745605 15.40204102 13.86991211 15.89892578 14.51123047 C22.30270135 22.88772288 27.89018407 31.83507928 31 42 C30.67 42.99 30.34 43.98 30 45 C27.45919111 42.0173113 26.7197678 39.80448693 26 36 C25.34 35.67 24.68 35.34 24 35 C24 35.66 24 36.32 24 37 C23.01 37 22.02 37 21 37 C21.37125 36.236875 21.7425 35.47375 22.125 34.6875 C22.41375 33.800625 22.7025 32.91375 23 32 C21.33045181 28.77595022 21.33045181 28.77595022 18.375 28.3125 C17.59125 28.209375 16.8075 28.10625 16 28 C16.33 28.99 16.66 29.98 17 31 C17.66 31.33 18.32 31.66 19 32 C18.34 35.96 17.68 39.92 17 44 C16.67 44 16.34 44 16 44 C15.79697266 42.42025391 15.79697266 42.42025391 15.58984375 40.80859375 C13.58318112 26.82073469 8.70486918 15.76189792 1.06640625 3.85546875 C0 2 0 2 0 0 Z " fill="#085FB3" transform="translate(387,162)"/>
<path d="M0 0 C0 -0.66 0 -1.32 0 -2 C6.38561797 -0.69012965 10.54513887 3.49564041 15 8 C15 8.33 15 8.66 15 9 C13.88625 8.979375 12.7725 8.95875 11.625 8.9375 C8.16784079 8.73619282 8.16784079 8.73619282 6 10 C5.67 9.67 5.34 9.34 5 9 C5 9.66 5 10.32 5 11 C4.01 11.495 4.01 11.495 3 12 C1.94647157 14.30965848 0.94280904 16.6429774 0 19 C-3.11631372 16.1207971 -5.2096029 13.27746543 -7.25 9.5625 C-7.77078125 8.63566406 -8.2915625 7.70882813 -8.828125 6.75390625 C-10.03927593 3.90770155 -10.24387312 2.05395655 -10 -1 C-5.94568308 -2.15837626 -3.78187881 -1.83691257 0 0 Z " fill="#0562BB" transform="translate(108,365)"/>
<path d="M0 0 C0.33 0.99 0.66 1.98 1 3 C0.01 3.33 -0.98 3.66 -2 4 C-2.12375 4.721875 -2.2475 5.44375 -2.375 6.1875 C-3 9 -3 9 -4.125 11.625 C-5.31560114 14.09435498 -5.31560114 14.09435498 -4 17 C0.63797911 17.18188153 3.75731574 16.78639337 8 15 C10.8125 14.875 10.8125 14.875 13 15 C10.29760047 17.70239953 7.18175873 18.4274359 3.625 19.5625 C2.95210937 19.78357422 2.27921875 20.00464844 1.5859375 20.23242188 C-4.00113037 22.0526182 -8.36247523 23.12649483 -14.25 23.0625 C-15.32765625 23.05347656 -16.4053125 23.04445313 -17.515625 23.03515625 C-18.33546875 23.02355469 -19.1553125 23.01195312 -20 23 C-18.53417985 19.57719483 -16.61937745 17.43519517 -13.9375 14.875 C-11.08428067 12.22095 -11.08428067 12.22095 -9 9 C-8.34 9 -7.68 9 -7 9 C-7 8.34 -7 7.68 -7 7 C-6.34 7 -5.68 7 -5 7 C-5 6.34 -5 5.68 -5 5 C-4.34 5 -3.68 5 -3 5 C-3 4.34 -3 3.68 -3 3 C-2.34 3 -1.68 3 -1 3 C-0.67 2.01 -0.34 1.02 0 0 Z " fill="#0466C4" transform="translate(236,347)"/>
<path d="M0 0 C5.09031755 -0.04936158 10.18049643 -0.08570105 15.27099609 -0.10986328 C17.00344265 -0.11993376 18.73587216 -0.13359089 20.46826172 -0.15087891 C22.95544639 -0.17508162 25.44240675 -0.18647239 27.9296875 -0.1953125 C29.09538773 -0.21079636 29.09538773 -0.21079636 30.28463745 -0.22659302 C32.19125493 -0.22699271 34.09731036 -0.1223214 36 0 C38 2 38 2 38.1875 5.5625 C38 9 38 9 37 10 C35.61839885 10.0927833 34.23211962 10.11747043 32.84741211 10.11352539 C31.96657455 10.11344986 31.085737 10.11337433 30.1782074 10.11329651 C29.22092239 10.10813522 28.26363739 10.10297394 27.27734375 10.09765625 C26.30213272 10.0962413 25.32692169 10.09482635 24.32215881 10.09336853 C21.19390857 10.08775133 18.06572877 10.07519593 14.9375 10.0625 C12.82226666 10.05748722 10.70703219 10.05292393 8.59179688 10.04882812 C3.39450704 10.03777631 -1.80274145 10.02102146 -7 10 C-7.33 7.69 -7.66 5.38 -8 3 C-7.4225 3.309375 -6.845 3.61875 -6.25 3.9375 C-4.15705816 4.92583364 -2.25464725 5.5168613 0 6 C-0.33 6.33 -0.66 6.66 -1 7 C11.54 7.33 24.08 7.66 37 8 C36.34 6.02 35.68 4.04 35 2 C23.45 1.67 11.9 1.34 0 1 C0 0.67 0 0.34 0 0 Z " fill="#0B5299" transform="translate(104,293)"/>
<path d="M0 0 C0.33 0 0.66 0 1 0 C1 2.64 1 5.28 1 8 C22.12 7.67 43.24 7.34 65 7 C64.34 7.99 63.68 8.98 63 10 C60.41918945 10.3742218 60.41918945 10.3742218 57.11328125 10.37231445 C55.26126099 10.38165764 55.26126099 10.38165764 53.37182617 10.39118958 C52.01871336 10.38250174 50.66560447 10.37318378 49.3125 10.36328125 C47.93009441 10.36276278 46.54768807 10.36327998 45.1652832 10.36479187 C42.2666525 10.36470209 39.36829963 10.35426221 36.46972656 10.33618164 C32.75037471 10.31349398 29.03142898 10.31294968 25.31202698 10.31969929 C22.45703509 10.32303751 19.60213614 10.316412 16.74716187 10.30657005 C15.37560512 10.30271521 14.00403805 10.30157101 12.63247681 10.3031559 C10.7172006 10.30352589 8.80193792 10.28944413 6.88671875 10.2746582 C5.79576904 10.27005081 4.70481934 10.26544342 3.58081055 10.26069641 C1 10 1 10 -1 8 C-1.1875 4.4375 -1.1875 4.4375 -1 1 C-0.67 0.67 -0.34 0.34 0 0 Z " fill="#084F97" transform="translate(79,271)"/>
<path d="M0 0 C0.99 0.33 1.98 0.66 3 1 C2.67 1.99 2.34 2.98 2 4 C1.27518257 14.81285026 2.21699369 23.74486242 6 34 C6.3545346 35.32785319 6.69747587 36.65934045 7 38 C7.66 38 8.32 38 9 38 C9.33 39.32 9.66 40.64 10 42 C9.01 42 8.02 42 7 42 C6.67 40.02 6.34 38.04 6 36 C5.34 36 4.68 36 4 36 C3.33333333 34 2.66666667 32 2 30 C1.62875 28.9275 1.2575 27.855 0.875 26.75 C0 24 0 24 0 22 C-0.66 22 -1.32 22 -2 22 C-1.97679688 22.97582031 -1.95359375 23.95164062 -1.9296875 24.95703125 C-1.91164063 26.22933594 -1.89359375 27.50164062 -1.875 28.8125 C-1.85179688 30.07707031 -1.82859375 31.34164063 -1.8046875 32.64453125 C-2 36 -2 36 -4 39 C-4.3791437 25.54331526 -4.30054089 12.90162266 0 0 Z " fill="#0A56A1" transform="translate(100,320)"/>
<path d="M0 0 C7.65374424 -0.07586651 15.30739207 -0.12852217 22.96142578 -0.16479492 C25.56693139 -0.17991108 28.17241144 -0.20040432 30.77783203 -0.22631836 C34.51601456 -0.26257688 38.25386165 -0.27969798 41.9921875 -0.29296875 C43.16304901 -0.30845261 44.33391052 -0.32393646 45.54025269 -0.33988953 C46.62122223 -0.34011612 47.70219177 -0.34034271 48.81591797 -0.34057617 C50.24821243 -0.35056892 50.24821243 -0.35056892 51.70944214 -0.36076355 C52.46532623 -0.24171158 53.22121033 -0.12265961 54 0 C56 3 56 3 55.625 6.1875 C55.41875 7.115625 55.2125 8.04375 55 9 C54.34 9 53.68 9 53 9 C53 7.02 53 5.04 53 3 C35.84 3 18.68 3 1 3 C1 4.98 1 6.96 1 9 C0.34 9 -0.32 9 -1 9 C-2.07637127 5.12506344 -1.94566951 3.47547073 0 0 Z " fill="#0E58A1" transform="translate(98,247)"/>
<path d="M0 0 C6.30563614 2.85254968 8.06019142 7.56798811 10.80078125 13.7109375 C11.94051917 16.83686365 12.57729904 19.70790546 13 23 C9.67537469 20.1043586 8.69848394 18.30731763 8 14 C7.34 13.67 6.68 13.34 6 13 C6 13.66 6 14.32 6 15 C5.01 15 4.02 15 3 15 C3.37125 14.236875 3.7425 13.47375 4.125 12.6875 C4.41375 11.800625 4.7025 10.91375 5 10 C3.33045181 6.77595022 3.33045181 6.77595022 0.375 6.3125 C-0.40875 6.209375 -1.1925 6.10625 -2 6 C-1.67 6.99 -1.34 7.98 -1 9 C-0.34 9.33 0.32 9.66 1 10 C0.34 13.96 -0.32 17.92 -1 22 C-1.33 22 -1.66 22 -2 22 C-2.66 15.4 -3.32 8.8 -4 2 C-2.68 1.34 -1.36 0.68 0 0 Z " fill="#066BCB" transform="translate(405,184)"/>
<path d="M0 0 C6.51086782 -0.36853969 6.51086782 -0.36853969 8.6953125 1.27734375 C10.56355588 3.74409624 10.57904703 6.08480943 10.50390625 9.10546875 C9.41183723 15.37851638 6.5645159 21.20694176 4 27 C3.67 27 3.34 27 3 27 C2.79913557 23.28400809 2.8480563 22.22791555 5 19 C5.24055468 16.94290404 5.24055468 16.94290404 5.125 14.8125 C5.063125 12.9253125 5.063125 12.9253125 5 11 C5.66 11 6.32 11 7 11 C7.33 8.69 7.66 6.38 8 4 C3.46859347 3.06619039 3.46859347 3.06619039 -1 4 C-1 4.66 -1 5.32 -1 6 C-2.29233607 7.37310707 -3.62437146 8.71034824 -5 10 C-5.66 9.67 -6.32 9.34 -7 9 C-5.625 6.5 -5.625 6.5 -4 4 C-3.34 4 -2.68 4 -2 4 C-1.34 2.68 -0.68 1.36 0 0 Z " fill="#0E4D8D" transform="translate(373,117)"/>
<path d="M0 0 C0.33 1.32 0.66 2.64 1 4 C0.34 4 -0.32 4 -1 4 C-1 5.65 -1 7.3 -1 9 C-0.34 9.33 0.32 9.66 1 10 C1 11.32 1 12.64 1 14 C2.65 14.33 4.3 14.66 6 15 C5.01 15.495 5.01 15.495 4 16 C4 16.66 4 17.32 4 18 C1.36 18 -1.28 18 -4 18 C-4 17.34 -4 16.68 -4 16 C-4.66 16 -5.32 16 -6 16 C-6.49940808 9.88225104 -5.24900602 6.97504047 -2 2 C-1.34 2 -0.68 2 0 2 C0 1.34 0 0.68 0 0 Z " fill="#095DAF" transform="translate(149,156)"/>
<path d="M0 0 C4.95 0 9.9 0 15 0 C10.60153191 2.19923405 6.92645899 2.88401949 2.125 3.625 C0.86755981 3.82283081 0.86755981 3.82283081 -0.4152832 4.0246582 C-7.65960415 5.09127708 -14.67634974 5.32257513 -22 5 C-21.67 4.01 -21.34 3.02 -21 2 C-14.07 2 -7.14 2 0 2 C0 1.34 0 0.68 0 0 Z " fill="#0A559E" transform="translate(215,407)"/>
<path d="M0 0 C6.02837977 2.6792799 9.57110093 6.41216448 13 12 C12.01 12.495 12.01 12.495 11 13 C11.33 15.97 11.66 18.94 12 22 C8.8644475 20.43222375 8.01517603 17.29722699 6.5625 14.25 C4.90701869 10.81799143 3.2620613 7.43023215 1.27734375 4.171875 C0 2 0 2 0 0 Z " fill="#0C549E" transform="translate(387,162)"/>
<path d="M0 0 C0.66 0.33 1.32 0.66 2 1 C2 4.96 2 8.92 2 13 C1.34 13 0.68 13 0 13 C0.556875 14.1446875 0.556875 14.1446875 1.125 15.3125 C1.41375 16.199375 1.7025 17.08625 2 18 C1.34 18.99 0.68 19.98 0 21 C-0.66 21 -1.32 21 -2 21 C-2.33 22.65 -2.66 24.3 -3 26 C-3.66 26 -4.32 26 -5 26 C-5 27.32 -5 28.64 -5 30 C-5.66 29.67 -6.32 29.34 -7 29 C-6.74605469 28.2471875 -6.49210937 27.494375 -6.23046875 26.71875 C-3.37326752 17.90102037 -1.54631079 9.12557653 0 0 Z " fill="#105BA4" transform="translate(403,221)"/>
<path d="M0 0 C1 2 1 2 0.1875 4.5 C-1 7 -1 7 -3 9 C-3.30952809 10.91041418 -3.30952809 10.91041418 -3.375 13 C-3.58203125 15.15625 -3.58203125 15.15625 -4 17 C-6.0625 18.5 -6.0625 18.5 -8 19 C-8 18.34 -8 17.68 -8 17 C-11.11785113 17.64644661 -11.11785113 17.64644661 -12 20 C-12.66 20 -13.32 20 -14 20 C-12.5360077 16.93124691 -10.85990364 14.09565257 -9 11.25 C-8.484375 10.45078125 -7.96875 9.6515625 -7.4375 8.828125 C-6.963125 8.22484375 -6.48875 7.6215625 -6 7 C-5.34 7 -4.68 7 -4 7 C-3.71125 6.21625 -3.4225 5.4325 -3.125 4.625 C-2 2 -2 2 0 0 Z " fill="#075DAE" transform="translate(127,401)"/>
<path d="M0 0 C2.475 0.495 2.475 0.495 5 1 C-1.0862814 7.62330623 -6.89567563 9.90102616 -15.6875 10.3125 C-21.37003829 10.28686449 -25.92701867 8.41776131 -31 6 C-27.58389775 5.05685873 -24.54865136 4.91934883 -21 5 C-21 5.66 -21 6.32 -21 7 C-18.75006641 7.02707139 -16.50003905 7.04642829 -14.25 7.0625 C-12.37054688 7.07990234 -12.37054688 7.07990234 -10.453125 7.09765625 C-7.71463499 7.02021027 -5.58119707 6.82780815 -3 6 C-3 5.34 -3 4.68 -3 4 C-2.01 4 -1.02 4 0 4 C0 2.68 0 1.36 0 0 Z " fill="#0D5AA3" transform="translate(322,111)"/>
<path d="M0 0 C0.99 0.33 1.98 0.66 3 1 C3.6875 3.0625 3.6875 3.0625 4 5 C3.34 5 2.68 5 2 5 C2 5.66 2 6.32 2 7 C1.34 7 0.68 7 0 7 C0 7.66 0 8.32 0 9 C-0.66 9 -1.32 9 -2 9 C-2 9.66 -2 10.32 -2 11 C-4.5 12.625 -4.5 12.625 -7 14 C-7.9659657 11.39189261 -8.02770914 10.10579853 -7.3125 7.375 C-5.79597377 4.63080969 -4.7970522 4.22371034 -2 3 C-1.34 2.01 -0.68 1.02 0 0 Z " fill="#075DB0" transform="translate(127,417)"/>
<path d="M0 0 C1.03125 0.144375 2.0625 0.28875 3.125 0.4375 C7.17975047 0.93979404 11.23982181 1.30002982 15.3125 1.625 C16.50488281 1.72039062 17.69726562 1.81578125 18.92578125 1.9140625 C22.04057392 2.17681628 22.04057392 2.17681628 25 1 C25.66 1.33 26.32 1.66 27 2 C27 2.66 27 3.32 27 4 C27.99 4.33 28.98 4.66 30 5 C19.53878173 5.44133265 10.17805063 4.22066559 0 2 C0 1.34 0 0.68 0 0 Z " fill="#0958A2" transform="translate(150,407)"/>
<path d="M0 0 C-3.51187196 2.40814077 -5.72656908 3.36629408 -10 3 C-10 3.66 -10 4.32 -10 5 C-13.43354082 5.7285295 -16.87216918 6.42930362 -20.3125 7.125 C-21.28896484 7.33253906 -22.26542969 7.54007812 -23.27148438 7.75390625 C-24.20927734 7.94082031 -25.14707031 8.12773437 -26.11328125 8.3203125 C-26.97735596 8.49836426 -27.84143066 8.67641602 -28.73168945 8.85986328 C-31 9 -31 9 -34 7 C-33.41621582 6.86424561 -32.83243164 6.72849121 -32.23095703 6.58862305 C-29.52820335 5.95815839 -26.82660892 5.32285142 -24.125 4.6875 C-23.2071875 4.47416016 -22.289375 4.26082031 -21.34375 4.04101562 C-15.83492892 2.74139938 -10.45747672 1.26348463 -5.08935547 -0.53588867 C-3 -1 -3 -1 0 0 Z " fill="#0D5093" transform="translate(242,378)"/>
<path d="M0 0 C0.66 0.33 1.32 0.66 2 1 C1.34 2.32 0.68 3.64 0 5 C-0.99 5 -1.98 5 -3 5 C-3.07347656 5.75667969 -3.14695312 6.51335937 -3.22265625 7.29296875 C-4.21250241 10.74002096 -5.43105127 11.45090694 -8.4375 13.3125 C-9.24058594 13.82425781 -10.04367187 14.33601563 -10.87109375 14.86328125 C-13 16 -13 16 -15 16 C-15 16.66 -15 17.32 -15 18 C-16.65 18.33 -18.3 18.66 -20 19 C-16.87608257 15.77531104 -13.63668034 12.70607022 -10.3125 9.6875 C-9.54550781 8.99011719 -8.77851563 8.29273438 -7.98828125 7.57421875 C-6 6 -6 6 -4 6 C-4 5.34 -4 4.68 -4 4 C-3.34 4 -2.68 4 -2 4 C-2 3.34 -2 2.68 -2 2 C-1.34 2 -0.68 2 0 2 C0 1.34 0 0.68 0 0 Z " fill="#09529D" transform="translate(354,309)"/>
<path d="M0 0 C5.81459592 2.73628044 9.25775845 7.66118927 12.16796875 13.23828125 C13.28324828 16.94017152 13.21385032 20.48851904 13.125 24.3125 C13.11597656 25.05306641 13.10695313 25.79363281 13.09765625 26.55664062 C13.07424213 28.37123467 13.03837615 30.18566071 13 32 C12.67 32 12.34 32 12 32 C11.86722656 31.02417969 11.73445313 30.04835938 11.59765625 29.04296875 C11.42105469 27.77066406 11.24445313 26.49835938 11.0625 25.1875 C10.88847656 23.92292969 10.71445312 22.65835938 10.53515625 21.35546875 C10.09607545 18.01678297 10.09607545 18.01678297 9 15 C8.34 14.67 7.68 14.34 7 14 C6.2890625 12.0390625 6.2890625 12.0390625 5.625 9.625 C4.45277572 5.83180246 3.51792503 4.06223191 0 2 C0 1.34 0 0.68 0 0 Z " fill="#0A4F9C" transform="translate(321,69)"/>
<path d="M0 0 C0 0.66 0 1.32 0 2 C-1.99954746 2.04254356 -4.00041636 2.04080783 -6 2 C-6.33 1.67 -6.66 1.34 -7 1 C-9.08043713 0.87364577 -11.16576212 0.82418295 -13.25 0.8125 C-14.38953125 0.79832031 -15.5290625 0.78414063 -16.703125 0.76953125 C-21.07145241 1.07490011 -23.8880887 1.8880887 -27 5 C-27.99 4.34 -28.98 3.68 -30 3 C-19.95024186 -2.38238035 -10.85280807 -5.25135874 0 0 Z " fill="#0E57A9" transform="translate(319,67)"/>
<path d="M0 0 C1.98 0.66 3.96 1.32 6 2 C5.09066991 3.27609323 4.17217147 4.54565553 3.25 5.8125 C2.73953125 6.52019531 2.2290625 7.22789062 1.703125 7.95703125 C-0.02482358 10.02977691 -1.78526476 11.47375854 -4 13 C-4.66 11.68 -5.32 10.36 -6 9 C-5.54625 8.4225 -5.0925 7.845 -4.625 7.25 C-3.15732983 5.2178413 -2.08557243 3.24868574 -1 1 C-0.67 0.67 -0.34 0.34 0 0 Z " fill="#045CAC" transform="translate(359,162)"/>
<path d="M0 0 C0.66 0.33 1.32 0.66 2 1 C1.375 2.875 1.375 2.875 0 5 C-3.125 6.25 -3.125 6.25 -6 7 C-5.67 7.99 -5.34 8.98 -5 10 C-6.32 10.33 -7.64 10.66 -9 11 C-9 10.01 -9 9.02 -9 8 C-11.31 7.67 -13.62 7.34 -16 7 C-16.33 6.01 -16.66 5.02 -17 4 C-16.43152344 4.03480469 -15.86304688 4.06960937 -15.27734375 4.10546875 C-9.66162304 4.30234711 -5.98945008 3.59867192 -1 1 C-0.67 0.67 -0.34 0.34 0 0 Z " fill="#056AC6" transform="translate(348,147)"/>
<path d="M0 0 C0 0.66 0 1.32 0 2 C-1.423125 2.61875 -1.423125 2.61875 -2.875 3.25 C-6.00716624 5.0040131 -6.86500606 5.70851757 -8 9 C-8.66 8.67 -9.32 8.34 -10 8 C-9.67 7.34 -9.34 6.68 -9 6 C-9.66 6 -10.32 6 -11 6 C-11.33 6.66 -11.66 7.32 -12 8 C-13.65919896 8.36871088 -15.32774271 8.69595322 -17 9 C-17.825 9.350625 -18.65 9.70125 -19.5 10.0625 C-22.17773183 11.06664944 -24.16578026 11.16195541 -27 11 C-23.02013462 8.97759754 -18.96319829 7.14412359 -14.89453125 5.30859375 C-13.0543913 4.47668163 -11.21797032 3.63645556 -9.38671875 2.78515625 C-8.59910156 2.42292969 -7.81148438 2.06070312 -7 1.6875 C-6.29875 1.36136719 -5.5975 1.03523438 -4.875 0.69921875 C-3 0 -3 0 0 0 Z " fill="#0B579F" transform="translate(277,363)"/>
<path d="M0 0 C1.1484375 3.671875 1.1484375 3.671875 -0.1875 6.625 C-2.02061889 9.02701786 -3.2150993 9.94365836 -6 11 C-6 11.99 -6 12.98 -6 14 C-6.66 14 -7.32 14 -8 14 C-8.66 15.32 -9.32 16.64 -10 18 C-10.66 18 -11.32 18 -12 18 C-12 18.66 -12 19.32 -12 20 C-12.99 20 -13.98 20 -15 20 C-15 19.34 -15 18.68 -15 18 C-14.34 18 -13.68 18 -13 18 C-13 17.34 -13 16.68 -13 16 C-12.34 16 -11.68 16 -11 16 C-11 15.34 -11 14.68 -11 14 C-10.34 14 -9.68 14 -9 14 C-8.74476563 13.44828125 -8.48953125 12.8965625 -8.2265625 12.328125 C-6.80697926 9.63362942 -5.13867746 7.23221272 -3.375 4.75 C-2.74335938 3.85796875 -2.11171875 2.9659375 -1.4609375 2.046875 C-0.73777344 1.03367188 -0.73777344 1.03367188 0 0 Z " fill="#0A4E97" transform="translate(365,127)"/>
<path d="M0 0 C0.33 0.66 0.66 1.32 1 2 C0.0625 4.625 0.0625 4.625 -1 7 C-1.66 7 -2.32 7 -3 7 C-3 7.66 -3 8.32 -3 9 C-4 10 -5 11 -6 12 C-6.268125 12.61875 -6.53625 13.2375 -6.8125 13.875 C-8.58718026 17.05074362 -11.14466595 18.76539075 -14 21 C-14.66 20.67 -15.32 20.34 -16 20 C-14.38247153 17.82737873 -12.75661363 15.66200042 -11.125 13.5 C-10.66480469 12.87996094 -10.20460937 12.25992187 -9.73046875 11.62109375 C-8.53437826 10.04364108 -7.27143274 8.51738202 -6 7 C-5.34 7 -4.68 7 -4 7 C-3.71125 6.21625 -3.4225 5.4325 -3.125 4.625 C-2 2 -2 2 0 0 Z " fill="#0C4F95" transform="translate(170,347)"/>
<path d="M0 0 C1.91241455 0.29966736 1.91241455 0.29966736 4 1 C5.46461952 1.1096445 6.93296047 1.17509036 8.40136719 1.20532227 C9.2619574 1.22526749 10.12254761 1.24521271 11.00921631 1.26576233 C11.92914368 1.28247482 12.84907104 1.29918732 13.796875 1.31640625 C15.22003021 1.3475779 15.22003021 1.3475779 16.67193604 1.37937927 C19.69788482 1.44467934 22.7239192 1.50366888 25.75 1.5625 C27.80339421 1.6057038 29.85677982 1.64931869 31.91015625 1.69335938 C36.9400168 1.80034073 41.96996332 1.90166323 47 2 C47 2.33 47 2.66 47 3 C30.5 3 14 3 -3 3 C-2.01 2.01 -1.02 1.02 0 0 Z " fill="#2273C2" transform="translate(236,172)"/>
<path d="M0 0 C2.31 0 4.62 0 7 0 C3.76502554 1.66392227 0.47130605 3.13627541 -2.875 4.5625 C-3.88304687 4.99691406 -4.89109375 5.43132812 -5.9296875 5.87890625 C-9.0069022 7.00252027 -11.73408434 7.73481881 -15 8 C-15.66 7.34 -16.32 6.68 -17 6 C-16.071875 5.731875 -15.14375 5.46375 -14.1875 5.1875 C-11.03374022 4.30892196 -11.03374022 4.30892196 -9.625 2.375 C-6.8256303 0.00630256 -3.5457236 0.82562015 0 1 C0 0.67 0 0.34 0 0 Z " fill="#095195" transform="translate(268,393)"/>
<path d="M0 0 C2.57672427 3.14511933 4.17392493 6.32163947 5.75 10.0625 C6.19859375 11.10535156 6.6471875 12.14820313 7.109375 13.22265625 C8 16 8 16 7 19 C4.45919111 16.0173113 3.7197678 13.80448693 3 10 C2.34 9.67 1.68 9.34 1 9 C1 9.66 1 10.32 1 11 C0.01 11 -0.98 11 -2 11 C-1.649375 10.236875 -1.29875 9.47375 -0.9375 8.6875 C0.32360884 5.95240621 0.32360884 5.95240621 -1 3 C-0.67 2.01 -0.34 1.02 0 0 Z " fill="#065FB1" transform="translate(410,188)"/>
<path d="M0 0 C20.295 0.495 20.295 0.495 41 1 C41 1.33 41 1.66 41 2 C20.21 2.495 20.21 2.495 -1 3 C-0.67 2.01 -0.34 1.02 0 0 Z " fill="#156CC5" transform="translate(98,293)"/>
<path d="M0 0 C4.12593843 -0.0498487 8.25175752 -0.08592957 12.37792969 -0.10986328 C13.77835142 -0.11985248 15.17875268 -0.13344854 16.57910156 -0.15087891 C23.96906389 -0.24048615 30.90769811 -0.32144933 38 2 C38 2.33 38 2.66 38 3 C36.18757948 3.02687279 34.37504767 3.04633715 32.5625 3.0625 C31.55316406 3.07410156 30.54382813 3.08570312 29.50390625 3.09765625 C27 3 27 3 26 2 C24.07521187 1.84193469 22.1450079 1.748865 20.21484375 1.68359375 C19.04501953 1.64169922 17.87519531 1.59980469 16.66992188 1.55664062 C14.82237305 1.49766602 14.82237305 1.49766602 12.9375 1.4375 C11.70193359 1.39431641 10.46636719 1.35113281 9.19335938 1.30664062 C6.12902665 1.20015802 3.06460927 1.09814576 0 1 C0 0.67 0 0.34 0 0 Z " fill="#0E57A0" transform="translate(220,110)"/>
<path d="M0 0 C1.65 0.33 3.3 0.66 5 1 C4.59007812 1.47050781 4.18015625 1.94101562 3.7578125 2.42578125 C2.94957031 3.35970703 2.94957031 3.35970703 2.125 4.3125 C1.59132812 4.92738281 1.05765625 5.54226563 0.5078125 6.17578125 C-1.1640447 8.13498212 -1.1640447 8.13498212 -3 11 C-3.66 11 -4.32 11 -5 11 C-5 11.66 -5 12.32 -5 13 C-5.66 13 -6.32 13 -7 13 C-7 11.35 -7 9.7 -7 8 C-6.01 8 -5.02 8 -4 8 C-4 6.68 -4 5.36 -4 4 C-3.01 3.34 -2.02 2.68 -1 2 C-0.67 1.34 -0.34 0.68 0 0 Z " fill="#0A5FAE" transform="translate(201,344)"/>
<path d="M0 0 C6.93 0 13.86 0 21 0 C21 0.33 21 0.66 21 1 C19.76765625 1.10957031 18.5353125 1.21914062 17.265625 1.33203125 C7.9211045 2.21064859 -0.98021683 3.29946612 -10 6 C-10 5.34 -10 4.68 -10 4 C-9.01 4 -8.02 4 -7 4 C-7 3.34 -7 2.68 -7 2 C-4.69 2 -2.38 2 0 2 C0 1.34 0 0.68 0 0 Z " fill="#0D4992" transform="translate(204,137)"/>
<path d="M0 0 C0.66 0.33 1.32 0.66 2 1 C0 4 -2 7 -4 10 C-6.32495277 10.38749213 -8.6599583 10.71758117 -11 11 C-13.33588323 11.95584438 -13.33588323 11.95584438 -15 13 C-10.43369266 8.12927217 -5.25023461 4.10843602 0 0 Z " fill="#09519C" transform="translate(181,125)"/>
<path d="M0 0 C-0.33 0.99 -0.66 1.98 -1 3 C-11.68514555 3.67842194 -22.28907291 4.15498126 -33 4 C-33 3.67 -33 3.34 -33 3 C-28.94347189 2.57010863 -24.88666708 2.14294035 -20.82958984 1.71826172 C-19.45027985 1.57349732 -18.07104686 1.42799714 -16.69189453 1.28173828 C-14.70626035 1.07129255 -12.72032055 0.86373685 -10.734375 0.65625 C-8.94338379 0.46772461 -8.94338379 0.46772461 -7.11621094 0.27539062 C-4 0 -4 0 0 0 Z " fill="#146EC1" transform="translate(205,386)"/>
<path d="M0 0 C0.33 0.99 0.66 1.98 1 3 C0.01 3.33 -0.98 3.66 -2 4 C-2.12375 4.721875 -2.2475 5.44375 -2.375 6.1875 C-2.9904931 8.95721894 -3.88444374 11.3970354 -5 14 C-5.33 13.34 -5.66 12.68 -6 12 C-7.98 12.66 -9.96 13.32 -12 14 C-10.625 11.5 -10.625 11.5 -9 9 C-8.34 9 -7.68 9 -7 9 C-7 8.34 -7 7.68 -7 7 C-6.34 7 -5.68 7 -5 7 C-5 6.34 -5 5.68 -5 5 C-4.34 5 -3.68 5 -3 5 C-3 4.34 -3 3.68 -3 3 C-2.34 3 -1.68 3 -1 3 C-0.67 2.01 -0.34 1.02 0 0 Z " fill="#094D96" transform="translate(236,347)"/>
<path d="M0 0 C0.33 0.66 0.66 1.32 1 2 C0.06421005 4.35981813 -0.93347808 6.69631264 -2 9 C-2.66 9 -3.32 9 -4 9 C-4.33 9.99 -4.66 10.98 -5 12 C-5.66 12 -6.32 12 -7 12 C-7 12.66 -7 13.32 -7 14 C-8.5 15.625 -8.5 15.625 -10 17 C-10.66 16.67 -11.32 16.34 -12 16 C-10.625 13.5 -10.625 13.5 -9 11 C-8.34 11 -7.68 11 -7 11 C-6.773125 10.29875 -6.54625 9.5975 -6.3125 8.875 C-4.68343133 5.30656387 -2.59359269 2.93485489 0 0 Z " fill="#0A539A" transform="translate(193,317)"/>
<path d="M0 0 C0.99 0.33 1.98 0.66 3 1 C2.67 1.99 2.34 2.98 2 4 C1.85596652 5.33363703 1.75409577 6.67218046 1.68359375 8.01171875 C1.64169922 8.76904297 1.59980469 9.52636719 1.55664062 10.30664062 C1.51732422 11.09232422 1.47800781 11.87800781 1.4375 12.6875 C1.39431641 13.48478516 1.35113281 14.28207031 1.30664062 15.10351562 C1.20072632 17.06881447 1.09987449 19.03438496 1 21 C0.67 21 0.34 21 0 21 C0 18.36 0 15.72 0 13 C-0.66 13 -1.32 13 -2 13 C-2.33 13.66 -2.66 14.32 -3 15 C-2.69163768 12.87439563 -2.37818386 10.74952935 -2.0625 8.625 C-1.88847656 7.44164062 -1.71445313 6.25828125 -1.53515625 5.0390625 C-1 2 -1 2 0 0 Z " fill="#144A82" transform="translate(100,320)"/>
<path d="M0 0 C2.64 0.33 5.28 0.66 8 1 C8 1.66 8 2.32 8 3 C8.99 3 9.98 3 11 3 C11 3.66 11 4.32 11 5 C12.65 5 14.3 5 16 5 C16 5.66 16 6.32 16 7 C16.66 7.33 17.32 7.66 18 8 C16.3125 8.67578125 16.3125 8.67578125 14 9 C11.5625 7.85546875 11.5625 7.85546875 9 6.1875 C6.05062363 4.29468376 3.1683569 2.5035027 0 1 C0 0.67 0 0.34 0 0 Z " fill="#0C54A1" transform="translate(294,166)"/>
<path d="M0 0 C2.82106611 0.62294959 5.23667701 1.49010344 7.8203125 2.77734375 C8.87025391 3.30038086 8.87025391 3.30038086 9.94140625 3.83398438 C11.02228516 4.38022461 11.02228516 4.38022461 12.125 4.9375 C12.85332031 5.29779297 13.58164062 5.65808594 14.33203125 6.02929688 C15.02941406 6.37927734 15.72679687 6.72925781 16.4453125 7.08984375 C17.07969238 7.40816162 17.71407227 7.72647949 18.36767578 8.05444336 C20 9 20 9 22 11 C17.61110675 10.33501617 14.0188515 8.81242323 10 7 C10 6.34 10 5.68 10 5 C7.36 4.67 4.72 4.34 2 4 C2 3.34 2 2.68 2 2 C1.34 2 0.68 2 0 2 C0 1.34 0 0.68 0 0 Z " fill="#083E7F" transform="translate(273,119)"/>
<path d="M0 0 C1.43956055 0.08797852 1.43956055 0.08797852 2.90820312 0.17773438 C3.88724609 0.20931641 4.86628906 0.24089844 5.875 0.2734375 C8.28498515 0.35572968 10.68878905 0.47058428 13.09570312 0.61523438 C13.09570312 0.94523437 13.09570312 1.27523438 13.09570312 1.61523438 C6.49570313 1.61523438 -0.10429687 1.61523438 -6.90429688 1.61523438 C-7.23429688 3.26523437 -7.56429687 4.91523438 -7.90429688 6.61523438 C-8.56429687 7.27523438 -9.22429687 7.93523437 -9.90429688 8.61523438 C-10.89429688 8.28523438 -11.88429687 7.95523437 -12.90429688 7.61523438 C-9.4939103 1.1230852 -7.29768622 -0.17676057 0 0 Z " fill="#083A77" transform="translate(226.904296875,280.384765625)"/>
<path d="M0 0 C2.475 0.99 2.475 0.99 5 2 C3.71291613 7.54436129 2.08135307 12.70201036 0 18 C-0.66 18 -1.32 18 -2 18 C-2.33 18.66 -2.66 19.32 -3 20 C-3 15.11355568 -1.3961381 12.63296275 0.90625 8.4375 C2.27292782 5.83703529 2.27292782 5.83703529 2 2 C1.34 2 0.68 2 0 2 C0 1.34 0 0.68 0 0 Z " fill="#0B498E" transform="translate(244,144)"/>
<path d="M0 0 C2 2 2 2 2 5 C0.125 7.1875 0.125 7.1875 -2 9 C-2.66 9 -3.32 9 -4 9 C-4.66 10.32 -5.32 11.64 -6 13 C-6.99 12.67 -7.98 12.34 -9 12 C-8.21654285 10.82780457 -7.42297164 9.66236332 -6.625 8.5 C-6.18414062 7.8503125 -5.74328125 7.200625 -5.2890625 6.53125 C-4.86367187 6.0259375 -4.43828125 5.520625 -4 5 C-3.34 5 -2.68 5 -2 5 C-1.34 3.35 -0.68 1.7 0 0 Z " fill="#0A5397" transform="translate(153,368)"/>
<path d="M0 0 C-2.71609918 2.71609918 -5.86595045 3.46920222 -9.4375 4.625 C-10.11876953 4.85445313 -10.80003906 5.08390625 -11.50195312 5.3203125 C-14.44982818 6.29042613 -16.87666842 7 -20 7 C-20 6.34 -20 5.68 -20 5 C-18.35 5 -16.7 5 -15 5 C-15 4.34 -15 3.68 -15 3 C-13.44033782 2.491217 -11.87710759 1.99336531 -10.3125 1.5 C-9.44238281 1.2215625 -8.57226562 0.943125 -7.67578125 0.65625 C-5.00608323 0.00149195 -2.73603316 -0.11831495 0 0 Z " fill="#0D519B" transform="translate(249,362)"/>
<path d="M0 0 C0.88852764 2.48787739 1.17660068 3.58372698 0.125 6.0625 C-0.24625 6.701875 -0.6175 7.34125 -1 8 C-1.33 8.99 -1.66 9.98 -2 11 C-2.61875 11.144375 -3.2375 11.28875 -3.875 11.4375 C-6.7073715 12.1872454 -7.44987517 13.59730651 -9 16 C-9.66 15.67 -10.32 15.34 -11 15 C-9.88266271 13.49428343 -8.75589965 11.99555708 -7.625 10.5 C-6.99851563 9.6646875 -6.37203125 8.829375 -5.7265625 7.96875 C-5.15679687 7.3190625 -4.58703125 6.669375 -4 6 C-3.34 6 -2.68 6 -2 6 C-1.34 4.02 -0.68 2.04 0 0 Z " fill="#0C4D91" transform="translate(250,329)"/>
<path d="M0 0 C3.44270451 1.53009089 6.18925822 3.4931222 9 6 C9.33 6.99 9.66 7.98 10 9 C9.34 9 8.68 9 8 9 C8 8.34 8 7.68 8 7 C7.34 7 6.68 7 6 7 C6.33 8.65 6.66 10.3 7 12 C0 3.55172414 0 3.55172414 0 0 Z " fill="#0C4B89" transform="translate(387,162)"/>
<path d="M0 0 C2.08559381 1.10006032 4.16843689 2.20485882 6.25 3.3125 C7.41015625 3.92738281 8.5703125 4.54226562 9.765625 5.17578125 C12.37033548 6.64486313 14.67723539 8.13143936 17 10 C14.36 9.67 11.72 9.34 9 9 C9 8.01 9 7.02 9 6 C6.36 5.67 3.72 5.34 1 5 C0.67 3.35 0.34 1.7 0 0 Z " fill="#0A549D" transform="translate(306,136)"/>
<path d="M0 0 C0.66 0.33 1.32 0.66 2 1 C2 1.66 2 2.32 2 3 C1.401875 3.268125 0.80375 3.53625 0.1875 3.8125 C-2.01818133 4.85114603 -2.01818133 4.85114603 -3.34375 6.5 C-5.40914267 8.37054431 -6.96941841 8.67539767 -9.6875 9.1875 C-10.49574219 9.34605469 -11.30398438 9.50460937 -12.13671875 9.66796875 C-12.75160156 9.77753906 -13.36648438 9.88710938 -14 10 C-12.54821325 7.09642651 -10.41499487 6.48374246 -7.5625 5 C-3.48672431 2.90330334 -3.48672431 2.90330334 0 0 Z " fill="#085192" transform="translate(315,340)"/>
<path d="M0 0 C0.33 0 0.66 0 1 0 C1 1.98 1 3.96 1 6 C-0.65 6.33 -2.3 6.66 -4 7 C-4.66 8.98 -5.32 10.96 -6 13 C-6.99 13 -7.98 13 -9 13 C-7.51222697 9.74035658 -5.64333184 7.06830707 -3.4375 4.25 C-2.81746094 3.45078125 -2.19742188 2.6515625 -1.55859375 1.828125 C-0.78708984 0.92320312 -0.78708984 0.92320312 0 0 Z " fill="#0C4F91" transform="translate(180,334)"/>
<path d="M0 0 C0 3.10551666 -0.5393715 4.35261084 -2 7 C-2.66 7 -3.32 7 -4 7 C-4.20625 7.94875 -4.4125 8.8975 -4.625 9.875 C-6 13 -6 13 -9.125 14.375 C-10.07375 14.58125 -11.0225 14.7875 -12 15 C-8.19695186 9.80789528 -4.23841458 4.84390238 0 0 Z " fill="#0A4885" transform="translate(376,285)"/>
<path d="M0 0 C2.93447357 2.93447357 2.46158423 6.18259456 2.625 10.125 C2.66367187 10.87910156 2.70234375 11.63320312 2.7421875 12.41015625 C2.83651031 14.27303184 2.91934662 16.13648255 3 18 C0.446213 15.446213 0.60486977 13.46513321 0.34375 9.97265625 C0.08195924 7.68567639 0.08195924 7.68567639 -2 5 C-1.125 2.3125 -1.125 2.3125 0 0 Z " fill="#0B58A3" transform="translate(418,209)"/>
<path d="M0 0 C0.66 0 1.32 0 2 0 C2 2.31 2 4.62 2 7 C2.66 7.33 3.32 7.66 4 8 C4.625 10.0625 4.625 10.0625 5 12 C5.99 12 6.98 12 8 12 C8 13.32 8 14.64 8 16 C7.01 15.67 6.02 15.34 5 15 C4.3125 12.9375 4.3125 12.9375 4 11 C3.34 11 2.68 11 2 11 C0.19769832 7.17010894 -0.19622241 4.21878192 0 0 Z " fill="#0C4D92" transform="translate(279,96)"/>
<path d="M0 0 C1.32 0.33 2.64 0.66 4 1 C2.35653302 2.33624901 0.71016314 3.66892851 -0.9375 5 C-2.31228516 6.11375 -2.31228516 6.11375 -3.71484375 7.25 C-6 9 -6 9 -7 9 C-6.67 6.69 -6.34 4.38 -6 2 C-4.35 2.33 -2.7 2.66 -1 3 C-0.67 2.01 -0.34 1.02 0 0 Z " fill="#0A51A2" transform="translate(164,160)"/>
<path d="M0 0 C2.475 0.99 2.475 0.99 5 2 C3.625 4 3.625 4 2 6 C1.34 6 0.68 6 0 6 C0 6.66 0 7.32 0 8 C-0.66 8 -1.32 8 -2 8 C-2 8.66 -2 9.32 -2 10 C-2.66 10 -3.32 10 -4 10 C-4 8.68 -4 7.36 -4 6 C-3.01 6 -2.02 6 -1 6 C-0.67 4.02 -0.34 2.04 0 0 Z " fill="#0851A1" transform="translate(176,369)"/>
<path d="M0 0 C2.10241603 -0.13496251 4.2072961 -0.23197307 6.3125 -0.3125 C7.48425781 -0.37050781 8.65601563 -0.42851562 9.86328125 -0.48828125 C13 0 13 0 14.91796875 2.51953125 C15.27503906 3.33808594 15.63210937 4.15664063 16 5 C15.01 5.33 14.02 5.66 13 6 C13 5.34 13 4.68 13 4 C12.01 4 11.02 4 10 4 C10 3.01 10 2.02 10 1 C6.7 1 3.4 1 0 1 C0 0.67 0 0.34 0 0 Z " fill="#0B5CAB" transform="translate(129,270)"/>
<path d="M0 0 C0.33 0.99 0.66 1.98 1 3 C-0.40552299 4.03612271 -1.82491694 5.05344925 -3.25 6.0625 C-4.43335938 6.91521484 -4.43335938 6.91521484 -5.640625 7.78515625 C-8 9 -8 9 -12 8 C-8.04 5.36 -4.08 2.72 0 0 Z " fill="#0D5092" transform="translate(329,331)"/>
<path d="M0 0 C1.24546405 2.49092811 0.7767578 3.41080733 0 6 C-0.66 6 -1.32 6 -2 6 C-2.103125 6.763125 -2.20625 7.52625 -2.3125 8.3125 C-3.04364039 11.17059424 -3.76951913 12.15742885 -6 14 C-5.62257767 7.83543524 -3.84129692 4.82624485 0 0 Z " fill="#0959A8" transform="translate(385,272)"/>
<path d="M0 0 C1.98 0 3.96 0 6 0 C6 0.66 6 1.32 6 2 C4.1015625 3.5078125 4.1015625 3.5078125 1.625 5.125 C0.40683594 5.93324219 0.40683594 5.93324219 -0.8359375 6.7578125 C-3 8 -3 8 -5 8 C-5 6.68 -5 5.36 -5 4 C-3.35 3.67 -1.7 3.34 0 3 C0 2.01 0 1.02 0 0 Z " fill="#0B5298" transform="translate(177,148)"/>
<path d="M0 0 C1 2 1 2 0.25 4.375 C-0.96043045 6.91690395 -2.0873651 8.9343543 -4 11 C-4.99 11 -5.98 11 -7 11 C-6.67 9.68 -6.34 8.36 -6 7 C-5.34 7 -4.68 7 -4 7 C-3.71125 6.21625 -3.4225 5.4325 -3.125 4.625 C-2 2 -2 2 0 0 Z " fill="#0A5196" transform="translate(127,401)"/>
<path d="M0 0 C0.66 1.32 1.32 2.64 2 4 C-0.97 6.475 -0.97 6.475 -4 9 C-4.25 6.1875 -4.25 6.1875 -4 3 C-2 1.125 -2 1.125 0 0 Z " fill="#065CB2" transform="translate(220,325)"/>
<path d="M0 0 C0.99 0.33 1.98 0.66 3 1 C3.59720137 6.82271337 1.528243 10.9209404 -1 16 C-1.33 16 -1.66 16 -2 16 C-2.20086443 12.28400809 -2.1519437 11.22791555 0 8 C0.24055468 5.94290404 0.24055468 5.94290404 0.125 3.8125 C0.08375 2.554375 0.0425 1.29625 0 0 Z " fill="#0B5599" transform="translate(378,128)"/>
<path d="M0 0 C2.46484146 2.46484146 2.2855892 3.93826918 2.32226562 7.3125 C2.31904297 7.993125 2.31582031 8.67375 2.3125 9.375 C2.32861328 10.04789062 2.34472656 10.72078125 2.36132812 11.4140625 C2.36542237 15.57381327 1.9312065 17.98371891 -1 21 C-1.04254356 19.00045254 -1.04080783 16.99958364 -1 15 C-0.67 14.67 -0.34 14.34 0 14 C0.07271741 11.64686445 0.08370868 9.29166332 0.0625 6.9375 C0.05347656 5.64714844 0.04445313 4.35679687 0.03515625 3.02734375 C0.02355469 2.02832031 0.01195312 1.02929688 0 0 Z " fill="#0D5399" transform="translate(280,315)"/>
<path d="M0 0 C1.07349791 4.29399165 0.79682816 5.19495213 -1 9 C-0.34 9.33 0.32 9.66 1 10 C-1.31 10.33 -3.62 10.66 -6 11 C-4.02 7.37 -2.04 3.74 0 0 Z " fill="#0B4D98" transform="translate(239,163)"/>
<path d="M0 0 C0 1.65 0 3.3 0 5 C0.66 5.33 1.32 5.66 2 6 C2 6.66 2 7.32 2 8 C1.34 8 0.68 8 0 8 C0 7.34 0 6.68 0 6 C-0.61875 5.731875 -1.2375 5.46375 -1.875 5.1875 C-4 4 -4 4 -6 1 C-3 0 -3 0 0 0 Z " fill="#0A58A4" transform="translate(117,386)"/>
<path d="M0 0 C-3.51187196 2.40814077 -5.72656908 3.36629408 -10 3 C-10 3.66 -10 4.32 -10 5 C-11.98 5 -13.96 5 -16 5 C-16 4.67 -16 4.34 -16 4 C-14.35 4 -12.7 4 -11 4 C-10.67 3.01 -10.34 2.02 -10 1 C-3.84210526 -1.28070175 -3.84210526 -1.28070175 0 0 Z " fill="#1159A5" transform="translate(242,378)"/>
<path d="M0 0 C1.32 1.32 2.64 2.64 4 4 C3.34 5.32 2.68 6.64 2 8 C1.34 8 0.68 8 0 8 C-1.6875 6.1875 -1.6875 6.1875 -3 4 C-2.67 3.01 -2.34 2.02 -2 1 C-1.34 0.67 -0.68 0.34 0 0 Z " fill="#0761B8" transform="translate(358,306)"/>
<path d="M0 0 C1.65 0.33 3.3 0.66 5 1 C1.6378363 4.65882521 -1.36050852 7.14420341 -6 9 C-6.66 8.67 -7.32 8.34 -8 8 C-7.34 7.34 -6.68 6.68 -6 6 C-5.01 6 -4.02 6 -3 6 C-3 5.34 -3 4.68 -3 4 C-2.01 4 -1.02 4 0 4 C0 2.68 0 1.36 0 0 Z " fill="#0C4A96" transform="translate(322,111)"/>
<path d="M0 0 C1.65 0.33 3.3 0.66 5 1 C2.45368965 3.97069541 -0.42230149 5.4775751 -4 7 C-4.66 6.67 -5.32 6.34 -6 6 C-5.67 4.35 -5.34 2.7 -5 1 C-4.67 1.66 -4.34 2.32 -4 3 C-2.68 3 -1.36 3 0 3 C0 2.01 0 1.02 0 0 Z " fill="#0A539E" transform="translate(255,355)"/>
<path d="M0 0 C2.31 0 4.62 0 7 0 C7 1.32 7 2.64 7 4 C5.35 3.67 3.7 3.34 2 3 C1.34 4.65 0.68 6.3 0 8 C-1.09658936 4.71023192 -0.79953138 3.28696233 0 0 Z " fill="#0C5CAB" transform="translate(226,316)"/>
<path d="M0 0 C0.6875 1.6875 0.6875 1.6875 1 4 C-0.64076492 7.44560634 -1.78512442 8.85674962 -5 11 C-4.46884894 6.48521602 -2.63379708 3.65333143 0 0 Z " fill="#0B55A0" transform="translate(365,127)"/>
<path d="M0 0 C0.99 0.495 0.99 0.495 2 1 C2.625 3.0625 2.625 3.0625 3 5 C3.66 4.67 4.32 4.34 5 4 C6.67654729 4.27942455 8.34608154 4.60828247 10 5 C8.8125 6.5625 8.8125 6.5625 7 8 C4.4375 7.875 4.4375 7.875 2 7 C0 4 0 4 0 0 Z " fill="#0F5291" transform="translate(109,427)"/>
<path d="M0 0 C0.94875 0.04125 1.8975 0.0825 2.875 0.125 C1.885 1.61 1.885 1.61 0.875 3.125 C0.215 3.125 -0.445 3.125 -1.125 3.125 C-1.125 3.785 -1.125 4.445 -1.125 5.125 C-1.785 5.125 -2.445 5.125 -3.125 5.125 C-3.125 5.785 -3.125 6.445 -3.125 7.125 C-3.785 7.125 -4.445 7.125 -5.125 7.125 C-5.25 4.75 -5.25 4.75 -5.125 2.125 C-3.125 0.125 -3.125 0.125 0 0 Z " fill="#08509B" transform="translate(358.125,338.875)"/>
<path d="M0 0 C1.1446875 0.2475 1.1446875 0.2475 2.3125 0.5 C5.03596236 1.09145396 5.03596236 1.09145396 8 1 C6.02 1.99 6.02 1.99 4 3 C4 3.66 4 4.32 4 5 C3.34 5 2.68 5 2 5 C2 5.66 2 6.32 2 7 C1.34 7 0.68 7 0 7 C-1.125 2.25 -1.125 2.25 0 0 Z " fill="#094EA1" transform="translate(364,329)"/>
<path d="M0 0 C0.99 0.33 1.98 0.66 3 1 C1.6875 3.5 1.6875 3.5 0 6 C-0.99 6 -1.98 6 -3 6 C-3.33 5.01 -3.66 4.02 -4 3 C-2.1875 1.4375 -2.1875 1.4375 0 0 Z " fill="#0761B7" transform="translate(357,168)"/>
<path d="M0 0 C1.32 0 2.64 0 4 0 C4 0.66 4 1.32 4 2 C3.34 2 2.68 2 2 2 C1.731875 2.61875 1.46375 3.2375 1.1875 3.875 C0 6 0 6 -3 8 C-3 6.68 -3 5.36 -3 4 C-2.34 4 -1.68 4 -1 4 C-0.67 2.68 -0.34 1.36 0 0 Z " fill="#07498D" transform="translate(138,409)"/>
<path d="M0 0 C0.66 0.33 1.32 0.66 2 1 C1.34 4.96 0.68 8.92 0 13 C-0.33 13 -0.66 13 -1 13 C-1.33 9.04 -1.66 5.08 -2 1 C-1.34 0.67 -0.68 0.34 0 0 Z " fill="#0B58A0" transform="translate(404,193)"/>
<path d="M0 0 C0.66 0.33 1.32 0.66 2 1 C0.88059018 5.85077588 -0.1334716 8.777893 -4 12 C-4.33 10.02 -4.66 8.04 -5 6 C-3.68 6.33 -2.36 6.66 -1 7 C-0.67 4.69 -0.34 2.38 0 0 Z " fill="#094E97" transform="translate(331,100)"/>
<path d="M0 0 C0.33 1.32 0.66 2.64 1 4 C0.195625 4.45375 -0.60875 4.9075 -1.4375 5.375 C-4.08856572 6.74725665 -4.08856572 6.74725665 -5 9 C-5.66 9 -6.32 9 -7 9 C-5.44499019 5.18315774 -2.96404505 2.80804268 0 0 Z " fill="#0B4887" transform="translate(223,361)"/>
<path d="M0 0 C0.33 0 0.66 0 1 0 C1 2.64 1 5.28 1 8 C0.01 8.33 -0.98 8.66 -2 9 C-2 10.32 -2 11.64 -2 13 C-2.66 12.67 -3.32 12.34 -4 12 C-2.68 8.04 -1.36 4.08 0 0 Z " fill="#09488C" transform="translate(400,238)"/>
<path d="M0 0 C3.57011026 3.732388 4.10913442 8.0949989 5 13 C2.53686261 11.17251097 1.16571382 9.77023784 0.51171875 6.73046875 C0.27481707 4.48520654 0.09638651 2.25544422 0 0 Z " fill="#0A4788" transform="translate(413,194)"/>
<path d="M0 0 C0.99 0.33 1.98 0.66 3 1 C2.34 1 1.68 1 1 1 C1 1.66 1 2.32 1 3 C0.34 3 -0.32 3 -1 3 C-1 3.99 -1 4.98 -1 6 C-3.875 6.625 -3.875 6.625 -7 7 C-7.66 6.34 -8.32 5.68 -9 5 C-8.071875 4.731875 -7.14375 4.46375 -6.1875 4.1875 C-3.23759634 3.08851629 -1.94384814 2.37581439 0 0 Z " fill="#085EB0" transform="translate(260,394)"/>
<path d="M0 0 C0.66 0.33 1.32 0.66 2 1 C1.01 1.66 0.02 2.32 -1 3 C-2.19232613 5.05003955 -2.19232613 5.05003955 -3 7 C-3 6.34 -3 5.68 -3 5 C-4.65 5 -6.3 5 -8 5 C-6.35197949 1.70395897 -3.32254422 1.22409524 0 0 Z M-5 7 C-3 8 -3 8 -3 8 Z " fill="#0C569D" transform="translate(285,358)"/>
<path d="M0 0 C1.32 0.33 2.64 0.66 4 1 C3.34 2.65 2.68 4.3 2 6 C0.68 5.67 -0.64 5.34 -2 5 C-2 4.01 -2 3.02 -2 2 C-1.34 2 -0.68 2 0 2 C0 1.34 0 0.68 0 0 Z " fill="#0962B9" transform="translate(332,328)"/>
<path d="M0 0 C1 3 1 3 -0.1875 6.625 C-2 10 -2 10 -4.1875 10.9375 C-4.785625 10.958125 -5.38375 10.97875 -6 11 C-4.54955729 6.89041233 -2.48889248 3.56741255 0 0 Z " fill="#0B53A0" transform="translate(213,289)"/>
<path d="M0 0 C1.98 0 3.96 0 6 0 C4.73295613 2.53408774 3.56876843 2.93209972 1.0625 4.1875 C0.35222656 4.55230469 -0.35804688 4.91710937 -1.08984375 5.29296875 C-1.72019531 5.52628906 -2.35054688 5.75960938 -3 6 C-3.66 5.67 -4.32 5.34 -5 5 C-4.67 4.34 -4.34 3.68 -4 3 C-2.68 3 -1.36 3 0 3 C0 2.01 0 1.02 0 0 Z " fill="#084083" transform="translate(298,379)"/>
<path d="M0 0 C0.33 0 0.66 0 1 0 C1.58718592 3.34440677 2.05863115 6.59939315 2 10 C0.0625 12.625 0.0625 12.625 -2 14 C-1.33333333 9.33333333 -0.66666667 4.66666667 0 0 Z " fill="#A1A3AA" transform="translate(289,220)"/>
<path d="M0 0 C-0.33 0.99 -0.66 1.98 -1 3 C-1.66 3 -2.32 3 -3 3 C-3.33 3.99 -3.66 4.98 -4 6 C-5.32 6 -6.64 6 -8 6 C-8 5.01 -8 4.02 -8 3 C-2.25 0 -2.25 0 0 0 Z " fill="#0A539F" transform="translate(192,120)"/>
<path d="M0 0 C0.33 0.66 0.66 1.32 1 2 C3.02463255 2.65213292 3.02463255 2.65213292 5 3 C4.34 3 3.68 3 3 3 C3 3.66 3 4.32 3 5 C2.34 5 1.68 5 1 5 C1 5.66 1 6.32 1 7 C0.34 7 -0.32 7 -1 7 C-1.625 5.1875 -1.625 5.1875 -2 3 C-1.34 2.01 -0.68 1.02 0 0 Z " fill="#054A8E" transform="translate(167,378)"/>
<path d="M0 0 C1.65 0 3.3 0 5 0 C3.68 2.31 2.36 4.62 1 7 C0.34 7 -0.32 7 -1 7 C-1 6.01 -1 5.02 -1 4 C-0.34 4 0.32 4 1 4 C0.67 2.68 0.34 1.36 0 0 Z " fill="#08498D" transform="translate(386,307)"/>
<path d="M0 0 C0.66 0 1.32 0 2 0 C1.45660208 4.56454251 0.20536179 7.9728176 -2 12 C-2.33 12 -2.66 12 -3 12 C-3.125 9.625 -3.125 9.625 -3 7 C-2.34 6.34 -1.68 5.68 -1 5 C-0.35232207 2.42938689 -0.35232207 2.42938689 0 0 Z " fill="#0B4582" transform="translate(414,261)"/>
<path d="M0 0 C-1.26418246 0.69965443 -2.53665402 1.38434763 -3.8125 2.0625 C-4.52019531 2.44535156 -5.22789062 2.82820312 -5.95703125 3.22265625 C-8 4 -8 4 -11 3 C-11 2.34 -11 1.68 -11 1 C-4.03571429 -1.27678571 -4.03571429 -1.27678571 0 0 Z " fill="#0C5399" transform="translate(194,144)"/>
<path d="M0 0 C3.12290635 0.48578543 5.99580359 0.9986012 9 2 C8.67 2.99 8.34 3.98 8 5 C6.68 4.67 5.36 4.34 4 4 C4 3.34 4 2.68 4 2 C2.68 1.67 1.36 1.34 0 1 C0 0.67 0 0.34 0 0 Z " fill="#0C5598" transform="translate(119,394)"/>
<path d="M0 0 C1.65 0.33 3.3 0.66 5 1 C3.35 2.98 1.7 4.96 0 7 C-0.93423645 3.98968256 -1.04449911 3.13349732 0 0 Z " fill="#0A4F98" transform="translate(268,344)"/>
<path d="M0 0 C0.33 0 0.66 0 1 0 C1.33 2.64 1.66 5.28 2 8 C1.01 8.33 0.02 8.66 -1 9 C-1.33 9.66 -1.66 10.32 -2 11 C-1.34 7.37 -0.68 3.74 0 0 Z " fill="#9FA4A8" transform="translate(157,277)"/>
<path d="M0 0 C0.103125 0.639375 0.20625 1.27875 0.3125 1.9375 C0.539375 2.618125 0.76625 3.29875 1 4 C1.99 4.33 2.98 4.66 4 5 C3.34 6.32 2.68 7.64 2 9 C1.34 9 0.68 9 0 9 C-1.125 3.375 -1.125 3.375 0 0 Z " fill="#055DB6" transform="translate(401,233)"/>
<path d="M0 0 C2.97 0.33 5.94 0.66 9 1 C7.515 2.485 7.515 2.485 6 4 C4.02 3.34 2.04 2.68 0 2 C0 1.34 0 0.68 0 0 Z " fill="#0F57A4" transform="translate(331,151)"/>
<path d="M0 0 C0.66 0.33 1.32 0.66 2 1 C1.34 2.32 0.68 3.64 0 5 C-2.64 5 -5.28 5 -8 5 C-7.4225 4.731875 -6.845 4.46375 -6.25 4.1875 C-3.9674132 2.98280141 -2.0262058 1.59201885 0 0 Z " fill="#10559C" transform="translate(348,147)"/>
<path d="M0 0 C0.99 0 1.98 0 3 0 C1.84414715 3.91211733 0.64465038 6.8745041 -2 10 C-2 8.35 -2 6.7 -2 5 C-1.34 5 -0.68 5 0 5 C0 3.35 0 1.7 0 0 Z " fill="#0A56A0" transform="translate(373,144)"/>
<path d="M0 0 C0.33 1.32 0.66 2.64 1 4 C-1.375 5.5625 -1.375 5.5625 -4 7 C-4.66 6.67 -5.32 6.34 -6 6 C-4.02 4.02 -2.04 2.04 0 0 Z " fill="#0D5194" transform="translate(165,138)"/>
<path d="M0 0 C3.48539917 0.64544429 6.02819057 2.10134397 9 4 C6.3333581 5.33332095 4.83319697 4.67102033 2 4 C2 3.34 2 2.68 2 2 C1.34 2 0.68 2 0 2 C0 1.34 0 0.68 0 0 Z " fill="#0C589F" transform="translate(273,119)"/>
<path d="M0 0 C2.31 0.33 4.62 0.66 7 1 C4.37801226 3.15377564 2.35595828 4.40072174 -1 5 C-0.67 3.35 -0.34 1.7 0 0 Z " fill="#0954A4" transform="translate(281,386)"/>
<path d="M0 0 C0 0.66 0 1.32 0 2 C-2.64 2.33 -5.28 2.66 -8 3 C-7.67 2.01 -7.34 1.02 -7 0 C-3.86650268 -1.04449911 -3.01031744 -0.93423645 0 0 Z " fill="#086DCF" transform="translate(226,367)"/>
<path d="M0 0 C1.2065625 0.0309375 1.2065625 0.0309375 2.4375 0.0625 C1.7775 1.3825 1.1175 2.7025 0.4375 4.0625 C-0.2225 4.0625 -0.8825 4.0625 -1.5625 4.0625 C-1.8925 4.7225 -2.2225 5.3825 -2.5625 6.0625 C-2.94468767 4.40635343 -3.27645102 2.73792976 -3.5625 1.0625 C-2.5625 0.0625 -2.5625 0.0625 0 0 Z " fill="#0A56A3" transform="translate(376.5625,320.9375)"/>
<path d="M0 0 C0.33 0.66 0.66 1.32 1 2 C0.125 4 0.125 4 -1 6 C-1.33 6.66 -1.66 7.32 -2 8 C-2.99 8 -3.98 8 -5 8 C-3.62845496 5.04590299 -2.01136276 2.55991624 0 0 Z " fill="#0B4D94" transform="translate(199,309)"/>
<path d="M0 0 C2.97 0 5.94 0 9 0 C9 0.33 9 0.66 9 1 C5.04 1.99 1.08 2.98 -3 4 C-3 3.34 -3 2.68 -3 2 C-2.01 2 -1.02 2 0 2 C0 1.34 0 0.68 0 0 Z " fill="#0B539C" transform="translate(197,139)"/>
<path d="M0 0 C3.77545388 1.09068668 6.47043472 1.9083091 9 5 C5.65626525 4.44271087 2.96687001 3.64826111 0 2 C0 1.34 0 0.68 0 0 Z " fill="#0B4C96" transform="translate(296,131)"/>
<path d="M0 0 C0 3.62453269 -0.92469613 5.07920195 -3 8 C-3.99 8.33 -4.98 8.66 -6 9 C-5.67 7.68 -5.34 6.36 -5 5 C-4.34 5 -3.68 5 -3 5 C-2.5359375 4.0409375 -2.5359375 4.0409375 -2.0625 3.0625 C-1 1 -1 1 0 0 Z " fill="#0A4788" transform="translate(288,71)"/>
<path d="M0 0 C6.15234375 0.5859375 6.15234375 0.5859375 8 1 C8.33 1.66 8.66 2.32 9 3 C6.03 2.67 3.06 2.34 0 2 C0 1.34 0 0.68 0 0 Z " fill="#0D55A3" transform="translate(150,407)"/>
<path d="M0 0 C-0.33 0.99 -0.66 1.98 -1 3 C-4.3 2.67 -7.6 2.34 -11 2 C-11 1.67 -11 1.34 -11 1 C-7.26513121 0.4254048 -3.78706732 0 0 0 Z " fill="#0A4D93" transform="translate(205,386)"/>
<path d="M0 0 C2 2 2 2 2 5 C0.35 5.66 -1.3 6.32 -3 7 C-2.01 4.69 -1.02 2.38 0 0 Z " fill="#0B5DA9" transform="translate(153,368)"/>
<path d="M0 0 C1.65 0.33 3.3 0.66 5 1 C3.35 2.65 1.7 4.3 0 6 C-1.125 2.25 -1.125 2.25 0 0 Z " fill="#0954A1" transform="translate(201,344)"/>
<path d="M0 0 C0.33 0 0.66 0 1 0 C1 1.98 1 3.96 1 6 C-0.32 6.33 -1.64 6.66 -3 7 C-2.01 4.69 -1.02 2.38 0 0 Z " fill="#0C59A8" transform="translate(180,334)"/>
<path d="M0 0 C0.66 0 1.32 0 2 0 C2.1875 2.375 2.1875 2.375 2 5 C1.01 5.66 0.02 6.32 -1 7 C-1.04254356 5.00045254 -1.04080783 2.99958364 -1 1 C-0.67 0.67 -0.34 0.34 0 0 Z " fill="#075DB4" transform="translate(207,338)"/>
<path d="M0 0 C1.32 0.66 2.64 1.32 4 2 C1.37801226 4.15377564 -0.64404172 5.40072174 -4 6 C-2.68 4.02 -1.36 2.04 0 0 Z " fill="#0656A4" transform="translate(363,300)"/>
<path d="M0 0 C0.66 0 1.32 0 2 0 C1.34 1.65 0.68 3.3 0 5 C-0.66 5 -1.32 5 -2 5 C-2.33 5.99 -2.66 6.98 -3 8 C-3 6.02 -3 4.04 -3 2 C-2.01 2 -1.02 2 0 2 C0 1.34 0 0.68 0 0 Z " fill="#074486" transform="translate(398,294)"/>
<path d="M0 0 C1.98 0 3.96 0 6 0 C6.33 0.66 6.66 1.32 7 2 C4.36 2.33 1.72 2.66 -1 3 C-0.67 2.01 -0.34 1.02 0 0 Z " fill="#11599C" transform="translate(98,293)"/>
<path d="M0 0 C1 4 1 4 0 7 C-1.32 7.33 -2.64 7.66 -4 8 C-2.68 5.36 -1.36 2.72 0 0 Z " fill="#084788" transform="translate(390,263)"/>
<path d="M0 0 C-0.99 0.495 -0.99 0.495 -2 1 C-2 1.66 -2 2.32 -2 3 C-4.64 3 -7.28 3 -10 3 C-6.68152292 -0.06320961 -4.44849969 -0.3033068 0 0 Z " fill="#0B4F92" transform="translate(155,171)"/>
<path d="M0 0 C3.875 1.75 3.875 1.75 5 4 C4.01 5.485 4.01 5.485 3 7 C0 2.25 0 2.25 0 0 Z " fill="#0F396B" transform="translate(387,162)"/>
<path d="M0 0 C0.66 0 1.32 0 2 0 C1.67 1.65 1.34 3.3 1 5 C0.01 5 -0.98 5 -2 5 C-2 5.66 -2 6.32 -2 7 C-2.66 6.67 -3.32 6.34 -4 6 C-3.67 5.34 -3.34 4.68 -3 4 C-2.34 4 -1.68 4 -1 4 C-0.67 2.68 -0.34 1.36 0 0 Z " fill="#0A498B" transform="translate(154,149)"/>
<path d="M0 0 C3.73487777 0.4979837 5.81237635 0.87491756 9 3 C7.35 3.33 5.7 3.66 4 4 C4 3.34 4 2.68 4 2 C2.68 2 1.36 2 0 2 C0 1.34 0 0.68 0 0 Z " fill="#095094" transform="translate(258,113)"/>
<path d="" fill="#000000" transform="translate(0,0)"/>
<path d="" fill="#000000" transform="translate(0,0)"/>
<path d="" fill="#000000" transform="translate(0,0)"/>
<path d="" fill="#000000" transform="translate(0,0)"/>
<path d="" fill="#000000" transform="translate(0,0)"/>
<path d="" fill="#000000" transform="translate(0,0)"/>
<path d="" fill="#000000" transform="translate(0,0)"/>
<path d="" fill="#000000" transform="translate(0,0)"/>
<path d="" fill="#000000" transform="translate(0,0)"/>
<path d="" fill="#000000" transform="translate(0,0)"/>
<path d="" fill="#000000" transform="translate(0,0)"/>
<path d="" fill="#000000" transform="translate(0,0)"/>
<path d="" fill="#000000" transform="translate(0,0)"/>
<path d="" fill="#000000" transform="translate(0,0)"/>
<path d="" fill="#000000" transform="translate(0,0)"/>
<path d="" fill="#000000" transform="translate(0,0)"/>
<path d="" fill="#000000" transform="translate(0,0)"/>
<path d="" fill="#000000" transform="translate(0,0)"/>
<path d="" fill="#000000" transform="translate(0,0)"/>
<path d="" fill="#000000" transform="translate(0,0)"/>
<path d="" fill="#000000" transform="translate(0,0)"/>
<path d="" fill="#000000" transform="translate(0,0)"/>
<path d="" fill="#000000" transform="translate(0,0)"/>
<path d="" fill="#000000" transform="translate(0,0)"/>
<path d="" fill="#000000" transform="translate(0,0)"/>
<path d="" fill="#000000" transform="translate(0,0)"/>
<path d="" fill="#000000" transform="translate(0,0)"/>
<path d="" fill="#000000" transform="translate(0,0)"/>
<path d="" fill="#000000" transform="translate(0,0)"/>
<path d="" fill="#000000" transform="translate(0,0)"/>
<path d="" fill="#000000" transform="translate(0,0)"/>
<path d="" fill="#000000" transform="translate(0,0)"/>
<path d="" fill="#000000" transform="translate(0,0)"/>
<path d="" fill="#000000" transform="translate(0,0)"/>
<path d="" fill="#000000" transform="translate(0,0)"/>
<path d="" fill="#000000" transform="translate(0,0)"/>
<path d="" fill="#000000" transform="translate(0,0)"/>
<path d="" fill="#000000" transform="translate(0,0)"/>
<path d="" fill="#000000" transform="translate(0,0)"/>
<path d="" fill="#000000" transform="translate(0,0)"/>
<path d="" fill="#000000" transform="translate(0,0)"/>
<path d="" fill="#000000" transform="translate(0,0)"/>
<path d="" fill="#000000" transform="translate(0,0)"/>
<path d="" fill="#000000" transform="translate(0,0)"/>
<path d="" fill="#000000" transform="translate(0,0)"/>
<path d="" fill="#000000" transform="translate(0,0)"/>
<path d="" fill="#000000" transform="translate(0,0)"/>
<path d="" fill="#000000" transform="translate(0,0)"/>
<path d="" fill="#000000" transform="translate(0,0)"/>
<path d="" fill="#000000" transform="translate(0,0)"/>
<path d="" fill="#000000" transform="translate(0,0)"/>
<path d="" fill="#000000" transform="translate(0,0)"/>
<path d="" fill="#000000" transform="translate(0,0)"/>
<path d="" fill="#000000" transform="translate(0,0)"/>
<path d="" fill="#000000" transform="translate(0,0)"/>
<path d="" fill="#000000" transform="translate(0,0)"/>
<path d="" fill="#000000" transform="translate(0,0)"/>
<path d="" fill="#000000" transform="translate(0,0)"/>
<path d="" fill="#000000" transform="translate(0,0)"/>
<path d="" fill="#000000" transform="translate(0,0)"/>
<path d="" fill="#000000" transform="translate(0,0)"/>
<path d="" fill="#000000" transform="translate(0,0)"/>
<path d="" fill="#000000" transform="translate(0,0)"/>
<path d="" fill="#000000" transform="translate(0,0)"/>
<path d="" fill="#000000" transform="translate(0,0)"/>
<path d="" fill="#000000" transform="translate(0,0)"/>
<path d="" fill="#000000" transform="translate(0,0)"/>
<path d="" fill="#000000" transform="translate(0,0)"/>
</svg>
