<?xml version="1.0" encoding="UTF-8"?>
<svg version="1.1" xmlns="http://www.w3.org/2000/svg" width="500" height="500">
<path d="M0 0 C3 2 6 4 9 6 C9 6.66 9 7.32 9 8 C9.66 8 10.32 8 11 8 C28.55223395 26.39234087 34.99237915 49.04933566 35 74 C34.4925188 80.85925755 32.91989633 87.41286669 31 94 C30.79342773 94.72590332 30.58685547 95.45180664 30.37402344 96.19970703 C26.08034021 110.79623913 18.55107483 123.8813124 11 137 C10.34 137 9.68 137 9 137 C8.7525 137.70125 8.505 138.4025 8.25 139.125 C6.82819762 142.39514548 5.12753712 145.141122 3 148 C2.34 148 1.68 148 1 148 C0.690625 148.61875 0.38125 149.2375 0.0625 149.875 C-0.625 151.25 -1.3125 152.625 -2 154 C-2.66 154 -3.32 154 -4 154 C-4.28875 154.598125 -4.5775 155.19625 -4.875 155.8125 C-6 158 -6 158 -8 161 C-8.66 161 -9.32 161 -10 161 C-10 161.66 -10 162.32 -10 163 C-10.66 163 -11.32 163 -12 163 C-12.226875 163.556875 -12.45375 164.11375 -12.6875 164.6875 C-14.37550036 167.66159588 -16.46676517 169.72008865 -19 172 C-19.66 172 -20.32 172 -21 172 C-21 172.66 -21 173.32 -21 174 C-21.66 174 -22.32 174 -23 174 C-23 174.66 -23 175.32 -23 176 C-23.66 176 -24.32 176 -25 176 C-25 176.66 -25 177.32 -25 178 C-29.47058824 182 -29.47058824 182 -32 182 C-32 182.66 -32 183.32 -32 184 C-33.32 184.33 -34.64 184.66 -36 185 C-36 185.66 -36 186.32 -36 187 C-36.66 187 -37.32 187 -38 187 C-38 187.66 -38 188.32 -38 189 C-40.475 189.99 -40.475 189.99 -43 191 C-43 191.66 -43 192.32 -43 193 C-44.78491211 194.41699219 -44.78491211 194.41699219 -47.27734375 196.046875 C-48.18419922 196.645 -49.09105469 197.243125 -50.02539062 197.859375 C-50.98638672 198.48328125 -51.94738281 199.1071875 -52.9375 199.75 C-54.32678711 200.66265625 -54.32678711 200.66265625 -55.74414062 201.59375 C-57.59672621 202.81060622 -59.45121704 204.02456684 -61.30761719 205.2355957 C-63.8459268 206.89903092 -66.36803162 208.58440012 -68.88671875 210.27734375 C-78.91824118 216.972452 -89.89528883 221.88678874 -100.80224609 226.96435547 C-102.63617028 227.82855302 -104.45492257 228.7248539 -106.26953125 229.62890625 C-128.45941386 240.5307629 -153.56743434 246.80966385 -178 250 C-178.67522705 250.09571289 -179.3504541 250.19142578 -180.04614258 250.29003906 C-187.15690605 251.20989672 -194.27599342 251.23292419 -201.4375 251.25 C-202.098638 251.25167175 -202.759776 251.25334351 -203.44094849 251.25506592 C-215.55366342 251.25689743 -227.1600667 250.41104244 -238.78515625 246.8359375 C-241.98486971 245.6922942 -241.98486971 245.6922942 -245 247 C-245 247.66 -245 248.32 -245 249 C-245.66 249 -246.32 249 -247 249 C-247 249.66 -247 250.32 -247 251 C-249 253 -249 253 -252 254 C-252 254.66 -252 255.32 -252 256 C-252.66 256 -253.32 256 -254 256 C-254 256.66 -254 257.32 -254 258 C-254.66 258 -255.32 258 -256 258 C-256 258.66 -256 259.32 -256 260 C-256.66 260 -257.32 260 -258 260 C-258 260.66 -258 261.32 -258 262 C-258.66 262 -259.32 262 -260 262 C-260 262.66 -260 263.32 -260 264 C-261.9765625 265.9453125 -261.9765625 265.9453125 -264.625 268.125 C-265.48351562 268.84945313 -266.34203125 269.57390625 -267.2265625 270.3203125 C-270.48176016 272.29177024 -272.25841135 272.57643523 -276 272 C-278.0755384 268.8866924 -278.36961992 267.72647352 -277.75 264.1171875 C-276.14693507 259.59186878 -273.13486361 255.59821527 -270 252 C-269.34 252 -268.68 252 -268 252 C-267.74476563 251.27425781 -267.48953125 250.54851562 -267.2265625 249.80078125 C-265.93198926 246.8447016 -264.39544896 244.69435334 -262.375 242.1875 C-261.74335938 241.39730469 -261.11171875 240.60710937 -260.4609375 239.79296875 C-259.97882813 239.20128906 -259.49671875 238.60960937 -259 238 C-259.99 238 -260.98 238 -262 238 C-262 237.34 -262 236.68 -262 236 C-262.61875 235.855625 -263.2375 235.71125 -263.875 235.5625 C-266 235 -266 235 -268 234 C-268 233.34 -268 232.68 -268 232 C-268.66 232 -269.32 232 -270 232 C-270 231.34 -270 230.68 -270 230 C-270.598125 229.731875 -271.19625 229.46375 -271.8125 229.1875 C-273.99847854 228.00082594 -275.41332594 226.90400887 -277 225 C-277 224.34 -277 223.68 -277 223 C-277.66 223 -278.32 223 -279 223 C-284.23064502 215.91475261 -288.15805539 208.64648381 -290 200 C-290.18175781 199.2678125 -290.36351562 198.535625 -290.55078125 197.78125 C-292.61373249 185.00889102 -291.06131846 172.18395539 -287 160 C-286.34 160 -285.68 160 -285 160 C-285.04640625 161.22074219 -285.0928125 162.44148437 -285.140625 163.69921875 C-285.41182278 174.06488335 -284.70079884 182.23524161 -281 192 C-280.64436446 193.32755876 -280.30116259 194.65903394 -280 196 C-279.34 196 -278.68 196 -278 196 C-275.82796 198.96187272 -274.16438003 201.50685991 -273 205 C-272.34 205 -271.68 205 -271 205 C-271 205.66 -271 206.32 -271 207 C-269.35 207.66 -267.7 208.32 -266 209 C-266 209.66 -266 210.32 -266 211 C-264.824375 211.3403125 -264.824375 211.3403125 -263.625 211.6875 C-260.55348285 212.79960104 -257.88319756 214.05557197 -255 215.5625 C-251.31761921 217.45375297 -248.18240472 218.66981015 -244 219 C-243.59007812 218.4225 -243.18015625 217.845 -242.7578125 217.25 C-241.94957031 216.13625 -241.94957031 216.13625 -241.125 215 C-240.32449219 213.88625 -240.32449219 213.88625 -239.5078125 212.75 C-239.01023438 212.1725 -238.51265625 211.595 -238 211 C-237.34 211 -236.68 211 -236 211 C-235.72800781 210.41863281 -235.45601562 209.83726562 -235.17578125 209.23828125 C-234.01105163 207.02103848 -232.71599838 205.16769184 -231.1875 203.1875 C-229.12870479 200.50452237 -227.15833003 197.79171128 -225.25 195 C-224.5075 194.01 -223.765 193.02 -223 192 C-222.34 192 -221.68 192 -221 192 C-220.77699219 191.47664062 -220.55398437 190.95328125 -220.32421875 190.4140625 C-218.51420446 187.11439043 -216.16887419 184.29249099 -213.8125 181.375 C-209.74649376 176.29299253 -205.91877723 171.13809153 -202.33984375 165.6953125 C-201.89769531 165.13585937 -201.45554687 164.57640625 -201 164 C-200.34 164 -199.68 164 -199 164 C-198.7421875 163.28457031 -198.484375 162.56914062 -198.21875 161.83203125 C-196.92615235 158.82839889 -195.3722291 156.36494628 -193.5 153.6875 C-192.8915625 152.80449219 -192.283125 151.92148437 -191.65625 151.01171875 C-191.1096875 150.34785156 -190.563125 149.68398438 -190 149 C-189.34 149 -188.68 149 -188 149 C-187.7525 148.29875 -187.505 147.5975 -187.25 146.875 C-185.82819762 143.60485452 -184.12753712 140.858878 -182 138 C-181.34 138 -180.68 138 -180 138 C-179.73960937 137.27941406 -179.47921875 136.55882812 -179.2109375 135.81640625 C-177.95342975 132.89168661 -176.46230708 130.53299712 -174.625 127.9375 C-174.03976563 127.10089844 -173.45453125 126.26429688 -172.8515625 125.40234375 C-168.04764871 119.16941763 -168.04764871 119.16941763 -163.71484375 118.46875 C-152.01649993 118.56553051 -143.28284036 121.56755604 -133 127 C-133 127.66 -133 128.32 -133 129 C-132.40904541 129.12383057 -131.81809082 129.24766113 -131.20922852 129.37524414 C-127.73320494 130.35824164 -124.91906504 132.45907834 -121.9375 134.4375 C-121.31294922 134.84548828 -120.68839844 135.25347656 -120.04492188 135.67382812 C-117.35350231 137.43459674 -114.67604303 139.21597131 -112 141 C-112 141.66 -112 142.32 -112 143 C-111.34 143 -110.68 143 -110 143 C-108.74609375 144.64453125 -108.74609375 144.64453125 -107.4375 146.8125 C-107.00308594 147.52019531 -106.56867188 148.22789062 -106.12109375 148.95703125 C-102.84812496 154.92136113 -103.01559606 162.34291386 -104.75390625 168.80078125 C-106.62234886 173.62942314 -108.94875229 177.82996146 -112 182 C-112.66 182.99 -113.32 183.98 -114 185 C-114.66 185 -115.32 185 -116 185 C-116 185.66 -116 186.32 -116 187 C-131.2242979 199.83157311 -150.77752409 209.33335006 -171 208 C-171 207.01 -171 206.02 -171 205 C-170.34 205 -169.68 205 -169 205 C-169 204.34 -169 203.68 -169 203 C-168.34 203 -167.68 203 -167 203 C-167 202.34 -167 201.68 -167 201 C-165.625 199.375 -165.625 199.375 -164 198 C-163.34 198 -162.68 198 -162 198 C-162 197.34 -162 196.68 -162 196 C-161.34 196 -160.68 196 -160 196 C-160 195.34 -160 194.68 -160 194 C-159.34 194 -158.68 194 -158 194 C-158 193.34 -158 192.68 -158 192 C-157.34 192 -156.68 192 -156 192 C-156 191.34 -156 190.68 -156 190 C-155.34 190 -154.68 190 -154 190 C-154 189.34 -154 188.68 -154 188 C-153.34 188 -152.68 188 -152 188 C-151.67 187.01 -151.34 186.02 -151 185 C-150.34 185 -149.68 185 -149 185 C-148.75507813 184.45472656 -148.51015625 183.90945313 -148.2578125 183.34765625 C-146.1690717 179.44910588 -143.35639603 176.06879693 -140.6796875 172.55859375 C-138.72560209 170.09213485 -138.72560209 170.09213485 -139 167 C-141.76883196 165.51706418 -144.5403973 164.03931138 -147.3125 162.5625 C-148.09818359 162.14162109 -148.88386719 161.72074219 -149.69335938 161.28710938 C-150.45068359 160.88427734 -151.20800781 160.48144531 -151.98828125 160.06640625 C-152.68477783 159.69459229 -153.38127441 159.32277832 -154.09887695 158.93969727 C-156.13717004 157.87823011 -156.13717004 157.87823011 -159 157 C-159.66 158.65 -160.32 160.3 -161 162 C-161.66 162 -162.32 162 -163 162 C-163.2578125 162.72574219 -163.515625 163.45148438 -163.78125 164.19921875 C-165.05242499 167.12047667 -166.54016402 169.30872649 -168.5 171.8125 C-169.1084375 172.60269531 -169.716875 173.39289063 -170.34375 174.20703125 C-170.8903125 174.79871094 -171.436875 175.39039063 -172 176 C-172.66 176 -173.32 176 -174 176 C-174 176.66 -174 177.32 -174 178 C-174.66 178 -175.32 178 -176 178 C-176.25652344 178.58523438 -176.51304687 179.17046875 -176.77734375 179.7734375 C-178.10562162 182.19234608 -179.56524801 183.73198872 -181.5625 185.625 C-184.14015389 188.04521959 -184.14015389 188.04521959 -186 191 C-186.66 191 -187.32 191 -188 191 C-188 191.66 -188 192.32 -188 193 C-189.31274414 194.29370117 -189.31274414 194.29370117 -191.22265625 195.85546875 C-196.69918148 200.51359325 -201.73219373 205.5819181 -206.80249023 210.67211914 C-208.45507182 212.33012955 -210.11302199 213.98263976 -211.77148438 215.63476562 C-212.82584219 216.68978311 -213.87989038 217.74511014 -214.93359375 218.80078125 C-215.67566322 219.53981438 -215.67566322 219.53981438 -216.432724 220.29377747 C-219.04413458 222.9002738 -219.04413458 222.9002738 -221 226 C-188.50708673 225.30613293 -154.54884193 220.9489483 -124.953125 206.4375 C-121.59826187 204.80444493 -118.19497791 203.30592492 -114.78125 201.80078125 C-95.87733919 193.43302073 -77.8234776 183.38439477 -61.23852539 170.99682617 C-57.19565457 168 -57.19565457 168 -55 168 C-55 167.34 -55 166.68 -55 166 C-52.525 165.01 -52.525 165.01 -50 164 C-50 163.34 -50 162.68 -50 162 C-48.1015625 160.2734375 -48.1015625 160.2734375 -45.625 158.375 C-44.81289063 157.74335938 -44.00078125 157.11171875 -43.1640625 156.4609375 C-41 155 -41 155 -39 155 C-39 154.34 -39 153.68 -39 153 C-38.34 153 -37.68 153 -37 153 C-37 152.34 -37 151.68 -37 151 C-36.34 151 -35.68 151 -35 151 C-35 150.34 -35 149.68 -35 149 C-34.34 149 -33.68 149 -33 149 C-33 148.34 -33 147.68 -33 147 C-32.34 147 -31.68 147 -31 147 C-31 146.34 -31 145.68 -31 145 C-28.88190812 142.75353891 -26.67699267 140.6376155 -24.43017578 138.52148438 C-19.69992471 133.95282144 -15.79334282 129.00369525 -11.9375 123.6875 C-11.35162109 122.89666016 -10.76574219 122.10582031 -10.16210938 121.29101562 C6.8623727 98.03115166 19.91070731 68.89299056 15.36328125 39.45703125 C14.65213384 35.2890658 13.82752768 31.14621381 13 27 C12.65834082 25.00140546 12.32167936 23.00190747 12 21 C11.34 21 10.68 21 10 21 C9.649375 20.071875 9.29875 19.14375 8.9375 18.1875 C6.99976089 13.58772123 4.20852445 9.57826813 1.42578125 5.453125 C0 3 0 3 0 0 Z " fill="#0266C2" transform="translate(387,162)"/>
<path d="M0 0 C1.24716797 -0.020625 2.49433594 -0.04125 3.77929688 -0.0625 C15.33741638 -0.1105837 25.87995418 1.78896284 36.375 6.6875 C37.11234375 7.02313965 37.8496875 7.3587793 38.609375 7.70458984 C51.37858082 13.64714106 63.71491204 20.61118348 75.72851562 27.94873047 C77.76151495 29.14633064 79.81377266 30.22385466 81.9375 31.25 C81.9375 31.91 81.9375 32.57 81.9375 33.25 C82.46085938 33.34023437 82.98421875 33.43046875 83.5234375 33.5234375 C86.15595773 34.31574941 88.37003908 35.53854368 90.75976562 36.87988281 C96.43262832 40.0113276 101.21244968 42.29914603 107.8125 41.05078125 C111.23693313 39.76032391 113.32859575 37.79368165 115.9375 35.25 C116.5975 35.25 117.2575 35.25 117.9375 35.25 C117.9375 34.59 117.9375 33.93 117.9375 33.25 C118.5975 33.25 119.2575 33.25 119.9375 33.25 C120.22625 32.651875 120.515 32.05375 120.8125 31.4375 C121.9375 29.25 121.9375 29.25 123.9375 26.25 C124.5975 26.25 125.2575 26.25 125.9375 26.25 C126.1746875 25.55261719 126.411875 24.85523438 126.65625 24.13671875 C128.17870384 20.70655597 130.15817808 18.04115932 132.4375 15.0625 C133.2315625 14.01707031 134.025625 12.97164062 134.84375 11.89453125 C136.9375 9.25 136.9375 9.25 138.9375 7.25 C141.62589385 6.98008094 144.22891936 7.16262643 146.9375 7.25 C146.9375 7.91 146.9375 8.57 146.9375 9.25 C147.5975 9.25 148.2575 9.25 148.9375 9.25 C151.01836295 27.78509402 137.73143891 46.69698414 126.98046875 60.89453125 C122.56409427 65.98645058 122.56409427 65.98645058 118.95783997 66.570755 C116.40195967 66.7487437 113.86266931 66.82349505 111.30078125 66.859375 C110.34793747 66.87647522 109.39509369 66.89357544 108.41337585 66.91119385 C106.3901871 66.9395339 104.36686007 66.95914202 102.34350586 66.97070312 C99.30385982 66.99948992 96.27060849 67.09236311 93.23242188 67.1875 C80.29283228 67.3949005 71.43896748 65.30717489 60.56820679 58.2467041 C58.45765678 56.95671508 56.2679576 56.06539524 53.9375 55.25 C53.56625 56.301875 53.56625 56.301875 53.1875 57.375 C50.58653282 63.35722452 50.58653282 63.35722452 47.9375 66.25 C44.23872418 67.11136561 40.60776763 66.94728665 36.828125 66.8359375 C35.74617859 66.82744781 34.66423218 66.81895813 33.54949951 66.81021118 C30.09448588 66.77662952 26.64180789 66.70133564 23.1875 66.625 C20.84508579 66.59490682 18.502635 66.5675299 16.16015625 66.54296875 C10.41847421 66.47682273 4.67815394 66.37642549 -1.0625 66.25 C-0.28270568 62.85715569 0.9156328 60.23385258 2.625 57.1875 C3.42357422 55.74890625 3.42357422 55.74890625 4.23828125 54.28125 C4.79902344 53.2809375 5.35976562 52.280625 5.9375 51.25 C7.06656962 49.2314376 8.19175559 47.21069656 9.3125 45.1875 C10.06660156 43.83978516 10.06660156 43.83978516 10.8359375 42.46484375 C12.08593921 40.3638184 12.08593921 40.3638184 11.9375 38.25 C11.2775 38.25 10.6175 38.25 9.9375 38.25 C9.9375 37.59 9.9375 36.93 9.9375 36.25 C9.23625 35.981875 8.535 35.71375 7.8125 35.4375 C4.9375 34.25 4.9375 34.25 2.0625 32.6875 C-10.30109627 27.00024572 -26.22276771 30.00797736 -38.5 34.5 C-47.23413036 38.00392759 -55.18212444 42.21185766 -62.50390625 48.1484375 C-64.0625 49.25 -64.0625 49.25 -66.0625 49.25 C-66.0625 49.91 -66.0625 50.57 -66.0625 51.25 C-67.75524284 52.81432787 -69.51819852 54.30328572 -71.3125 55.75 C-72.28703125 56.5440625 -73.2615625 57.338125 -74.265625 58.15625 C-76.51144762 59.83748034 -78.5090803 61.13135899 -81.0625 62.25 C-81.0625 62.91 -81.0625 63.57 -81.0625 64.25 C-83.7025 64.25 -86.3425 64.25 -89.0625 64.25 C-89.0625 63.59 -89.0625 62.93 -89.0625 62.25 C-89.7225 62.25 -90.3825 62.25 -91.0625 62.25 C-91.56190808 56.13225104 -90.31150602 53.22504047 -87.0625 48.25 C-86.4025 48.25 -85.7425 48.25 -85.0625 48.25 C-84.4025 46.6 -83.7425 44.95 -83.0625 43.25 C-82.4025 43.25 -81.7425 43.25 -81.0625 43.25 C-80.753125 42.63125 -80.44375 42.0125 -80.125 41.375 C-79.4375 40 -78.75 38.625 -78.0625 37.25 C-77.4025 37.25 -76.7425 37.25 -76.0625 37.25 C-76.0625 36.59 -76.0625 35.93 -76.0625 35.25 C-75.4025 35.25 -74.7425 35.25 -74.0625 35.25 C-74.0625 34.59 -74.0625 33.93 -74.0625 33.25 C-73.4025 33.25 -72.7425 33.25 -72.0625 33.25 C-71.4025 31.93 -70.7425 30.61 -70.0625 29.25 C-69.4025 29.25 -68.7425 29.25 -68.0625 29.25 C-67.7325 28.26 -67.4025 27.27 -67.0625 26.25 C-64.91796875 24.3125 -64.91796875 24.3125 -62.25 22.25 C-60.94095703 21.2290625 -60.94095703 21.2290625 -59.60546875 20.1875 C-58.76628906 19.548125 -57.92710937 18.90875 -57.0625 18.25 C-56.00482422 17.38375 -56.00482422 17.38375 -54.92578125 16.5 C-53.0625 15.25 -53.0625 15.25 -50.0625 15.25 C-50.0625 14.59 -50.0625 13.93 -50.0625 13.25 C-33.56772087 4.42422208 -18.87086098 0.0763616 0 0 Z " fill="#0169C6" transform="translate(234.0625,109.75)"/>
<path d="M0 0 C1.46258495 0.00187033 2.92517054 0.00329132 4.38775635 0.00428772 C8.19508666 0.00806454 12.00237744 0.01785216 15.80969238 0.0289917 C19.71166449 0.03931113 23.61364312 0.04380766 27.515625 0.04882812 C35.14064282 0.05947992 42.76562832 0.0764965 50.390625 0.09765625 C49.9073481 5.66222104 49.33501808 11.06753279 48.015625 16.5078125 C47.75265625 17.59900391 47.4896875 18.69019531 47.21875 19.81445312 C46.94546875 20.91853516 46.6721875 22.02261719 46.390625 23.16015625 C46.11734375 24.29904297 45.8440625 25.43792969 45.5625 26.61132812 C43.52911652 34.95916473 43.52911652 34.95916473 42.390625 36.09765625 C39.28811299 36.1863976 36.2079438 36.2128408 33.10546875 36.1953125 C32.17464981 36.19389755 31.24383087 36.1924826 30.2848053 36.19102478 C27.29921309 36.18540797 24.31369471 36.17285265 21.328125 36.16015625 C19.30924587 36.15514341 17.29036557 36.15058013 15.27148438 36.14648438 C10.31116928 36.13543308 5.35090968 36.1181572 0.390625 36.09765625 C0.20886719 37.14953125 0.20886719 37.14953125 0.0234375 38.22265625 C-0.14414063 39.17140625 -0.31171875 40.12015625 -0.484375 41.09765625 C-0.64679688 42.02578125 -0.80921875 42.95390625 -0.9765625 43.91015625 C-1.72257716 47.6678597 -2.68021114 51.38100081 -3.609375 55.09765625 C8.930625 55.09765625 21.470625 55.09765625 34.390625 55.09765625 C33.63614495 60.37901661 32.73348773 65.37086047 31.515625 70.53515625 C31.35449219 71.24736328 31.19335938 71.95957031 31.02734375 72.69335938 C30.86105469 73.40298828 30.69476563 74.11261719 30.5234375 74.84375 C30.37793457 75.46950928 30.23243164 76.09526855 30.08251953 76.73999023 C29.05039878 80.2569945 27.67760581 83.66570743 26.390625 87.09765625 C13.850625 87.09765625 1.310625 87.09765625 -11.609375 87.09765625 C-12.269375 91.05765625 -12.929375 95.01765625 -13.609375 99.09765625 C-14.37541292 102.08596259 -15.16557335 105.02178485 -16.046875 107.97265625 C-18.0224913 114.79784319 -19.65709502 121.59567706 -21.03125 128.5703125 C-21.609375 131.09765625 -21.609375 131.09765625 -22.609375 132.09765625 C-25.20296822 132.18617154 -27.76977191 132.2129157 -30.36328125 132.1953125 C-31.13872787 132.19389755 -31.9141745 132.1924826 -32.71311951 132.19102478 C-35.19940994 132.1854097 -37.6856116 132.17285471 -40.171875 132.16015625 C-41.85351433 132.15514319 -43.53515506 132.15057995 -45.21679688 132.14648438 C-49.34769066 132.13543538 -53.47851776 132.1181607 -57.609375 132.09765625 C-57.69184599 127.33485181 -57.04882309 123.23430037 -55.796875 118.66015625 C-54.36129444 113.20330075 -53.10487082 107.76587902 -52.046875 102.22265625 C-51.08882476 97.26150961 -49.88671681 92.53842899 -48.35546875 87.73046875 C-47.09722369 83.29037886 -46.3222261 78.75350539 -45.45019531 74.22460938 C-44.72106051 70.5601395 -43.85731385 66.94524228 -42.93359375 63.32421875 C-42.57806713 61.91959228 -42.22322271 60.51479304 -41.86889648 59.10986328 C-41.67093475 58.32500549 -41.47297302 57.54014771 -41.26901245 56.73150635 C-39.9519992 51.47283665 -38.66545776 46.20664281 -37.375 40.94140625 C-37.08995102 39.77892365 -36.80490204 38.61644104 -36.51121521 37.41873169 C-35.62696615 33.81178057 -34.74316132 30.20472078 -33.859375 26.59765625 C-33.25133548 24.11717931 -32.64326282 21.6367105 -32.03515625 19.15625 C-30.55951391 13.13681231 -29.0842799 7.11727467 -27.609375 1.09765625 C-18.39660899 0.14224174 -9.25122029 -0.03527088 0 0 Z " fill="#000002" transform="translate(206.609375,180.90234375)"/>
<path d="M0 0 C0.88307831 0.00202423 1.76615662 0.00404846 2.67599487 0.00613403 C3.60123962 0.00438171 4.52648437 0.00262939 5.47976685 0.00082397 C8.55740197 -0.00359887 11.63498019 -0.0006536 14.71261597 0.00271606 C16.84676118 0.0020428 18.98090632 0.00107259 21.11505127 -0.00018311 C25.59924038 -0.00166094 30.08340963 0.00049595 34.56759644 0.00515747 C40.30755014 0.01083417 46.04745688 0.00758941 51.78740883 0.00158501 C56.20040233 -0.00203594 60.61338479 -0.00087461 65.02637863 0.0017128 C67.14181906 0.0023789 69.25726049 0.00156473 71.37269974 -0.00076675 C74.33840825 -0.0033161 77.30404191 0.0005804 80.26974487 0.00613403 C81.1406778 0.0041098 82.01161072 0.00208557 82.90893555 0 C87.6652602 0.01643756 92.16995267 0.33994906 96.86105347 1.13552856 C96.2225574 8.6697822 94.66309228 15.79987056 92.86105347 23.13552856 C92.58777222 24.278927 92.31449097 25.42232544 92.03292847 26.60037231 C89.99508015 35.00150188 89.99508015 35.00150188 88.86105347 36.13552856 C86.3401127 36.22400599 83.84674454 36.25080158 81.32589722 36.23318481 C80.19602135 36.23106239 80.19602135 36.23106239 79.0433197 36.22889709 C76.62835787 36.22328232 74.21348746 36.21072739 71.79855347 36.19802856 C70.16509126 36.19301546 68.53162761 36.18845223 66.89816284 36.18435669 C62.88575762 36.1733081 58.87342106 36.15603363 54.86105347 36.13552856 C54.68437134 37.04069214 54.50768921 37.94585571 54.32565308 38.87844849 C52.50543144 48.10402638 50.51907404 57.28041422 48.42355347 66.44802856 C47.8043407 69.16661422 47.1861773 71.88543803 46.56808472 74.60427856 C46.34389359 75.5891198 46.34389359 75.5891198 46.11517334 76.59385681 C45.26761079 80.32296123 44.43506082 84.0548376 43.62277222 87.79177856 C43.44737915 88.59703979 43.27198608 89.40230103 43.09127808 90.23196411 C42.65227845 92.25779006 42.21739 94.28450578 41.78292847 96.31130981 C41.07654662 99.24159724 40.28236271 102.05326618 39.38449097 104.92459106 C37.74421513 110.28360946 36.70881438 115.6844197 35.73605347 121.19802856 C35.40360896 123.06453949 35.06785794 124.9304656 34.72824097 126.79568481 C34.5849939 127.60658569 34.44174683 128.41748657 34.29415894 129.25296021 C33.86105347 131.13552856 33.86105347 131.13552856 32.86105347 132.13552856 C27.58903053 133.56792725 22.22052464 134.64687105 16.86105347 133.13552856 C11.12862661 129.29888579 6.9919651 123.57117045 2.86105347 118.13552856 C2.53105347 117.80552856 2.20105347 117.47552856 1.86105347 117.13552856 C1.91140265 110.42649926 3.28011097 104.12157416 4.99386597 97.67459106 C6.01225286 93.51847156 6.7830086 89.3441702 7.54855347 85.13552856 C10.50437899 69.03861458 14.2614619 53.09779507 17.86105347 37.13552856 C7.63105347 36.80552856 -2.59894653 36.47552856 -13.13894653 36.13552856 C-13.13894653 30.94538865 -12.92748717 27.2782681 -11.86160278 22.36209106 C-11.59541138 21.12588013 -11.32921997 19.88966919 -11.05496216 18.61599731 C-10.773302 17.34369263 -10.49164185 16.07138794 -10.20144653 14.76052856 C-9.92027287 13.45205818 -9.63966887 12.14346524 -9.35964966 10.83474731 C-7.00594591 0.02472479 -7.00594591 0.02472479 0 0 Z " fill="#000002" transform="translate(271.1389465332031,180.86447143554688)"/>
<path d="M0 0 C0.70125 0.845625 1.4025 1.69125 2.125 2.5625 C2.846875 3.408125 3.56875 4.25375 4.3125 5.125 C8.18704021 12.47326591 9.15542256 21.486267 7.125 29.5625 C4.68975386 37.26433266 -0.99547929 42.92896806 -8.0390625 46.73046875 C-15.62506227 49.66831957 -25.32456882 50.11171932 -32.86328125 46.80859375 C-39.52548181 42.6819103 -46.38648352 36.91942851 -48.546875 29.14453125 C-49.72502996 19.87357379 -49.78779219 11.36647508 -44.46875 3.4765625 C-39.52628617 -2.79477132 -33.47385293 -6.0961679 -25.875 -8.3125 C-15.80691912 -8.73200337 -7.80352952 -6.6160359 0 0 Z " fill="#016AC7" transform="translate(326.875,72.4375)"/>
<path d="M0 0 C0.04092937 2.33297433 0.04241723 4.66705225 0 7 C-3.44358509 8.72179254 -7.39166805 8.40262345 -11.1875 8.5625 C-12.15969482 8.6035083 -13.13188965 8.6445166 -14.13354492 8.68676758 C-23.79967708 9.03925847 -33.46789727 9.13840169 -43.13980103 9.17623901 C-44.92332548 9.18375361 -46.70683935 9.19444092 -48.49032593 9.20828247 C-51.02099128 9.22611006 -53.5513105 9.23030978 -56.08203125 9.23046875 C-56.85189362 9.23760895 -57.62175598 9.24474915 -58.41494751 9.25210571 C-63.77085285 9.22914715 -63.77085285 9.22914715 -66 7 C-66.3125 3.5 -66.3125 3.5 -66 0 C-62.66939297 -2.22040469 -61.50918571 -2.27286487 -57.61401367 -2.35058594 C-56.51244431 -2.37691101 -55.41087494 -2.40323608 -54.27592468 -2.43035889 C-53.08529922 -2.4481842 -51.89467377 -2.46600952 -50.66796875 -2.484375 C-49.44346512 -2.5084845 -48.21896149 -2.53259399 -46.95735168 -2.55743408 C-44.36414989 -2.60577185 -41.77085176 -2.64915445 -39.17749023 -2.68798828 C-35.21359538 -2.74959443 -31.25055757 -2.83270151 -27.28710938 -2.91796875 C-24.76825171 -2.96223954 -22.24937152 -3.00524964 -19.73046875 -3.046875 C-17.9536396 -3.08575836 -17.9536396 -3.08575836 -16.14091492 -3.12542725 C-15.02988907 -3.13914368 -13.91886322 -3.15286011 -12.77416992 -3.16699219 C-11.31547737 -3.19125275 -11.31547737 -3.19125275 -9.82731628 -3.21600342 C-6.47613038 -2.95997702 -2.47648279 -2.47648279 0 0 Z " fill="#0367C1" transform="translate(144,272)"/>
<path d="M0 0 C0.91028458 0.00142502 1.82056915 0.00285004 2.75843811 0.00431824 C3.78968307 0.00124161 4.82092804 -0.00183502 5.88342285 -0.00500488 C7.55997704 0.00577339 7.55997704 0.00577339 9.270401 0.01676941 C10.98677513 0.01745674 10.98677513 0.01745674 12.73782349 0.01815796 C15.16137222 0.02118338 17.58491895 0.02907827 20.00843811 0.04142761 C23.72408418 0.05964514 27.43948063 0.0619376 31.15516663 0.06169128 C33.50608025 0.06660786 35.85699217 0.07243678 38.207901 0.07926941 C39.32357956 0.08038223 40.43925812 0.08149506 41.58874512 0.0826416 C42.62314224 0.08902145 43.65753937 0.09540131 44.72328186 0.10197449 C46.08990211 0.10769218 46.08990211 0.10769218 47.48413086 0.11352539 C49.80555725 0.24723816 49.80555725 0.24723816 52.80555725 1.24723816 C54.13613993 7.65822745 54.13613993 7.65822745 52.84584045 9.9571991 C49.60443779 12.00668715 46.18717056 11.63313447 42.473526 11.57536316 C41.64532852 11.57348999 40.81713104 11.57161682 39.96383667 11.56968689 C38.20441178 11.56295881 36.44500204 11.54902931 34.6856842 11.52848816 C32.04124956 11.49779747 29.39741668 11.48755774 26.75282288 11.48161316 C-1.08471884 11.35696206 -1.08471884 11.35696206 -4.19444275 8.24723816 C-4.44444275 5.24723816 -4.44444275 5.24723816 -4.19444275 2.24723816 C-2.19444275 0.24723816 -2.19444275 0.24723816 0 0 Z " fill="#016AC9" transform="translate(101.19444274902344,246.7527618408203)"/>
<path d="M0 0 C0.82971817 -0.00287018 1.65943634 -0.00574036 2.51429749 -0.00869751 C4.2685718 -0.01073833 6.02286886 -0.00520715 7.77709961 0.00732422 C10.45934121 0.02335791 13.14007136 0.00748727 15.82226562 -0.01171875 C17.52734707 -0.00973592 19.23242758 -0.00589143 20.9375 0 C21.73864731 -0.00607269 22.53979462 -0.01214539 23.36521912 -0.0184021 C26.65757422 0.02306561 29.11023201 0.17268746 32.04516602 1.73193359 C33.53515625 3.3984375 33.53515625 3.3984375 33.97265625 6.4609375 C33.82828125 7.4303125 33.68390625 8.3996875 33.53515625 9.3984375 C26.76042682 13.91492378 16.83258627 12.51791594 8.91015625 12.5859375 C8.0279541 12.59898926 7.14575195 12.61204102 6.23681641 12.62548828 C0.47719709 12.63301438 -4.94010294 12.11451553 -10.46484375 10.3984375 C-11.46484375 9.3984375 -11.46484375 9.3984375 -11.71484375 6.5234375 C-11.46484375 3.3984375 -11.46484375 3.3984375 -10.47827148 1.72802734 C-7.24450451 -0.40742736 -3.74923308 -0.02834754 0 0 Z " fill="#0169C7" transform="translate(108.46484375,292.6015625)"/>
<path d="M0 0 C0.91028458 0.00142502 1.82056915 0.00285004 2.75843811 0.00431824 C3.78968307 0.00124161 4.82092804 -0.00183502 5.88342285 -0.00500488 C7.55997704 0.00577339 7.55997704 0.00577339 9.270401 0.01676941 C10.98677513 0.01745674 10.98677513 0.01745674 12.73782349 0.01815796 C15.16137222 0.02118338 17.58491895 0.02907827 20.00843811 0.04142761 C23.72408418 0.05964514 27.43948063 0.0619376 31.15516663 0.06169128 C33.50608025 0.06660786 35.85699217 0.07243678 38.207901 0.07926941 C39.32357956 0.08038223 40.43925812 0.08149506 41.58874512 0.0826416 C42.62314224 0.08902145 43.65753937 0.09540131 44.72328186 0.10197449 C46.08990211 0.10769218 46.08990211 0.10769218 47.48413086 0.11352539 C49.80555725 0.24723816 49.80555725 0.24723816 52.80555725 1.24723816 C54.13613993 7.65822745 54.13613993 7.65822745 52.84584045 9.9571991 C49.60443779 12.00668715 46.18717056 11.63313447 42.473526 11.57536316 C41.64532852 11.57348999 40.81713104 11.57161682 39.96383667 11.56968689 C38.20441178 11.56295881 36.44500204 11.54902931 34.6856842 11.52848816 C32.04124956 11.49779747 29.39741668 11.48755774 26.75282288 11.48161316 C-1.08471884 11.35696206 -1.08471884 11.35696206 -4.19444275 8.24723816 C-4.44444275 5.24723816 -4.44444275 5.24723816 -4.19444275 2.24723816 C-2.19444275 0.24723816 -2.19444275 0.24723816 0 0 Z M-2.19444275 4.24723816 C-2.19444275 5.56723816 -2.19444275 6.88723816 -2.19444275 8.24723816 C15.5704906 9.58618334 33.02676256 9.2768271 50.80555725 8.24723816 C50.80555725 6.26723816 50.80555725 4.28723816 50.80555725 2.24723816 C43.57902505 2.19665484 36.35253826 2.16155404 29.12586975 2.13737488 C26.66589146 2.12729833 24.20592519 2.11363685 21.74598694 2.09635925 C18.2163344 2.07218355 14.68683978 2.06077176 11.15711975 2.05192566 C9.49925949 2.0364418 9.49925949 2.0364418 7.8079071 2.02064514 C6.78699982 2.02049408 5.76609253 2.02034302 4.71424866 2.02018738 C3.81268036 2.01574615 2.91111206 2.01130493 1.98222351 2.00672913 C-0.40491191 2.04092678 -0.40491191 2.04092678 -2.19444275 4.24723816 Z " fill="#0D4B89" transform="translate(101.19444274902344,246.7527618408203)"/>
<path d="M0 0 C0.66 0 1.32 0 2 0 C1.95359375 1.22074219 1.9071875 2.44148438 1.859375 3.69921875 C1.58817722 14.06488335 2.29920116 22.23524161 6 32 C6.35563554 33.32755876 6.69883741 34.65903394 7 36 C7.66 36 8.32 36 9 36 C9.99 37.98 10.98 39.96 12 42 C11.01 42 10.02 42 9 42 C9 41.34 9 40.68 9 40 C7.35 39.34 5.7 38.68 4 38 C4 39.32 4 40.64 4 42 C3.0409375 42.1546875 3.0409375 42.1546875 2.0625 42.3125 C1.0415625 42.6528125 1.0415625 42.6528125 0 43 C-0.33 43.99 -0.66 44.98 -1 46 C-6.25462985 30.93672776 -4.99328592 14.97985776 0 0 Z " fill="#075AA9" transform="translate(100,322)"/>
<path d="M0 0 C0.66 0.99 1.32 1.98 2 3 C0.68 3.33 -0.64 3.66 -2 4 C-1.67 5.32 -1.34 6.64 -1 8 C-0.5875 7.505 -0.175 7.01 0.25 6.5 C2 5 2 5 6 5 C6 6.32 6 7.64 6 9 C7.65 9 9.3 9 11 9 C11 9.66 11 10.32 11 11 C10.34 11 9.68 11 9 11 C9 11.66 9 12.32 9 13 C8.34 13 7.68 13 7 13 C7 13.66 7 14.32 7 15 C5.0234375 16.9453125 5.0234375 16.9453125 2.375 19.125 C1.51648438 19.84945313 0.65796875 20.57390625 -0.2265625 21.3203125 C-3.48176016 23.29177024 -5.25841135 23.57643523 -9 23 C-11.0755384 19.8866924 -11.36961992 18.72647352 -10.75 15.1171875 C-9.14693507 10.59186878 -6.13486361 6.59821527 -3 3 C-2.34 3 -1.68 3 -1 3 C-0.67 2.01 -0.34 1.02 0 0 Z " fill="#0461B8" transform="translate(120,411)"/>
<path d="M0 0 C0.93423645 3.01031744 1.04449911 3.86650268 0 7 C-0.34820041 8.66362417 -0.68404492 10.32995171 -1 12 C-1.99 12.33 -2.98 12.66 -4 13 C-4.33 13.99 -4.66 14.98 -5 16 C-5.66 16 -6.32 16 -7 16 C-7.33 17.65 -7.66 19.3 -8 21 C-7.01 21 -6.02 21 -5 21 C-5 21.66 -5 22.32 -5 23 C-3.99445068 22.83250244 -2.98890137 22.66500488 -1.95288086 22.49243164 C1.87752698 22.01525712 5.39383874 21.9722942 9.24609375 22.12109375 C9.90207047 22.14470474 10.55804718 22.16831573 11.23390198 22.19264221 C13.30203745 22.26841126 15.36971304 22.35280013 17.4375 22.4375 C18.85088994 22.49080795 20.26430144 22.54354753 21.67773438 22.59570312 C25.11876315 22.72390614 28.55943531 22.85983473 32 23 C32 22.34 32 21.68 32 21 C33.65 21 35.3 21 37 21 C37 19.35 37 17.7 37 16 C38.65 15.67 40.3 15.34 42 15 C40.41314067 18.73389562 38.70207938 21.95358168 36 25 C32.22024436 26.38556034 28.67965509 26.17413544 24.6953125 25.9765625 C23.61619598 25.96241302 22.53707947 25.94826355 21.42526245 25.9336853 C17.98898129 25.87783838 14.55929828 25.75242776 11.125 25.625 C8.79176106 25.5748263 6.45841957 25.52920121 4.125 25.48828125 C-1.58557266 25.37821252 -7.29231517 25.21104833 -13 25 C-10.9288965 15.99944338 -4.77535305 7.80651686 0 0 Z " fill="#0865B7" transform="translate(246,151)"/>
<path d="M0 0 C5.33851078 -0.07420941 10.67672067 -0.12863002 16.015625 -0.16479492 C17.83143342 -0.17987262 19.64720547 -0.20033798 21.46289062 -0.22631836 C24.07431008 -0.2627468 26.68524765 -0.27973638 29.296875 -0.29296875 C30.51271271 -0.31619453 30.51271271 -0.31619453 31.75311279 -0.33988953 C35.07782371 -0.34088015 37.54591932 -0.23941875 40.51660156 1.3269043 C42 3 42 3 42.4375 6.0625 C42.293125 7.031875 42.14875 8.00125 42 9 C35.12845023 13.58103318 24.96585711 12.1208577 16.9375 12.1875 C15.52621826 12.20707764 15.52621826 12.20707764 14.08642578 12.22705078 C12.75780518 12.22874268 12.75780518 12.22874268 11.40234375 12.23046875 C10.60304443 12.23457764 9.80374512 12.23868652 8.98022461 12.24291992 C7 12 7 12 5 10 C13.58 10 22.16 10 31 10 C32.3721042 6.71058562 32.3721042 6.71058562 31 2 C20.44 2 9.88 2 -1 2 C-0.67 1.34 -0.34 0.68 0 0 Z " fill="#0854A8" transform="translate(100,293)"/>
<path d="M0 0 C4.5 3 4.5 3 9 6 C9 6.66 9 7.32 9 8 C9.66 8 10.32 8 11 8 C12.9423308 10.21135988 14.76283941 12.42726265 16.5625 14.75 C17.06974609 15.38421875 17.57699219 16.0184375 18.09960938 16.671875 C18.58365234 17.290625 19.06769531 17.909375 19.56640625 18.546875 C20.00927979 19.11245117 20.45215332 19.67802734 20.90844727 20.26074219 C22.09971074 22.15887706 22.57328465 23.811624 23 26 C22.34 26 21.68 26 21 26 C21 25.01 21 24.02 21 23 C20.01 23 19.02 23 18 23 C17.34 25.97 16.68 28.94 16 32 C15.34 32 14.68 32 14 32 C12.80712589 28.12315913 12 25.08378077 12 21 C11.34 21 10.68 21 10 21 C9.649375 20.071875 9.29875 19.14375 8.9375 18.1875 C6.99976089 13.58772123 4.20852445 9.57826813 1.42578125 5.453125 C0 3 0 3 0 0 Z " fill="#0859A3" transform="translate(387,162)"/>
<path d="M0 0 C1.32 0 2.64 0 4 0 C2.66858353 4.65995765 0.20683045 7.6570533 -4 10 C-7.34100265 10.72613329 -10.59813872 10.72522432 -14.0078125 10.69921875 C-14.96968475 10.70637405 -15.93155701 10.71352936 -16.9225769 10.72090149 C-18.95488563 10.72866719 -20.98727798 10.72369036 -23.01953125 10.70678711 C-26.0953982 10.68768385 -29.16666562 10.72683652 -32.2421875 10.77148438 C-43.18734625 10.81519561 -51.78194483 10.52234877 -61 4 C-56.8172493 2.70095188 -54.12199405 3.54966876 -50 5 C-49.34 5.66 -48.68 6.32 -48 7 C-45.89670565 7.2533749 -45.89670565 7.2533749 -43.45849609 7.13525391 C-42.51767181 7.11508209 -41.57684753 7.09491028 -40.60751343 7.0741272 C-39.08089584 7.02583267 -39.08089584 7.02583267 -37.5234375 6.9765625 C-36.48305328 6.95153656 -35.44266907 6.92651062 -34.37075806 6.90072632 C-31.03851498 6.81836806 -27.70685068 6.7218394 -24.375 6.625 C-22.11981553 6.56677665 -19.86460711 6.50947304 -17.609375 6.453125 C-12.07259431 6.31276587 -6.53622379 6.16076201 -1 6 C-1.020625 5.195625 -1.04125 4.39125 -1.0625 3.5625 C-1 1 -1 1 0 0 Z " fill="#0B4E91" transform="translate(359,166)"/>
<path d="M0 0 C0.88877335 -0.00095673 1.77754669 -0.00191345 2.69325256 -0.00289917 C4.55111767 -0.00357376 6.40898524 -0.00177033 8.2668457 0.00244141 C11.1147991 0.00784503 13.96259801 0.00244914 16.81054688 -0.00390625 C18.62369826 -0.00324621 20.43684956 -0.0019666 22.25 0 C23.09997055 -0.00202423 23.9499411 -0.00404846 24.82566833 -0.00613403 C28.18588223 0.00730159 30.95030515 0.06286213 34.16015625 1.1328125 C34.54078846 3.4588982 34.8728557 5.79336514 35.16015625 8.1328125 C34.16015625 9.1328125 34.16015625 9.1328125 32.02709961 9.24633789 C31.11065674 9.24110107 30.19421387 9.23586426 29.25 9.23046875 C28.26064453 9.22724609 27.27128906 9.22402344 26.25195312 9.22070312 C25.21103516 9.21232422 24.17011719 9.20394531 23.09765625 9.1953125 C22.05287109 9.19080078 21.00808594 9.18628906 19.93164062 9.18164062 C17.34108965 9.16981163 14.75065066 9.15332939 12.16015625 9.1328125 C12.16015625 8.8028125 12.16015625 8.4728125 12.16015625 8.1328125 C18.76015625 8.1328125 25.36015625 8.1328125 32.16015625 8.1328125 C32.16015625 6.1528125 32.16015625 4.1728125 32.16015625 2.1328125 C15.00015625 2.1328125 -2.15984375 2.1328125 -19.83984375 2.1328125 C-19.83984375 1.8028125 -19.83984375 1.4728125 -19.83984375 1.1328125 C-13.20431061 0.36143706 -6.67818728 -0.01617394 0 0 Z " fill="#0D61A9" transform="translate(119.83984375,246.8671875)"/>
<path d="M0 0 C1.81552368 -0.01474365 1.81552368 -0.01474365 3.66772461 -0.02978516 C13.665769 0.06394014 23.06449096 1.52948747 32.3125 5.4375 C32.3125 5.7675 32.3125 6.0975 32.3125 6.4375 C28.3125 6.4375 24.3125 6.4375 20.3125 6.4375 C20.6425 5.4475 20.9725 4.4575 21.3125 3.4375 C20.60222656 3.44910156 19.89195312 3.46070312 19.16015625 3.47265625 C18.24105469 3.48167969 17.32195312 3.49070312 16.375 3.5 C15.45847656 3.51160156 14.54195312 3.52320312 13.59765625 3.53515625 C11.3125 3.4375 11.3125 3.4375 10.3125 2.4375 C6.98705646 2.18304541 3.64650484 2.25225575 0.3125 2.25 C-1.07001953 2.23163086 -1.07001953 2.23163086 -2.48046875 2.21289062 C-8.41242436 2.20034065 -14.00028114 2.64784465 -19.6875 4.4375 C-20.0175 4.7675 -20.3475 5.0975 -20.6875 5.4375 C-23.02047433 5.47842937 -25.35455225 5.47991723 -27.6875 5.4375 C-28.0175 6.4275 -28.3475 7.4175 -28.6875 8.4375 C-30.6675 7.7775 -32.6475 7.1175 -34.6875 6.4375 C-23.85470873 0.55759862 -12.05519439 0.0445266 0 0 Z " fill="#0C539A" transform="translate(234.6875,109.5625)"/>
<path d="M0 0 C0.04092937 2.33297433 0.04241723 4.66705225 0 7 C-1.98 7.33 -3.96 7.66 -6 8 C-5.34 7.01 -4.68 6.02 -4 5 C-3.34 5 -2.68 5 -2 5 C-2.66 3.35 -3.32 1.7 -4 0 C-9.95499377 -0.02507122 -15.90995555 -0.04303204 -21.86499023 -0.05493164 C-23.88289934 -0.05990226 -25.90080495 -0.06668108 -27.91870117 -0.07543945 C-40.32120502 -0.12784874 -52.62922622 0.07876112 -65 1 C-65 2.98 -65 4.96 -65 7 C-65.33 7 -65.66 7 -66 7 C-66.1875 3.625 -66.1875 3.625 -66 0 C-62.66939297 -2.22040469 -61.50918571 -2.27286487 -57.61401367 -2.35058594 C-56.51244431 -2.37691101 -55.41087494 -2.40323608 -54.27592468 -2.43035889 C-53.08529922 -2.4481842 -51.89467377 -2.46600952 -50.66796875 -2.484375 C-49.44346512 -2.5084845 -48.21896149 -2.53259399 -46.95735168 -2.55743408 C-44.36414989 -2.60577185 -41.77085176 -2.64915445 -39.17749023 -2.68798828 C-35.21359538 -2.74959443 -31.25055757 -2.83270151 -27.28710938 -2.91796875 C-24.76825171 -2.96223954 -22.24937152 -3.00524964 -19.73046875 -3.046875 C-17.9536396 -3.08575836 -17.9536396 -3.08575836 -16.14091492 -3.12542725 C-15.02988907 -3.13914368 -13.91886322 -3.15286011 -12.77416992 -3.16699219 C-11.31547737 -3.19125275 -11.31547737 -3.19125275 -9.82731628 -3.21600342 C-6.47613038 -2.95997702 -2.47648279 -2.47648279 0 0 Z " fill="#0F569C" transform="translate(144,272)"/>
<path d="M0 0 C0.99 0 1.98 0 3 0 C3 0.99 3 1.98 3 3 C3.99 3 4.98 3 6 3 C9 8.75 9 8.75 9 11 C7.34385343 11.38218767 5.67542976 11.71395102 4 12 C3.67 11.67 3.34 11.34 3 11 C2.67 12.32 2.34 13.64 2 15 C1.01 15 0.02 15 -1 15 C-1 16.98 -1 18.96 -1 21 C-1.33 21 -1.66 21 -2 21 C-3.09141544 13.22859609 -3.23540512 7.2385335 0 0 Z " fill="#055FB2" transform="translate(405,185)"/>
<path d="M0 0 C0.99 0.33 1.98 0.66 3 1 C1.38608878 4.41779408 -0.33705469 7.29793251 -3 10 C-6.77993682 11.24706409 -10.35823491 11.05503092 -14.3046875 10.87890625 C-15.38380402 10.86617172 -16.46292053 10.85343719 -17.57473755 10.84031677 C-21.01047608 10.79006248 -24.44086772 10.67717944 -27.875 10.5625 C-30.20825687 10.51734332 -32.54159681 10.47628083 -34.875 10.43945312 C-40.58514756 10.34039865 -46.29219191 10.1899476 -52 10 C-51.27633685 6.65569263 -50.18284504 4.65737657 -48 2 C-47.67 3.98 -47.34 5.96 -47 8 C-33.8 8 -20.6 8 -7 8 C-7 7.34 -7 6.68 -7 6 C-5.35 6 -3.7 6 -2 6 C-2 4.35 -2 2.7 -2 1 C-1.34 0.67 -0.68 0.34 0 0 Z " fill="#084989" transform="translate(285,166)"/>
<path d="M0 0 C5.33851078 -0.07420941 10.67672067 -0.12863002 16.015625 -0.16479492 C17.83143342 -0.17987262 19.64720547 -0.20033798 21.46289062 -0.22631836 C24.07431008 -0.2627468 26.68524765 -0.27973638 29.296875 -0.29296875 C30.51271271 -0.31619453 30.51271271 -0.31619453 31.75311279 -0.33988953 C35.0771369 -0.34087995 37.55233209 -0.23356023 40.52832031 1.3190918 C42 3 42 3 42.25 6.1875 C42.1675 7.115625 42.085 8.04375 42 9 C41.34 9.33 40.68 9.66 40 10 C39.34 7.69 38.68 5.38 38 3 C18.695 2.505 18.695 2.505 -1 2 C-0.67 1.34 -0.34 0.68 0 0 Z " fill="#084885" transform="translate(100,293)"/>
<path d="M0 0 C4.5 3 4.5 3 9 6 C9 6.66 9 7.32 9 8 C9.66 8 10.32 8 11 8 C12.7265625 9.96875 12.7265625 9.96875 14.625 12.5 C15.25664062 13.3353125 15.88828125 14.170625 16.5390625 15.03125 C17.02117187 15.6809375 17.50328125 16.330625 18 17 C17.34 17.66 16.68 18.32 16 19 C14.68 17.02 13.36 15.04 12 13 C10.768606 15.46278801 10.92840804 17.2795055 11 20 C11.66 20 12.32 20 13 20 C13 21.65 13 23.3 13 25 C12.67 23.68 12.34 22.36 12 21 C11.34 21 10.68 21 10 21 C9.649375 20.071875 9.29875 19.14375 8.9375 18.1875 C6.99976089 13.58772123 4.20852445 9.57826813 1.42578125 5.453125 C0 3 0 3 0 0 Z " fill="#0D4C8D" transform="translate(387,162)"/>
<path d="M0 0 C0.928125 0.20625 1.85625 0.4125 2.8125 0.625 C2.8125 1.615 2.8125 2.605 2.8125 3.625 C3.4725 3.625 4.1325 3.625 4.8125 3.625 C5.8025 5.605 6.7925 7.585 7.8125 9.625 C6.8225 9.625 5.8325 9.625 4.8125 9.625 C4.8125 8.965 4.8125 8.305 4.8125 7.625 C2.3375 6.635 2.3375 6.635 -0.1875 5.625 C-0.1875 6.945 -0.1875 8.265 -0.1875 9.625 C-0.826875 9.728125 -1.46625 9.83125 -2.125 9.9375 C-3.1459375 10.2778125 -3.1459375 10.2778125 -4.1875 10.625 C-4.5175 11.615 -4.8475 12.605 -5.1875 13.625 C-6.92854353 11.88395647 -6.40061272 9.55135979 -6.4375 7.1875 C-6.46328125 6.19878906 -6.4890625 5.21007812 -6.515625 4.19140625 C-6.40734375 3.34449219 -6.2990625 2.49757813 -6.1875 1.625 C-3.1875 -0.375 -3.1875 -0.375 0 0 Z " fill="#065EAE" transform="translate(104.1875,354.375)"/>
<path d="M0 0 C2 3 2 3 1.625 5.1875 C1.41875 5.785625 1.2125 6.38375 1 7 C0.34 7 -0.32 7 -1 7 C-1.268125 7.598125 -1.53625 8.19625 -1.8125 8.8125 C-2.98493467 10.97224808 -4.19369282 12.35790256 -6 14 C-6.66 13.67 -7.32 13.34 -8 13 C-7.67 14.32 -7.34 15.64 -7 17 C-9.64 19.31 -12.28 21.62 -15 24 C-15 19.94428345 -13.37131367 18.15798851 -11.125 14.8125 C-10.40570313 13.72582031 -9.68640625 12.63914062 -8.9453125 11.51953125 C-7.98238281 10.27236328 -7.98238281 10.27236328 -7 9 C-6.34 9 -5.68 9 -5 9 C-4.731875 8.2575 -4.46375 7.515 -4.1875 6.75 C-3.05770579 4.13363446 -1.79106798 2.19812889 0 0 Z " fill="#085BAA" transform="translate(204,302)"/>
<path d="M0 0 C0.66 0 1.32 0 2 0 C2 1.65 2 3.3 2 5 C1.34 5 0.68 5 0 5 C-0.33 5.66 -0.66 6.32 -1 7 C-4.54973189 10.34194271 -7.9338959 13.41635595 -13 13.375 C-13.99 13.25125 -14.98 13.1275 -16 13 C-13.41239686 10.21942307 -10.49916457 8.05065426 -7.4375 5.8125 C-6.46683594 5.09707031 -5.49617188 4.38164062 -4.49609375 3.64453125 C-2 2 -2 2 0 2 C0 1.34 0 0.68 0 0 Z " fill="#0A67BE" transform="translate(332,328)"/>
<path d="M0 0 C0.69738281 0.01804687 1.39476562 0.03609375 2.11328125 0.0546875 C3.82611539 0.10161446 5.53823824 0.17335395 7.25 0.25 C7.25 0.91 7.25 1.57 7.25 2.25 C2.3 2.25 -2.65 2.25 -7.75 2.25 C-8.93369273 4.61738545 -10.07661915 7.00716258 -11.125 9.4375 C-12.75 12.25 -12.75 12.25 -14.9375 13.125 C-15.8346875 13.186875 -15.8346875 13.186875 -16.75 13.25 C-16.75 13.91 -16.75 14.57 -16.75 15.25 C-17.41 14.92 -18.07 14.59 -18.75 14.25 C-17.6718837 12.66310971 -16.58726048 11.08063918 -15.5 9.5 C-14.89671875 8.61828125 -14.2934375 7.7365625 -13.671875 6.828125 C-9.43876025 1.14955643 -7.17379722 -0.35258739 0 0 Z " fill="#0F4A84" transform="translate(227.75,280.75)"/>
<path d="M0 0 C0.66 0.33 1.32 0.66 2 1 C1.42257164 6.40106771 0.09469181 11.01336319 -1.875 16.0625 C-2.13152344 16.74376953 -2.38804687 17.42503906 -2.65234375 18.12695312 C-4.21438513 22.21259402 -5.97604809 26.11570907 -8 30 C-8.33 30 -8.66 30 -9 30 C-9 28.35 -9 26.7 -9 25 C-8.34 25 -7.68 25 -7 25 C-7 23.68 -7 22.36 -7 21 C-6.34 21 -5.68 21 -5 21 C-4.93941406 20.18015625 -4.87882812 19.3603125 -4.81640625 18.515625 C-4.73261719 17.43796875 -4.64882813 16.3603125 -4.5625 15.25 C-4.48128906 14.18265625 -4.40007812 13.1153125 -4.31640625 12.015625 C-4.05909227 9.56320038 -3.68187782 7.36078709 -3 5 C-2.67 5.33 -2.34 5.66 -2 6 C-1.34 4.02 -0.68 2.04 0 0 Z " fill="#084D94" transform="translate(416,251)"/>
<path d="M0 0 C0.66 0.33 1.32 0.66 2 1 C1.01 1.33 0.02 1.66 -1 2 C-2.20882096 4.00016466 -2.20882096 4.00016466 -3 6 C-4.32 5.67 -5.64 5.34 -7 5 C-7 5.99 -7 6.98 -7 8 C-10.61973402 9.31626692 -13.09567131 10 -17 10 C-17 10.66 -17 11.32 -17 12 C-19.31 12 -21.62 12 -24 12 C-22.66447736 9.32895472 -21.52477118 9.27039973 -18.75 8.25 C-13.24282509 6.1569552 -7.98217746 3.65287652 -2.6875 1.07421875 C-1.800625 0.71972656 -0.91375 0.36523438 0 0 Z " fill="#06468D" transform="translate(283,359)"/>
<path d="M0 0 C0 0.66 0 1.32 0 2 C-2.1171875 3.5078125 -2.1171875 3.5078125 -4.875 5.125 C-5.77992188 5.66382813 -6.68484375 6.20265625 -7.6171875 6.7578125 C-10 8 -10 8 -12 8 C-12.66 6.02 -13.32 4.04 -14 2 C-9.02821471 0.49908369 -5.17538429 0 0 0 Z " fill="#065AAC" transform="translate(320,369)"/>
<path d="M0 0 C-11.49492844 4.59096227 -20.53678649 7.37389641 -33 7 C-33 6.01 -33 5.02 -33 4 C-32.34 4 -31.68 4 -31 4 C-31 4.66 -31 5.32 -31 6 C-26.65815798 5.81535634 -26.65815798 5.81535634 -23 4 C-21.58659906 3.84230651 -20.16874478 3.72365444 -18.75 3.625 C-14.73150186 3.23140303 -12.40592842 2.20925087 -9 0 C-5.35611141 -0.87453326 -3.5791347 -1.1930449 0 0 Z " fill="#0B5094" transform="translate(249,363)"/>
<path d="M0 0 C0.6875 1.6875 0.6875 1.6875 1 4 C-1.5153547 9.44993518 -6.01398266 13.73329898 -11 17 C-11.66 17 -12.32 17 -13 17 C-13 17.66 -13 18.32 -13 19 C-14.32 18.67 -15.64 18.34 -17 18 C-11.25 13 -11.25 13 -9 13 C-9 12.34 -9 11.68 -9 11 C-8.34 11 -7.68 11 -7 11 C-6.566875 10.1028125 -6.566875 10.1028125 -6.125 9.1875 C-5 7 -5 7 -3 4 C-2.34 4 -1.68 4 -1 4 C-0.67 2.68 -0.34 1.36 0 0 Z " fill="#0B5393" transform="translate(361,132)"/>
<path d="M0 0 C0.93423645 3.01031744 1.04449911 3.86650268 0 7 C-0.34820041 8.66362417 -0.68404492 10.32995171 -1 12 C-1.99 12.33 -2.98 12.66 -4 13 C-4.33 13.99 -4.66 14.98 -5 16 C-7.0625 16.6875 -7.0625 16.6875 -9 17 C-7.51481201 12.95698825 -5.57122002 9.38853744 -3.375 5.6875 C-2.74335938 4.61886719 -2.11171875 3.55023438 -1.4609375 2.44921875 C-0.97882813 1.64097656 -0.49671875 0.83273438 0 0 Z " fill="#0B4D94" transform="translate(246,151)"/>
<path d="M0 0 C0.33 0 0.66 0 1 0 C1.25 7.625 1.25 7.625 -1 11 C-1.2165625 11.8971875 -1.2165625 11.8971875 -1.4375 12.8125 C-2.21868785 15.85045277 -3.38728817 18.31214695 -5 21 C-7.1875 21.875 -7.1875 21.875 -9 22 C-7.02713746 16.90105574 -4.6758094 11.99896121 -2.33984375 7.05859375 C-1.28971929 4.66137085 -0.50522294 2.55106397 0 0 Z " fill="#0B4F97" transform="translate(397,246)"/>
<path d="M0 0 C0.66 0 1.32 0 2 0 C2.33278764 6.81598387 2.24201565 11.92122066 -1 18 C-1.33 18 -1.66 18 -2 18 C-2.1953125 15.94921875 -2.390625 13.8984375 -2.5859375 11.84765625 C-2.79089844 10.93306641 -2.79089844 10.93306641 -3 10 C-3.66 9.67 -4.32 9.34 -5 9 C-4.34 7.35 -3.68 5.7 -3 4 C-2.34 4 -1.68 4 -1 4 C-0.67 4.99 -0.34 5.98 0 7 C0 4.69 0 2.38 0 0 Z " fill="#075096" transform="translate(381,119)"/>
<path d="M0 0 C1 3 1 3 -1 9 C-13.54 9 -26.08 9 -39 9 C-39 8.67 -39 8.34 -39 8 C-27.12 7.67 -15.24 7.34 -3 7 C-2.01 4.69 -1.02 2.38 0 0 Z " fill="#010813" transform="translate(234,259)"/>
<path d="M0 0 C-8.33827479 4.35864364 -16.51258165 5.46331156 -25.75 3 C-26.86375 2.505 -26.86375 2.505 -28 2 C-23.85340627 0.80200551 -20.00630953 1.1103808 -15.75 1.4375 C-15.00492187 1.48970703 -14.25984375 1.54191406 -13.4921875 1.59570312 C-11.66105139 1.7248217 -9.83046187 1.86165114 -8 2 C-8 1.34 -8 0.68 -8 0 C-2.25 -1.125 -2.25 -1.125 0 0 Z " fill="#0A4A85" transform="translate(322,117)"/>
<path d="M0 0 C0.33 0 0.66 0 1 0 C2.33896376 9.37274634 2.63014947 17.90423335 -3 26 C-3.99 26.66 -4.98 27.32 -6 28 C-6.33 26.35 -6.66 24.7 -7 23 C-5.68 22.67 -4.36 22.34 -3 22 C-2.855625 20.700625 -2.71125 19.40125 -2.5625 18.0625 C-2.125 14.125 -2.125 14.125 -1 13 C-0.76518307 10.81707226 -0.58636677 8.62796826 -0.4375 6.4375 C-0.35371094 5.23996094 -0.26992188 4.04242188 -0.18359375 2.80859375 C-0.12300781 1.88175781 -0.06242187 0.95492187 0 0 Z " fill="#0D529E" transform="translate(333,84)"/>
<path d="M0 0 C4.08641257 0.73266488 7.59474154 2.68657975 11.25 4.5625 C11.8996875 4.89185547 12.549375 5.22121094 13.21875 5.56054688 C14.81434294 6.37007565 16.40742483 7.18455042 18 8 C16.02 8.99 16.02 8.99 14 10 C13.67 9.34 13.34 8.68 13 8 C12.1028125 8.2784375 12.1028125 8.2784375 11.1875 8.5625 C9 9 9 9 6 8 C4.3125 5.4375 4.3125 5.4375 3 3 C2.01 3.495 2.01 3.495 1 4 C0.67 2.68 0.34 1.36 0 0 Z " fill="#0A5AA3" transform="translate(316,143)"/>
<path d="M0 0 C0.33 0.66 0.66 1.32 1 2 C0.34 2 -0.32 2 -1 2 C-1 2.99 -1 3.98 -1 5 C-1.66 5.66 -2.32 6.32 -3 7 C-3.46019531 7.47050781 -3.92039063 7.94101563 -4.39453125 8.42578125 C-6.0977163 10.09581428 -7.8693588 11.64379521 -9.6875 13.1875 C-10.31011719 13.71730469 -10.93273437 14.24710938 -11.57421875 14.79296875 C-12.04472656 15.19128906 -12.51523438 15.58960938 -13 16 C-13.66 15.67 -14.32 15.34 -15 15 C-14.34 14.01 -13.68 13.02 -13 12 C-12.34 12 -11.68 12 -11 12 C-11 11.34 -11 10.68 -11 10 C-10.34 10 -9.68 10 -9 10 C-9 9.34 -9 8.68 -9 8 C-8.34 8 -7.68 8 -7 8 C-6.34 6.68 -5.68 5.36 -5 4 C-4.34 4 -3.68 4 -3 4 C-2.67 3.01 -2.34 2.02 -2 1 C-1.34 0.67 -0.68 0.34 0 0 Z " fill="#0A5093" transform="translate(169,135)"/>
<path d="M0 0 C0.33 0.99 0.66 1.98 1 3 C1.99 3.33 2.98 3.66 4 4 C2.246314 6.17759024 1.3522538 6.93641425 -1.4453125 7.44140625 C-2.77175781 7.50134766 -2.77175781 7.50134766 -4.125 7.5625 C-6.74150598 7.64589072 -6.74150598 7.64589072 -9 8 C-9.33 8.66 -9.66 9.32 -10 10 C-10.33 8.68 -10.66 7.36 -11 6 C-7.78548731 4.39274365 -4.56387464 4.94251815 -1 5 C-0.67 3.35 -0.34 1.7 0 0 Z " fill="#0669C6" transform="translate(323,109)"/>
<path d="M0 0 C2.94543653 4.41815479 1.85792649 7.91372155 1 13 C0.1004745 17.02892737 -0.91214986 21.01805796 -2 25 C-2.99 25 -3.98 25 -5 25 C-4.88406494 24.45585449 -4.76812988 23.91170898 -4.64868164 23.35107422 C-4.11859782 20.85933588 -3.59053384 18.36717353 -3.0625 15.875 C-2.88009766 15.0190625 -2.69769531 14.163125 -2.50976562 13.28125 C-1.57579657 8.86612354 -0.694702 4.46071808 0 0 Z " fill="#0F4B8C" transform="translate(403,221)"/>
<path d="M0 0 C4.93506494 4.31818182 4.93506494 4.31818182 5.25 7.625 C5.1675 8.40875 5.085 9.1925 5 10 C5.33 10.99 5.66 11.98 6 13 C4.68 13 3.36 13 2 13 C2 11.35 2 9.7 2 8 C1.34 8 0.68 8 0 8 C-0.38063221 5.6739143 -0.71269945 3.33944736 -1 1 C-0.67 0.67 -0.34 0.34 0 0 Z " fill="#0568C3" transform="translate(398,174)"/>
<path d="M0 0 C2.01822917 0.06510417 4.03645833 0.13020833 6.0546875 0.1953125 C6.0546875 0.5253125 6.0546875 0.8553125 6.0546875 1.1953125 C4.9615625 1.2571875 3.8684375 1.3190625 2.7421875 1.3828125 C-1.0927652 1.79408514 -1.0927652 1.79408514 -2.7578125 4.7578125 C-3.1496875 5.5621875 -3.5415625 6.3665625 -3.9453125 7.1953125 C-4.6053125 7.1953125 -5.2653125 7.1953125 -5.9453125 7.1953125 C-5.9453125 8.5153125 -5.9453125 9.8353125 -5.9453125 11.1953125 C-6.5846875 11.4840625 -7.2240625 11.7728125 -7.8828125 12.0703125 C-10.09737329 13.02354701 -10.09737329 13.02354701 -10.9453125 15.1953125 C-11.6053125 14.8653125 -12.2653125 14.5353125 -12.9453125 14.1953125 C-11.48893579 12.23549693 -10.03031098 10.27742703 -8.5703125 8.3203125 C-8.1578125 7.76472656 -7.7453125 7.20914063 -7.3203125 6.63671875 C-2.55433564 0.2564594 -2.55433564 0.2564594 0 0 Z " fill="#0D4A87" transform="translate(374.9453125,116.8046875)"/>
<path d="M0 0 C0.66 0.99 1.32 1.98 2 3 C-0.63886654 7.2026393 -3.36440339 10.56638098 -7 14 C-7.99 13.67 -8.98 13.34 -10 13 C-5.05 6.565 -5.05 6.565 0 0 Z " fill="#095498" transform="translate(181,333)"/>
<path d="M0 0 C0.66 0.33 1.32 0.66 2 1 C-1.46524064 6.81665393 -1.46524064 6.81665393 -4.1875 7.75 C-4.785625 7.8325 -5.38375 7.915 -6 8 C-6.33 8.66 -6.66 9.32 -7 10 C-8.32 9.67 -9.64 9.34 -11 9 C-3.70159453 2.66514806 -3.70159453 2.66514806 0 0 Z " fill="#08529C" transform="translate(181,125)"/>
<path d="M0 0 C-0.66 0 -1.32 0 -2 0 C-2.33 0.99 -2.66 1.98 -3 3 C-3.78375 2.95875 -4.5675 2.9175 -5.375 2.875 C-8.16116119 2.71271266 -8.16116119 2.71271266 -10 5 C-12.1640625 5.1953125 -12.1640625 5.1953125 -14.625 5.125 C-15.44226563 5.10695313 -16.25953125 5.08890625 -17.1015625 5.0703125 C-17.72804687 5.04710937 -18.35453125 5.02390625 -19 5 C-15.9040842 3.3863269 -12.76272828 2.05395018 -9.5 0.8125 C-8.5615625 0.44769531 -7.623125 0.08289063 -6.65625 -0.29296875 C-3.91128353 -1.02361424 -2.6236444 -0.97149097 0 0 Z " fill="#0A4987" transform="translate(254,374)"/>
<path d="M0 0 C0.66 0 1.32 0 2 0 C1.67 5.94 1.34 11.88 1 18 C0.67 18 0.34 18 0 18 C-0.33 16.35 -0.66 14.7 -1 13 C-1.66 13 -2.32 13 -3 13 C-2.68991116 11.39536551 -2.37683713 9.79130769 -2.0625 8.1875 C-1.88847656 7.29417969 -1.71445313 6.40085937 -1.53515625 5.48046875 C-1 3 -1 3 0 0 Z " fill="#144B7F" transform="translate(100,322)"/>
<path d="M0 0 C1.231394 3.69418201 0.64432764 6.2056261 0 10 C1.65 10 3.3 10 5 10 C5 9.01 5 8.02 5 7 C5.66 7 6.32 7 7 7 C7 7.66 7 8.32 7 9 C7.66 9.33 8.32 9.66 9 10 C5.54970958 12.30019361 4.05445642 12.43132515 0 12 C-2 9 -2 9 -1.6875 5.4375 C-1 2 -1 2 0 0 Z " fill="#0B4E8E" transform="translate(111,422)"/>
<path d="M0 0 C1 2 1 2 0.44140625 4.1640625 C0.15136719 4.97617187 -0.13867188 5.78828125 -0.4375 6.625 C-0.72496094 7.44226563 -1.01242188 8.25953125 -1.30859375 9.1015625 C-1.65083984 10.04128906 -1.65083984 10.04128906 -2 11 C-2.66 10.67 -3.32 10.34 -4 10 C-4.33 10.66 -4.66 11.32 -5 12 C-7.0625 12.625 -7.0625 12.625 -9 13 C-9 12.34 -9 11.68 -9 11 C-8.34 11 -7.68 11 -7 11 C-6.6596875 10.2265625 -6.6596875 10.2265625 -6.3125 9.4375 C-4.5024447 6.07596873 -2.26003596 3.07088856 0 0 Z " fill="#0B5BA8" transform="translate(158,362)"/>
<path d="M0 0 C0.70125 0.144375 1.4025 0.28875 2.125 0.4375 C4.13502979 0.8307667 6.15838374 1.15899385 8.1875 1.4375 C11 2 11 2 13 4 C15.32275177 4.40047444 17.65739357 4.7397104 20 5 C20 5.33 20 5.66 20 6 C12.11049093 6.64668107 6.95794893 4.64154337 0 1 C0 0.67 0 0.34 0 0 Z " fill="#0C569C" transform="translate(298,169)"/>
<path d="M0 0 C1.65 0 3.3 0 5 0 C5.33 0.99 5.66 1.98 6 3 C4.35 2.67 2.7 2.34 1 2 C0.34 3.65 -0.32 5.3 -1 7 C-1.66 7 -2.32 7 -3 7 C-3.33 7.99 -3.66 8.98 -4 10 C-6 7 -6 7 -6 5 C-4.68 5 -3.36 5 -2 5 C-1.34 3.35 -0.68 1.7 0 0 Z " fill="#0A569F" transform="translate(227,317)"/>
<path d="M0 0 C0.6875 1.6875 0.6875 1.6875 1 4 C-0.4375 6.625 -0.4375 6.625 -2 9 C-2 9.66 -2 10.32 -2 11 C-2.99 11.495 -2.99 11.495 -4 12 C-4 13.32 -4 14.64 -4 16 C-4.66 16 -5.32 16 -6 16 C-6.49940808 9.88225104 -5.24900602 6.97504047 -2 2 C-1.34 2 -0.68 2 0 2 C0 1.34 0 0.68 0 0 Z " fill="#0E4D90" transform="translate(149,156)"/>
<path d="M0 0 C4.92101242 2.0085765 9.42543762 4.29260594 14 7 C11.29120665 8.35439668 8.99066732 8.06501451 6 8 C5.7525 7.360625 5.505 6.72125 5.25 6.0625 C4.18437567 3.81258459 4.18437567 3.81258459 1.875 3.25 C0.946875 3.12625 0.946875 3.12625 0 3 C0 2.01 0 1.02 0 0 Z " fill="#095090" transform="translate(284,124)"/>
<path d="M0 0 C-2.52956528 3.0916909 -5.22454612 3.90931332 -9 5 C-8.67 3.02 -8.34 1.04 -8 -1 C-4.37673261 -2.2077558 -3.35853631 -1.54311128 0 0 Z " fill="#0653A2" transform="translate(304,379)"/>
<path d="M0 0 C0.33 0.99 0.66 1.98 1 3 C-0.97779587 6.8764799 -2.19654895 8.6600784 -6.25 10.375 C-7.61125 10.684375 -7.61125 10.684375 -9 11 C-9 10.34 -9 9.68 -9 9 C-8.34 9 -7.68 9 -7 9 C-7 8.34 -7 7.68 -7 7 C-5.37660195 5.29115995 -3.70680947 3.62553283 -2 2 C-1.34 1.34 -0.68 0.68 0 0 Z " fill="#09498E" transform="translate(363,300)"/>
<path d="M0 0 C-0.33 0.66 -0.66 1.32 -1 2 C-3.31 2 -5.62 2 -8 2 C-8.33 2.99 -8.66 3.98 -9 5 C-10.98 4.34 -12.96 3.68 -15 3 C-9.94142473 0.27615178 -5.71021045 -1.67947366 0 0 Z " fill="#0B4E92" transform="translate(215,113)"/>
<path d="M0 0 C0.33 0.66 0.66 1.32 1 2 C-0.76774419 2.53122363 -2.53934083 3.04964073 -4.3125 3.5625 C-5.29863281 3.85253906 -6.28476563 4.14257812 -7.30078125 4.44140625 C-10 5 -10 5 -13 4 C-8.66957446 0.44286474 -5.53947792 -0.15387439 0 0 Z " fill="#0B4E94" transform="translate(238,404)"/>
<path d="M0 0 C0.99 0.33 1.98 0.66 3 1 C1.35 3.64 -0.3 6.28 -2 9 C-3.65 8.67 -5.3 8.34 -7 8 C-7 7.34 -7 6.68 -7 6 C-5.35 6 -3.7 6 -2 6 C-2 4.35 -2 2.7 -2 1 C-1.34 0.67 -0.68 0.34 0 0 Z " fill="#0B5299" transform="translate(285,166)"/>
<path d="M0 0 C0.66 0.99 1.32 1.98 2 3 C0.68 3.33 -0.64 3.66 -2 4 C-1.938125 4.78375 -1.87625 5.5675 -1.8125 6.375 C-1.874375 7.24125 -1.93625 8.1075 -2 9 C-2.99 9.66 -3.98 10.32 -5 11 C-5.99 10.67 -6.98 10.34 -8 10 C-7.21654285 8.82780457 -6.42297164 7.66236332 -5.625 6.5 C-5.18414062 5.8503125 -4.74328125 5.200625 -4.2890625 4.53125 C-3.86367187 4.0259375 -3.43828125 3.520625 -3 3 C-2.34 3 -1.68 3 -1 3 C-0.67 2.01 -0.34 1.02 0 0 Z " fill="#0C5192" transform="translate(120,411)"/>
<path d="M0 0 C1.09570312 0.19464844 2.19140625 0.38929688 3.3203125 0.58984375 C4.16335937 0.74582031 5.00640625 0.90179688 5.875 1.0625 C5.875 1.3925 5.875 1.7225 5.875 2.0625 C0.15459989 2.8945582 -5.34740116 3.18286664 -11.125 3.0625 C-10.135 2.7325 -9.145 2.4025 -8.125 2.0625 C-8.125 1.4025 -8.125 0.7425 -8.125 0.0625 C-5.2144446 -1.3927777 -3.16650948 -0.57266661 0 0 Z " fill="#0A4F92" transform="translate(211.125,408.9375)"/>
<path d="M0 0 C-0.66 0.66 -1.32 1.32 -2 2 C-3.32 2 -4.64 2 -6 2 C-6 2.66 -6 3.32 -6 4 C-8.31 4 -10.62 4 -13 4 C-11.72807637 1.45615274 -10.80051531 1.30631844 -8.1875 0.3125 C-7.50042969 0.04050781 -6.81335938 -0.23148437 -6.10546875 -0.51171875 C-3.70623504 -1.06812731 -2.3105636 -0.77364938 0 0 Z " fill="#0B58A3" transform="translate(272,367)"/>
<path d="M0 0 C0.75732422 0.0515625 1.51464844 0.103125 2.29492188 0.15625 C3.47344727 0.25292969 3.47344727 0.25292969 4.67578125 0.3515625 C5.47306641 0.40828125 6.27035156 0.465 7.09179688 0.5234375 C9.05801706 0.66472278 11.02326949 0.81936156 12.98828125 0.9765625 C12.98828125 1.3065625 12.98828125 1.6365625 12.98828125 1.9765625 C11.57675781 2.06744141 11.57675781 2.06744141 10.13671875 2.16015625 C8.89148438 2.24394531 7.64625 2.32773438 6.36328125 2.4140625 C5.13351563 2.49527344 3.90375 2.57648438 2.63671875 2.66015625 C-0.62704263 2.94320194 -3.79115734 3.38695203 -7.01171875 3.9765625 C-7.01171875 3.3165625 -7.01171875 2.6565625 -7.01171875 1.9765625 C-3.88828212 -0.10572858 -3.47318953 -0.26114207 0 0 Z " fill="#0F5292" transform="translate(213.01171875,137.0234375)"/>
<path d="M0 0 C0.763125 0.309375 1.52625 0.61875 2.3125 0.9375 C4.18789677 1.67893593 6.08684652 2.36228217 8 3 C8 3.66 8 4.32 8 5 C8.61875 5.12375 9.2375 5.2475 9.875 5.375 C12 6 12 6 14 8 C12.68 8 11.36 8 10 8 C10 7.34 10 6.68 10 6 C7.03 5.505 7.03 5.505 4 5 C4 4.34 4 3.68 4 3 C2.68 2.67 1.36 2.34 0 2 C0 1.34 0 0.68 0 0 Z " fill="#0C4B8A" transform="translate(246,286)"/>
<path d="M0 0 C1.32 0 2.64 0 4 0 C2.68775452 3.93673644 1.08089673 6.22719294 -2 9 C-4 8 -4 8 -5 6 C-3.68 6 -2.36 6 -1 6 C-1.020625 5.195625 -1.04125 4.39125 -1.0625 3.5625 C-1 1 -1 1 0 0 Z " fill="#064C91" transform="translate(359,166)"/>
<path d="M0 0 C0.99 0 1.98 0 3 0 C1.75696561 5.17930997 0.14512215 8.70166639 -3 13 C-4.33332095 10.3333581 -3.67102033 8.83319697 -3 6 C-2.01 6 -1.02 6 0 6 C0 4.02 0 2.04 0 0 Z " fill="#0A4C90" transform="translate(279,330)"/>
<path d="M0 0 C0.928125 0.165 1.85625 0.33 2.8125 0.5 C5.95621353 1.07748388 5.95621353 1.07748388 9 1 C9.66 2.32 10.32 3.64 11 5 C6.62886504 4.49172849 3.61004338 3.54826592 0 1 C0 0.67 0 0.34 0 0 Z " fill="#0D4E97" transform="translate(237,322)"/>
<path d="M0 0 C2.58548628 2.58548628 2.97641847 4.29538385 3.09765625 7.91796875 C3.08605469 8.99691406 3.07445312 10.07585937 3.0625 11.1875 C3.05347656 12.27417969 3.04445313 13.36085938 3.03515625 14.48046875 C3.02355469 15.31191406 3.01195312 16.14335937 3 17 C2.67 17 2.34 17 2 17 C1.92652344 16.14728516 1.92652344 16.14728516 1.8515625 15.27734375 C1.36856919 10.28918871 0.52361837 5.77400422 -1 1 C-0.67 0.67 -0.34 0.34 0 0 Z " fill="#094C89" transform="translate(280,311)"/>
<path d="M0 0 C-2.12124966 0.86343824 -4.24713072 1.71550648 -6.375 2.5625 C-8.15003906 3.27599609 -8.15003906 3.27599609 -9.9609375 4.00390625 C-13 5 -13 5 -15 4 C-10.06105665 0.35458943 -6.09449715 -2.03149905 0 0 Z " fill="#0C4584" transform="translate(249,363)"/>
<path d="M0 0 C1.051875 0.144375 2.10375 0.28875 3.1875 0.4375 C2.8575 1.0975 2.5275 1.7575 2.1875 2.4375 C0.5375 2.4375 -1.1125 2.4375 -2.8125 2.4375 C-3.1425 4.4175 -3.4725 6.3975 -3.8125 8.4375 C-5.4625 8.1075 -7.1125 7.7775 -8.8125 7.4375 C-5.01381291 0.57535558 -5.01381291 0.57535558 0 0 Z " fill="#0A64B6" transform="translate(377.8125,117.5625)"/>
<path d="M0 0 C0.33 0.66 0.66 1.32 1 2 C-0.54705733 5.09411467 -2.88071772 5.71558965 -6 7 C-7.32 6.67 -8.64 6.34 -10 6 C-6.7 4.02 -3.4 2.04 0 0 Z " fill="#0B4A88" transform="translate(305,347)"/>
<path d="M0 0 C1.20896794 3.62690383 1.20896794 4.37309617 0 8 C-1.32 7.67 -2.64 7.34 -4 7 C-4 7.66 -4 8.32 -4 9 C-4.66 9 -5.32 9 -6 9 C-4.47291037 5.56404834 -2.40072955 2.88087546 0 0 Z " fill="#0A4D99" transform="translate(375,286)"/>
<path d="M0 0 C1.65 0 3.3 0 5 0 C5 0.66 5 1.32 5 2 C4.34 2 3.68 2 3 2 C3 2.66 3 3.32 3 4 C0.36 4 -2.28 4 -5 4 C-5 3.34 -5 2.68 -5 2 C-3.35 1.67 -1.7 1.34 0 1 C0 0.67 0 0.34 0 0 Z " fill="#0B529A" transform="translate(150,170)"/>
<path d="M0 0 C4.12751449 0.60698743 7.3321148 2.03810791 11 4 C7.42355152 5.2380014 4.66305234 4.74926071 1 4 C0.67 2.68 0.34 1.36 0 0 Z " fill="#085195" transform="translate(273,119)"/>
<path d="M0 0 C0.66 0.33 1.32 0.66 2 1 C0.75122171 4.74633486 -1.06047445 6.41041797 -4 9 C-4.99 9 -5.98 9 -7 9 C-7 8.34 -7 7.68 -7 7 C-6.34 7 -5.68 7 -5 7 C-5 6.34 -5 5.68 -5 5 C-3.625 3.375 -3.625 3.375 -2 2 C-1.34 2 -0.68 2 0 2 C0 1.34 0 0.68 0 0 Z " fill="#084789" transform="translate(225,358)"/>
<path d="M0 0 C0.93423645 3.01031744 1.04449911 3.86650268 0 7 C-0.34820041 8.66362417 -0.68404492 10.32995171 -1 12 C-1.99 12.33 -2.98 12.66 -4 13 C-4 12.34 -4 11.68 -4 11 C-3.34 11 -2.68 11 -2 11 C-2.061875 9.1128125 -2.061875 9.1128125 -2.125 7.1875 C-2.2390374 3.70935927 -2.05925681 3.08888522 0 0 Z " fill="#0658A7" transform="translate(246,151)"/>
<path d="M0 0 C-0.75 1.9375 -0.75 1.9375 -2 4 C-4.125 4.75 -4.125 4.75 -6 5 C-6 5.66 -6 6.32 -6 7 C-7.32 6.67 -8.64 6.34 -10 6 C-8.71283353 4.99421411 -7.42011342 3.99553202 -6.125 3 C-5.40570313 2.443125 -4.68640625 1.88625 -3.9453125 1.3125 C-2 0 -2 0 0 0 Z " fill="#105BA3" transform="translate(354,144)"/>
<path d="M0 0 C-0.66 0 -1.32 0 -2 0 C-1.34 1.32 -0.68 2.64 0 4 C-1.2684375 3.5359375 -1.2684375 3.5359375 -2.5625 3.0625 C-6.0497854 1.98461179 -9.38177535 1.43418696 -13 1 C-13 0.67 -13 0.34 -13 0 C-11.39679026 -0.19551338 -9.79237014 -0.38111983 -8.1875 -0.5625 C-7.29417969 -0.66691406 -6.40085938 -0.77132812 -5.48046875 -0.87890625 C-3 -1 -3 -1 0 0 Z " fill="#0A539D" transform="translate(239,139)"/>
<path d="M0 0 C0.99 0.495 0.99 0.495 2 1 C2 1.66 2 2.32 2 3 C2.66 3 3.32 3 4 3 C4 3.66 4 4.32 4 5 C4.99 5.33 5.98 5.66 7 6 C6.01 6.33 5.02 6.66 4 7 C3.67 7.66 3.34 8.32 3 9 C2.67 7.35 2.34 5.7 2 4 C1.34 4 0.68 4 0 4 C0 2.68 0 1.36 0 0 Z " fill="#0A4F96" transform="translate(112,364)"/>
<path d="M0 0 C0.33 0 0.66 0 1 0 C1 2.64 1 5.28 1 8 C0.01 8.33 -0.98 8.66 -2 9 C-2.125 5.625 -2.125 5.625 -2 2 C-1.34 1.34 -0.68 0.68 0 0 Z " fill="#0067C8" transform="translate(100,344)"/>
<path d="M0 0 C2 1 2 1 3 3 C1.68 3 0.36 3 -1 3 C-1.33 4.32 -1.66 5.64 -2 7 C-3.65 7.33 -5.3 7.66 -7 8 C-6.67 7.34 -6.34 6.68 -6 6 C-5.34 6 -4.68 6 -4 6 C-4 5.34 -4 4.68 -4 4 C-3.34 4 -2.68 4 -2 4 C-2 3.34 -2 2.68 -2 2 C-1.34 2 -0.68 2 0 2 C0 1.34 0 0.68 0 0 Z " fill="#085099" transform="translate(352,311)"/>
<path d="M0 0 C0.78375 0.04125 1.5675 0.0825 2.375 0.125 C2.375 0.785 2.375 1.445 2.375 2.125 C1.715 2.125 1.055 2.125 0.375 2.125 C0.08625 2.764375 -0.2025 3.40375 -0.5 4.0625 C-1.625 6.125 -1.625 6.125 -3.625 7.125 C-4.25 4.75 -4.25 4.75 -4.625 2.125 C-2.625 0.125 -2.625 0.125 0 0 Z " fill="#0B519B" transform="translate(382.625,313.875)"/>
<path d="M0 0 C1.65 0 3.3 0 5 0 C5.33 1.32 5.66 2.64 6 4 C7.32 4.33 8.64 4.66 10 5 C9.01 6.485 9.01 6.485 8 8 C7.67 7.01 7.34 6.02 7 5 C6.34 5 5.68 5 5 5 C5 4.34 5 3.68 5 3 C2.525 2.01 2.525 2.01 0 1 C0 0.67 0 0.34 0 0 Z " fill="#0A4F99" transform="translate(239,143)"/>
<path d="M0 0 C2.16874252 0.50603992 3.99967627 0.99983813 6 2 C5.67 3.32 5.34 4.64 5 6 C2.525 5.01 2.525 5.01 0 4 C0 2.68 0 1.36 0 0 Z " fill="#036ED2" transform="translate(322,73)"/>
<path d="M0 0 C1.875 0.3125 1.875 0.3125 4 1 C6 4 6 4 5.625 6.1875 C5.41875 6.785625 5.2125 7.38375 5 8 C4.67 7.01 4.34 6.02 4 5 C3.34 5 2.68 5 2 5 C1.34 3.35 0.68 1.7 0 0 Z " fill="#0C4A92" transform="translate(106,380)"/>
<path d="M0 0 C0 0.99 0 1.98 0 3 C-2.3125 5.25 -2.3125 5.25 -5 7 C-5.99 6.67 -6.98 6.34 -8 6 C-5.51047079 3.33264727 -3.36591866 1.44253657 0 0 Z " fill="#0A4E91" transform="translate(315,341)"/>
<path d="M0 0 C0.33 0.66 0.66 1.32 1 2 C-0.06893218 3.03590338 -1.15578488 4.05333942 -2.25 5.0625 C-3.15492188 5.91521484 -3.15492188 5.91521484 -4.078125 6.78515625 C-5.02945312 7.38650391 -5.02945312 7.38650391 -6 8 C-7.32 7.67 -8.64 7.34 -10 7 C-6.7 4.69 -3.4 2.38 0 0 Z " fill="#093C71" transform="translate(326,333)"/>
<path d="M0 0 C0 3 0 3 -1.53125 4.60546875 C-2.1809375 5.12753906 -2.830625 5.64960938 -3.5 6.1875 C-4.1496875 6.71730469 -4.799375 7.24710937 -5.46875 7.79296875 C-5.9740625 8.19128906 -6.479375 8.58960938 -7 9 C-6.3125 5.625 -6.3125 5.625 -5 2 C-2.375 0.5625 -2.375 0.5625 0 0 Z " fill="#063D7F" transform="translate(374,325)"/>
<path d="M0 0 C0.99 0.33 1.98 0.66 3 1 C3 1.66 3 2.32 3 3 C3.66 3 4.32 3 5 3 C6.625 5 6.625 5 8 7 C7.67 7.66 7.34 8.32 7 9 C5.68 8.67 4.36 8.34 3 8 C2.67 6.02 2.34 4.04 2 2 C1.34 2 0.68 2 0 2 C0 1.34 0 0.68 0 0 Z " fill="#0B4A85" transform="translate(272,302)"/>
<path d="M0 0 C9.41002278 -0.3690205 9.41002278 -0.3690205 14 2 C14 2.33 14 2.66 14 3 C12.41590006 2.88512252 10.83271037 2.75765492 9.25 2.625 C8.36828125 2.55539063 7.4865625 2.48578125 6.578125 2.4140625 C4.00933618 2.00149945 2.24158985 1.28839043 0 0 Z " fill="#10589B" transform="translate(305,65)"/>
<path d="M0 0 C0.33 0.66 0.66 1.32 1 2 C0.3125 4.0625 0.3125 4.0625 -1 6 C-3.125 6.75 -3.125 6.75 -5 7 C-5 7.66 -5 8.32 -5 9 C-5.99 9.33 -6.98 9.66 -8 10 C-8 9.34 -8 8.68 -8 8 C-7.34 8 -6.68 8 -6 8 C-6 7.34 -6 6.68 -6 6 C-5.34 6 -4.68 6 -4 6 C-3.67 5.01 -3.34 4.02 -3 3 C-2.34 3 -1.68 3 -1 3 C-0.67 2.01 -0.34 1.02 0 0 Z " fill="#093E79" transform="translate(239,344)"/>
<path d="M0 0 C0.99 0 1.98 0 3 0 C2.67 1.32 2.34 2.64 2 4 C0.68 4.33 -0.64 4.66 -2 5 C-2 5.66 -2 6.32 -2 7 C-2.66 6.67 -3.32 6.34 -4 6 C-2.1875 3 -2.1875 3 0 0 Z " fill="#0A5293" transform="translate(213,289)"/>
<path d="M0 0 C1.65 0 3.3 0 5 0 C4.375 1.875 4.375 1.875 3 4 C-0.125 5.25 -0.125 5.25 -3 6 C-2 4 -1 2 0 0 Z " fill="#026CCC" transform="translate(220,283)"/>
<path d="M0 0 C0.33 0 0.66 0 1 0 C1.05422947 1.4370809 1.09289723 2.87475462 1.125 4.3125 C1.14820313 5.11300781 1.17140625 5.91351563 1.1953125 6.73828125 C1 9 1 9 -1 12 C-1.22162329 10.37675914 -1.42689803 8.751279 -1.625 7.125 C-1.74101562 6.22007812 -1.85703125 5.31515625 -1.9765625 4.3828125 C-1.98429687 3.59648437 -1.99203125 2.81015625 -2 2 C-1.34 1.34 -0.68 0.68 0 0 Z " fill="#094E94" transform="translate(419,239)"/>
<path d="M0 0 C1.32 0.66 2.64 1.32 4 2 C1.69 3.65 -0.62 5.3 -3 7 C-3.33 5.68 -3.66 4.36 -4 3 C-2.68 2.01 -1.36 1.02 0 0 Z " fill="#094C8C" transform="translate(159,163)"/>
<path d="M0 0 C0.66 0 1.32 0 2 0 C4.42857143 6.28571429 4.42857143 6.28571429 3 10 C3 9.01 3 8.02 3 7 C2.01 7 1.02 7 0 7 C0 4.69 0 2.38 0 0 Z " fill="#0B5499" transform="translate(101,344)"/>
<path d="M0 0 C2.97 0.33 5.94 0.66 9 1 C8.67 1.99 8.34 2.98 8 4 C5.69 3.67 3.38 3.34 1 3 C0.67 2.01 0.34 1.02 0 0 Z " fill="#09509C" transform="translate(97,300)"/>
<path d="M0 0 C0.66 0 1.32 0 2 0 C2.12375 0.61875 2.2475 1.2375 2.375 1.875 C2.87197356 4.19120832 2.87197356 4.19120832 5 6 C4.01 6.33 3.02 6.66 2 7 C1.01 6.34 0.02 5.68 -1 5 C-0.67 3.35 -0.34 1.7 0 0 Z " fill="#0B64B2" transform="translate(98,295)"/>
<path d="M0 0 C-0.33 1.32 -0.66 2.64 -1 4 C-3.31 4.33 -5.62 4.66 -8 5 C-8 4.34 -8 3.68 -8 3 C-2.25 0 -2.25 0 0 0 Z " fill="#0B4D92" transform="translate(192,120)"/>
<path d="M0 0 C0.99 0 1.98 0 3 0 C3 2.97 3 5.94 3 9 C2.34 8.67 1.68 8.34 1 8 C0.40644386 5.35139573 0.25790731 2.70802678 0 0 Z " fill="#094F90" transform="translate(278,96)"/>
<path d="M0 0 C3.93673644 1.31224548 6.22719294 2.91910327 9 6 C8.34 6.66 7.68 7.32 7 8 C6.34 7.01 5.68 6.02 5 5 C4.01 4.67 3.02 4.34 2 4 C2 3.34 2 2.68 2 2 C1.34 2 0.68 2 0 2 C0 1.34 0 0.68 0 0 Z " fill="#0C4E90" transform="translate(319,68)"/>
<path d="M0 0 C2 2 2 2 2.125 4.625 C2.08375 5.40875 2.0425 6.1925 2 7 C1.01 7.33 0.02 7.66 -1 8 C-1.125 2.25 -1.125 2.25 0 0 Z " fill="#1167B9" transform="translate(98,333)"/>
<path d="M0 0 C1.98 0.495 1.98 0.495 4 1 C3.34 2.32 2.68 3.64 2 5 C1.34 5 0.68 5 0 5 C-0.33 5.66 -0.66 6.32 -1 7 C-0.67 4.69 -0.34 2.38 0 0 Z " fill="#0C58A0" transform="translate(364,331)"/>
<path d="M0 0 C0.66 0.99 1.32 1.98 2 3 C1.34 4.32 0.68 5.64 0 7 C-1.32 7 -2.64 7 -4 7 C-2.79618552 4.50638429 -1.54571278 2.31856917 0 0 Z " fill="#084F90" transform="translate(204,302)"/>
<path d="M0 0 C1.65 0 3.3 0 5 0 C5 0.66 5 1.32 5 2 C5.99 2.33 6.98 2.66 8 3 C5.03 3 2.06 3 -1 3 C-0.67 2.01 -0.34 1.02 0 0 Z " fill="#07539B" transform="translate(131,301)"/>
<path d="M0 0 C1.98 0.99 1.98 0.99 4 2 C4 3.98 4 5.96 4 8 C3.01 8.495 3.01 8.495 2 9 C1.34 6.03 0.68 3.06 0 0 Z " fill="#104A90" transform="translate(138,294)"/>
<path d="M0 0 C0.66 0 1.32 0 2 0 C0.90931332 3.77545388 0.0916909 6.47043472 -3 9 C-2.25 2.25 -2.25 2.25 0 0 Z " fill="#084B8C" transform="translate(371,150)"/>
<path d="M0 0 C1.65 0 3.3 0 5 0 C2.525 3.465 2.525 3.465 0 7 C-1.04449911 3.86650268 -0.93423645 3.01031744 0 0 Z " fill="#06468A" transform="translate(166,381)"/>
<path d="M0 0 C0.66 0.33 1.32 0.66 2 1 C1.01 1.33 0.02 1.66 -1 2 C-2.20882096 4.00016466 -2.20882096 4.00016466 -3 6 C-3.66 6 -4.32 6 -5 6 C-5 4.68 -5 3.36 -5 2 C-2.625 0.9375 -2.625 0.9375 0 0 Z " fill="#095195" transform="translate(283,359)"/>
<path d="M0 0 C0.66 0 1.32 0 2 0 C2 1.65 2 3.3 2 5 C-0.31 5 -2.62 5 -5 5 C-3.625 3.5 -3.625 3.5 -2 2 C-1.34 2 -0.68 2 0 2 C0 1.34 0 0.68 0 0 Z " fill="#095094" transform="translate(332,328)"/>
<path d="M0 0 C0.66 0.99 1.32 1.98 2 3 C1.01 3.495 1.01 3.495 0 4 C-0.309375 4.66 -0.61875 5.32 -0.9375 6 C-2 8 -2 8 -5 9 C-3.7508258 5.54074837 -2.32472205 2.85306797 0 0 Z " fill="#0D4A8F" transform="translate(193,317)"/>
<path d="M0 0 C0.99 0 1.98 0 3 0 C2.34 1.98 1.68 3.96 1 6 C0.34 6 -0.32 6 -1 6 C-1.33 6.66 -1.66 7.32 -2 8 C-1.47731534 5.23723823 -0.89130413 2.6739124 0 0 Z " fill="#094C91" transform="translate(397,293)"/>
<path d="M0 0 C1.32 0.33 2.64 0.66 4 1 C3.01 1.33 2.02 1.66 1 2 C1 2.66 1 3.32 1 4 C-1.5 5.625 -1.5 5.625 -4 7 C-3.67 5.68 -3.34 4.36 -3 3 C-2.01 3 -1.02 3 0 3 C0 2.01 0 1.02 0 0 Z " fill="#0C488C" transform="translate(167,157)"/>
<path d="M0 0 C0.33 0.99 0.66 1.98 1 3 C1.99 3.33 2.98 3.66 4 4 C3.01 4.99 2.02 5.98 1 7 C0.34 6.67 -0.32 6.34 -1 6 C-1.042721 4.33388095 -1.04063832 2.66617115 -1 1 C-0.67 0.67 -0.34 0.34 0 0 Z " fill="#0852A0" transform="translate(323,109)"/>
<path d="M0 0 C0.33 0.99 0.66 1.98 1 3 C-0.65 4.65 -2.3 6.3 -4 8 C-4.33 6.35 -4.66 4.7 -5 3 C-4.360625 2.87625 -3.72125 2.7525 -3.0625 2.625 C-2.0415625 2.315625 -2.0415625 2.315625 -1 2 C-0.67 1.34 -0.34 0.68 0 0 Z " fill="#06468D" transform="translate(331,104)"/>
<path d="M0 0 C2.79872437 2.52788007 4.45773019 4.20411134 5 8 C3.0625 7.375 3.0625 7.375 1 6 C0.25 2.875 0.25 2.875 0 0 Z " fill="#094C8E" transform="translate(328,75)"/>
<path d="M0 0 C0 0.99 0 1.98 0 3 C-2.3125 3.625 -2.3125 3.625 -5 4 C-5.99 3.34 -6.98 2.68 -8 2 C-5.36 1.34 -2.72 0.68 0 0 Z " fill="#0B4E8A" transform="translate(215,383)"/>
<path d="M0 0 C3.35595828 0.59927826 5.37801226 1.84622436 8 4 C6.02 4 4.04 4 2 4 C1.34 2.68 0.68 1.36 0 0 Z " fill="#0A4B8A" transform="translate(124,375)"/>
<path d="M0 0 C-0.66 0 -1.32 0 -2 0 C-2.33 0.99 -2.66 1.98 -3 3 C-4.65 3 -6.3 3 -8 3 C-7.34 2.67 -6.68 2.34 -6 2 C-6 1.34 -6 0.68 -6 0 C-3.50907189 -1.24546405 -2.58919267 -0.7767578 0 0 Z " fill="#09519F" transform="translate(254,374)"/>
<path d="M0 0 C1.24546405 2.49092811 0.7767578 3.41080733 0 6 C-0.99 6 -1.98 6 -3 6 C-3 6.66 -3 7.32 -3 8 C-3.66 7.67 -4.32 7.34 -5 7 C-3.35 4.69 -1.7 2.38 0 0 Z " fill="#0A4283" transform="translate(158,362)"/>
<path d="M0 0 C1.65 0 3.3 0 5 0 C5 0.66 5 1.32 5 2 C4.34 2 3.68 2 3 2 C2.34 3.32 1.68 4.64 1 6 C0.67 6 0.34 6 0 6 C0 4.02 0 2.04 0 0 Z " fill="#084D91" transform="translate(385,308)"/>
<path d="M0 0 C0.93423645 3.01031744 1.04449911 3.86650268 0 7 C-2.0625 7.6875 -2.0625 7.6875 -4 8 C-2.66666667 5.33333333 -1.33333333 2.66666667 0 0 Z " fill="#0A4D94" transform="translate(387,268)"/>
<path d="M0 0 C0.66 0 1.32 0 2 0 C2.33 2.31 2.66 4.62 3 7 C2.01 7.495 2.01 7.495 1 8 C0.67 5.36 0.34 2.72 0 0 Z " fill="#0E518D" transform="translate(152,248)"/>
<path d="M0 0 C2.31 0 4.62 0 7 0 C4.01353231 1.99097846 1.40312738 2.94124926 -2 4 C-2 3.34 -2 2.68 -2 2 C-1.34 2 -0.68 2 0 2 C0 1.34 0 0.68 0 0 Z " fill="#0C5194" transform="translate(189,143)"/>
<path d="M0 0 C1.258125 -0.04125 2.51625 -0.0825 3.8125 -0.125 C4.52019531 -0.14820312 5.22789062 -0.17140625 5.95703125 -0.1953125 C8 0 8 0 11 2 C7 2 3 2 -1 2 C-0.67 1.34 -0.34 0.68 0 0 Z " fill="#0B57A0" transform="translate(256,114)"/>
<path d="" fill="#000000" transform="translate(0,0)"/>
<path d="" fill="#000000" transform="translate(0,0)"/>
<path d="" fill="#000000" transform="translate(0,0)"/>
<path d="" fill="#000000" transform="translate(0,0)"/>
<path d="" fill="#000000" transform="translate(0,0)"/>
<path d="" fill="#000000" transform="translate(0,0)"/>
<path d="" fill="#000000" transform="translate(0,0)"/>
<path d="" fill="#000000" transform="translate(0,0)"/>
<path d="" fill="#000000" transform="translate(0,0)"/>
<path d="" fill="#000000" transform="translate(0,0)"/>
<path d="" fill="#000000" transform="translate(0,0)"/>
<path d="" fill="#000000" transform="translate(0,0)"/>
<path d="" fill="#000000" transform="translate(0,0)"/>
<path d="" fill="#000000" transform="translate(0,0)"/>
<path d="" fill="#000000" transform="translate(0,0)"/>
<path d="" fill="#000000" transform="translate(0,0)"/>
<path d="" fill="#000000" transform="translate(0,0)"/>
<path d="" fill="#000000" transform="translate(0,0)"/>
<path d="" fill="#000000" transform="translate(0,0)"/>
<path d="" fill="#000000" transform="translate(0,0)"/>
<path d="" fill="#000000" transform="translate(0,0)"/>
<path d="" fill="#000000" transform="translate(0,0)"/>
<path d="" fill="#000000" transform="translate(0,0)"/>
<path d="" fill="#000000" transform="translate(0,0)"/>
<path d="" fill="#000000" transform="translate(0,0)"/>
<path d="" fill="#000000" transform="translate(0,0)"/>
<path d="" fill="#000000" transform="translate(0,0)"/>
<path d="" fill="#000000" transform="translate(0,0)"/>
<path d="" fill="#000000" transform="translate(0,0)"/>
<path d="" fill="#000000" transform="translate(0,0)"/>
<path d="" fill="#000000" transform="translate(0,0)"/>
<path d="" fill="#000000" transform="translate(0,0)"/>
<path d="" fill="#000000" transform="translate(0,0)"/>
<path d="" fill="#000000" transform="translate(0,0)"/>
<path d="" fill="#000000" transform="translate(0,0)"/>
<path d="" fill="#000000" transform="translate(0,0)"/>
<path d="" fill="#000000" transform="translate(0,0)"/>
<path d="" fill="#000000" transform="translate(0,0)"/>
<path d="" fill="#000000" transform="translate(0,0)"/>
<path d="" fill="#000000" transform="translate(0,0)"/>
<path d="" fill="#000000" transform="translate(0,0)"/>
<path d="" fill="#000000" transform="translate(0,0)"/>
<path d="" fill="#000000" transform="translate(0,0)"/>
<path d="" fill="#000000" transform="translate(0,0)"/>
<path d="" fill="#000000" transform="translate(0,0)"/>
<path d="" fill="#000000" transform="translate(0,0)"/>
<path d="" fill="#000000" transform="translate(0,0)"/>
<path d="" fill="#000000" transform="translate(0,0)"/>
<path d="" fill="#000000" transform="translate(0,0)"/>
<path d="" fill="#000000" transform="translate(0,0)"/>
<path d="" fill="#000000" transform="translate(0,0)"/>
<path d="" fill="#000000" transform="translate(0,0)"/>
<path d="" fill="#000000" transform="translate(0,0)"/>
<path d="" fill="#000000" transform="translate(0,0)"/>
<path d="" fill="#000000" transform="translate(0,0)"/>
<path d="" fill="#000000" transform="translate(0,0)"/>
<path d="" fill="#000000" transform="translate(0,0)"/>
<path d="" fill="#000000" transform="translate(0,0)"/>
<path d="" fill="#000000" transform="translate(0,0)"/>
<path d="" fill="#000000" transform="translate(0,0)"/>
<path d="" fill="#000000" transform="translate(0,0)"/>
<path d="" fill="#000000" transform="translate(0,0)"/>
<path d="" fill="#000000" transform="translate(0,0)"/>
<path d="" fill="#000000" transform="translate(0,0)"/>
<path d="" fill="#000000" transform="translate(0,0)"/>
<path d="" fill="#000000" transform="translate(0,0)"/>
<path d="" fill="#000000" transform="translate(0,0)"/>
</svg>
